<?xml version="1.0" encoding="utf-8" ?>
<svg baseProfile="full" height="197px" version="1.1" width="257px" xmlns="http://www.w3.org/2000/svg" xmlns:ev="http://www.w3.org/2001/xml-events" xmlns:xlink="http://www.w3.org/1999/xlink"><defs /><path d="M 107.0,118.99686274509804 L 106.0,118.99686274509804 L 105.0,118.99686274509804 L 104.00313725490196,118.0 L 104.00313725490196,117.0 L 105.0,116.00313725490196 L 105.00313725490196,116.0 L 105.00313725490196,115.0 L 105.00313725490196,114.0 L 106.0,113.00313725490196 L 107.0,113.00313725490196 L 107.00313725490196,113.0 L 108.0,112.00313725490196 L 109.0,112.00313725490196 L 110.0,112.00313725490196 L 110.00313725490196,112.0 L 111.0,111.00313725490196 L 112.0,111.00313725490196 L 112.00313725490196,111.0 L 113.0,110.00313725490196 L 113.00313725490196,110.0 L 114.0,109.00313725490196 L 115.0,109.00313725490196 L 115.00313725490196,109.0 L 116.0,108.00313725490196 L 116.00313725490196,108.0 L 116.00313725490196,107.0 L 117.0,106.00313725490196 L 117.00313725490196,106.0 L 118.0,105.00313725490196 L 118.00313725490196,105.0 L 118.00313725490196,104.0 L 118.00313725490196,103.0 L 119.0,102.00313725490196 L 119.00313725490196,102.0 L 119.00313725490196,101.0 L 119.00313725490196,100.0 L 119.00313725490196,99.0 L 119.00313725490196,98.0 L 119.00313725490196,97.0 L 119.00313725490196,96.0 L 119.00313725490196,95.0 L 119.00313725490196,94.0 L 119.00313725490196,93.0 L 119.00313725490196,92.0 L 119.00313725490196,91.0 L 119.00313725490196,90.0 L 119.00313725490196,89.0 L 119.00313725490196,88.0 L 120.0,87.00313725490196 L 120.00313725490196,87.0 L 120.00313725490196,86.0 L 120.00313725490196,85.0 L 120.00313725490196,84.0 L 120.00313725490196,83.0 L 120.00313725490196,82.0 L 120.00313725490196,81.0 L 120.00313725490196,80.0 L 120.00313725490196,79.0 L 120.00313725490196,78.0 L 120.00313725490196,77.0 L 120.00313725490196,76.0 L 120.00313725490196,75.0 L 120.00313725490196,74.0 L 120.00313725490196,73.0 L 120.00313725490196,72.0 L 120.00313725490196,71.0 L 120.00313725490196,70.0 L 120.00313725490196,69.0 L 120.00313725490196,68.0 L 120.00313725490196,67.0 L 120.0,66.99686274509804 L 119.00313725490196,66.0 L 119.00313725490196,65.0 L 119.00313725490196,64.0 L 119.00313725490196,63.0 L 119.0,62.99686274509804 L 118.99686274509804,63.0 L 118.0,63.99686274509804 L 117.0,63.99686274509804 L 116.0,63.99686274509804 L 115.99686274509804,64.0 L 115.0,64.99686274509804 L 114.0,64.99686274509804 L 113.99686274509804,65.0 L 113.0,65.99686274509804 L 112.99686274509804,66.0 L 112.0,66.99686274509804 L 111.0,66.99686274509804 L 110.99686274509804,67.0 L 110.99686274509804,68.0 L 110.0,68.99686274509804 L 109.99686274509804,69.0 L 109.0,69.99686274509804 L 108.99686274509804,70.0 L 108.0,70.99686274509804 L 107.99686274509804,71.0 L 107.99686274509804,72.0 L 107.99686274509804,73.0 L 107.0,73.99686274509804 L 106.99686274509804,74.0 L 106.99686274509804,75.0 L 106.99686274509804,76.0 L 106.99686274509804,77.0 L 106.99686274509804,78.0 L 106.99686274509804,79.0 L 106.99686274509804,80.0 L 106.99686274509804,81.0 L 106.99686274509804,82.0 L 106.99686274509804,83.0 L 106.99686274509804,84.0 L 106.99686274509804,85.0 L 106.99686274509804,86.0 L 106.99686274509804,87.0 L 106.99686274509804,88.0 L 106.99686274509804,89.0 L 106.99686274509804,90.0 L 106.99686274509804,91.0 L 106.99686274509804,92.0 L 106.99686274509804,93.0 L 106.99686274509804,94.0 L 106.99686274509804,95.0 L 106.99686274509804,96.0 L 106.99686274509804,97.0 L 106.99686274509804,98.0 L 106.99686274509804,99.0 L 106.99686274509804,100.0 L 106.0,100.99686274509804 L 105.99686274509804,101.0 L 105.99686274509804,102.0 L 105.99686274509804,103.0 L 105.99686274509804,104.0 L 105.0,104.99686274509804 L 104.99686274509804,105.0 L 104.99686274509804,106.0 L 104.99686274509804,107.0 L 104.0,107.99686274509804 L 103.99686274509804,108.0 L 103.0,108.99686274509804 L 102.99686274509804,109.0 L 102.99686274509804,110.0 L 102.0,110.99686274509804 L 101.99686274509804,111.0 L 101.0,111.99686274509804 L 100.99686274509804,112.0 L 100.0,112.99686274509804 L 99.99686274509804,113.0 L 99.0,113.99686274509804 L 98.99686274509804,114.0 L 98.0,114.99686274509804 L 97.0,114.99686274509804 L 96.99686274509804,115.0 L 96.0,115.99686274509804 L 95.0,115.99686274509804 L 94.99686274509804,116.0 L 94.0,116.99686274509804 L 93.0,116.99686274509804 L 92.0,116.99686274509804 L 91.99686274509804,117.0 L 91.0,117.99686274509804 L 90.0,117.99686274509804 L 89.0,117.99686274509804 L 88.0,117.99686274509804 L 87.0,117.99686274509804 L 86.0,117.99686274509804 L 85.0,117.99686274509804 L 84.0,117.99686274509804 L 83.0,117.99686274509804 L 82.0,117.99686274509804 L 81.0,117.99686274509804 L 80.00313725490196,117.0 L 80.0,116.99686274509804 L 79.0,116.99686274509804 L 78.0,116.99686274509804 L 77.00313725490196,116.0 L 77.0,115.99686274509804 L 76.0,115.99686274509804 L 75.00313725490196,115.0 L 75.0,114.99686274509804 L 74.00313725490196,114.0 L 74.0,113.99686274509804 L 73.0,113.99686274509804 L 72.00313725490196,113.0 L 72.0,112.99686274509804 L 71.00313725490196,112.0 L 71.00313725490196,111.0 L 71.0,110.99686274509804 L 70.00313725490196,110.0 L 70.0,109.99686274509804 L 69.00313725490196,109.0 L 69.0,108.99686274509804 L 68.00313725490196,108.0 L 68.00313725490196,107.0 L 68.0,106.99686274509804 L 67.00313725490196,106.0 L 67.00313725490196,105.0 L 67.0,104.99686274509804 L 66.00313725490196,104.0 L 66.00313725490196,103.0 L 66.00313725490196,102.0 L 66.00313725490196,101.0 L 66.00313725490196,100.0 L 66.00313725490196,99.0 L 66.0,98.99686274509804 L 65.00313725490196,98.0 L 65.00313725490196,97.0 L 65.00313725490196,96.0 L 65.00313725490196,95.0 L 65.00313725490196,94.0 L 65.00313725490196,93.0 L 65.00313725490196,92.0 L 65.00313725490196,91.0 L 65.00313725490196,90.0 L 65.00313725490196,89.0 L 65.00313725490196,88.0 L 65.00313725490196,87.0 L 65.00313725490196,86.0 L 65.00313725490196,85.0 L 65.00313725490196,84.0 L 65.00313725490196,83.0 L 65.00313725490196,82.0 L 65.00313725490196,81.0 L 65.00313725490196,80.0 L 65.00313725490196,79.0 L 65.00313725490196,78.0 L 65.00313725490196,77.0 L 65.00313725490196,76.0 L 65.00313725490196,75.0 L 65.00313725490196,74.0 L 65.00313725490196,73.0 L 65.00313725490196,72.0 L 65.00313725490196,71.0 L 65.00313725490196,70.0 L 65.00313725490196,69.0 L 65.00313725490196,68.0 L 65.00313725490196,67.0 L 65.00313725490196,66.0 L 65.00313725490196,65.0 L 65.00313725490196,64.0 L 65.00313725490196,63.0 L 65.00313725490196,62.0 L 66.0,61.00313725490196 L 66.00313725490196,61.0 L 66.00313725490196,60.0 L 66.00313725490196,59.0 L 67.0,58.00313725490196 L 68.0,58.00313725490196 L 69.0,58.00313725490196 L 70.0,58.00313725490196 L 71.0,58.00313725490196 L 72.0,58.00313725490196 L 73.0,58.00313725490196 L 74.0,58.00313725490196 L 74.99686274509804,59.0 L 75.0,59.00313725490196 L 76.0,59.00313725490196 L 77.0,59.00313725490196 L 77.99686274509804,60.0 L 78.0,60.00313725490196 L 79.0,60.00313725490196 L 79.99686274509804,61.0 L 80.0,61.00313725490196 L 81.0,61.00313725490196 L 81.99686274509804,62.0 L 82.0,62.00313725490196 L 83.0,62.00313725490196 L 83.99686274509804,63.0 L 83.99686274509804,64.0 L 83.99686274509804,65.0 L 83.99686274509804,66.0 L 83.99686274509804,67.0 L 83.0,67.99686274509804 L 82.0,67.99686274509804 L 81.00313725490196,67.0 L 81.0,66.99686274509804 L 80.0,66.99686274509804 L 79.00313725490196,66.0 L 79.0,65.99686274509804 L 78.0,65.99686274509804 L 77.00313725490196,65.0 L 77.0,64.99686274509804 L 76.0,64.99686274509804 L 75.00313725490196,64.0 L 75.0,63.99686274509804 L 74.0,63.99686274509804 L 73.0,63.99686274509804 L 72.00313725490196,63.0 L 72.0,62.99686274509804 L 71.0,62.99686274509804 L 70.99686274509804,63.0 L 70.99686274509804,64.0 L 70.99686274509804,65.0 L 70.99686274509804,66.0 L 70.99686274509804,67.0 L 70.99686274509804,68.0 L 70.99686274509804,69.0 L 70.99686274509804,70.0 L 70.99686274509804,71.0 L 70.99686274509804,72.0 L 70.99686274509804,73.0 L 70.99686274509804,74.0 L 70.99686274509804,75.0 L 70.99686274509804,76.0 L 70.99686274509804,77.0 L 70.99686274509804,78.0 L 70.99686274509804,79.0 L 70.99686274509804,80.0 L 70.99686274509804,81.0 L 70.99686274509804,82.0 L 70.99686274509804,83.0 L 70.99686274509804,84.0 L 70.99686274509804,85.0 L 70.99686274509804,86.0 L 70.99686274509804,87.0 L 70.99686274509804,88.0 L 70.99686274509804,89.0 L 70.99686274509804,90.0 L 70.99686274509804,91.0 L 70.99686274509804,92.0 L 70.99686274509804,93.0 L 70.99686274509804,94.0 L 70.99686274509804,95.0 L 70.99686274509804,96.0 L 70.99686274509804,97.0 L 70.99686274509804,98.0 L 70.99686274509804,99.0 L 70.99686274509804,100.0 L 70.99686274509804,101.0 L 71.0,101.00313725490196 L 71.99686274509804,102.0 L 71.99686274509804,103.0 L 71.99686274509804,104.0 L 72.0,104.00313725490196 L 72.99686274509804,105.0 L 72.99686274509804,106.0 L 73.0,106.00313725490196 L 73.99686274509804,107.0 L 74.0,107.00313725490196 L 74.99686274509804,108.0 L 75.0,108.00313725490196 L 75.99686274509804,109.0 L 76.0,109.00313725490196 L 76.99686274509804,110.0 L 77.0,110.00313725490196 L 77.99686274509804,111.0 L 78.0,111.00313725490196 L 79.0,111.00313725490196 L 79.99686274509804,112.0 L 80.0,112.00313725490196 L 81.0,112.00313725490196 L 82.0,112.00313725490196 L 83.0,112.00313725490196 L 84.0,112.00313725490196 L 84.99686274509804,113.0 L 85.0,113.00313725490196 L 86.0,113.00313725490196 L 87.0,113.00313725490196 L 88.0,113.00313725490196 L 88.00313725490196,113.0 L 89.0,112.00313725490196 L 90.0,112.00313725490196 L 91.0,112.00313725490196 L 92.0,112.00313725490196 L 92.00313725490196,112.0 L 93.0,111.00313725490196 L 94.0,111.00313725490196 L 94.00313725490196,111.0 L 95.0,110.00313725490196 L 95.00313725490196,110.0 L 96.0,109.00313725490196 L 97.0,109.00313725490196 L 97.00313725490196,109.0 L 98.0,108.00313725490196 L 98.00313725490196,108.0 L 98.00313725490196,107.0 L 99.0,106.00313725490196 L 99.00313725490196,106.0 L 100.0,105.00313725490196 L 100.00313725490196,105.0 L 100.00313725490196,104.0 L 100.00313725490196,103.0 L 101.0,102.00313725490196 L 101.00313725490196,102.0 L 101.00313725490196,101.0 L 101.00313725490196,100.0 L 101.00313725490196,99.0 L 101.00313725490196,98.0 L 101.00313725490196,97.0 L 101.00313725490196,96.0 L 101.00313725490196,95.0 L 101.00313725490196,94.0 L 101.00313725490196,93.0 L 101.00313725490196,92.0 L 101.00313725490196,91.0 L 101.00313725490196,90.0 L 101.00313725490196,89.0 L 101.00313725490196,88.0 L 101.00313725490196,87.0 L 101.00313725490196,86.0 L 101.00313725490196,85.0 L 101.00313725490196,84.0 L 101.00313725490196,83.0 L 101.00313725490196,82.0 L 101.00313725490196,81.0 L 101.00313725490196,80.0 L 101.00313725490196,79.0 L 101.00313725490196,78.0 L 101.00313725490196,77.0 L 101.00313725490196,76.0 L 102.0,75.00313725490196 L 102.00313725490196,75.0 L 102.00313725490196,74.0 L 102.00313725490196,73.0 L 102.00313725490196,72.0 L 103.0,71.00313725490196 L 103.00313725490196,71.0 L 103.00313725490196,70.0 L 103.00313725490196,69.0 L 104.0,68.00313725490196 L 104.00313725490196,68.0 L 105.0,67.00313725490196 L 105.00313725490196,67.0 L 105.00313725490196,66.0 L 106.0,65.00313725490196 L 106.00313725490196,65.0 L 107.0,64.00313725490196 L 107.00313725490196,64.0 L 108.0,63.00313725490196 L 108.00313725490196,63.0 L 109.0,62.00313725490196 L 109.00313725490196,62.0 L 110.0,61.00313725490196 L 111.0,61.00313725490196 L 111.00313725490196,61.0 L 112.0,60.00313725490196 L 113.0,60.00313725490196 L 113.00313725490196,60.0 L 114.0,59.00313725490196 L 115.0,59.00313725490196 L 115.00313725490196,59.0 L 116.0,58.00313725490196 L 117.0,58.00313725490196 L 118.0,58.00313725490196 L 119.0,58.00313725490196 L 120.0,58.00313725490196 L 121.0,58.00313725490196 L 122.0,58.00313725490196 L 123.0,58.00313725490196 L 123.99686274509804,59.0 L 124.0,59.00313725490196 L 124.99686274509804,60.0 L 124.99686274509804,61.0 L 124.99686274509804,62.0 L 124.99686274509804,63.0 L 124.99686274509804,64.0 L 124.99686274509804,65.0 L 124.99686274509804,66.0 L 124.99686274509804,67.0 L 124.99686274509804,68.0 L 124.99686274509804,69.0 L 124.99686274509804,70.0 L 124.99686274509804,71.0 L 124.99686274509804,72.0 L 124.99686274509804,73.0 L 124.99686274509804,74.0 L 124.99686274509804,75.0 L 124.99686274509804,76.0 L 124.99686274509804,77.0 L 124.99686274509804,78.0 L 124.99686274509804,79.0 L 124.99686274509804,80.0 L 124.99686274509804,81.0 L 124.99686274509804,82.0 L 124.99686274509804,83.0 L 124.99686274509804,84.0 L 124.99686274509804,85.0 L 124.99686274509804,86.0 L 124.99686274509804,87.0 L 124.99686274509804,88.0 L 124.99686274509804,89.0 L 124.99686274509804,90.0 L 124.99686274509804,91.0 L 124.99686274509804,92.0 L 124.99686274509804,93.0 L 124.99686274509804,94.0 L 124.99686274509804,95.0 L 124.99686274509804,96.0 L 124.99686274509804,97.0 L 124.99686274509804,98.0 L 124.99686274509804,99.0 L 124.99686274509804,100.0 L 124.0,100.99686274509804 L 123.99686274509804,101.0 L 123.99686274509804,102.0 L 123.99686274509804,103.0 L 123.99686274509804,104.0 L 123.0,104.99686274509804 L 122.99686274509804,105.0 L 122.99686274509804,106.0 L 122.99686274509804,107.0 L 122.0,107.99686274509804 L 121.99686274509804,108.0 L 121.0,108.99686274509804 L 120.99686274509804,109.0 L 120.99686274509804,110.0 L 120.0,110.99686274509804 L 119.99686274509804,111.0 L 119.0,111.99686274509804 L 118.99686274509804,112.0 L 118.0,112.99686274509804 L 117.99686274509804,113.0 L 117.0,113.99686274509804 L 116.99686274509804,114.0 L 116.0,114.99686274509804 L 115.0,114.99686274509804 L 114.99686274509804,115.0 L 114.0,115.99686274509804 L 113.99686274509804,116.0 L 113.0,116.99686274509804 L 112.0,116.99686274509804 L 111.0,116.99686274509804 L 110.99686274509804,117.0 L 110.0,117.99686274509804 L 109.0,117.99686274509804 L 108.0,117.99686274509804 L 107.99686274509804,118.0 L 107.0,118.99686274509804 Z" fill="black" stroke="none" /><path d="M 143.0,87.99686274509804 L 142.0,87.99686274509804 L 141.0,87.99686274509804 L 140.0,87.99686274509804 L 139.0,87.99686274509804 L 138.0,87.99686274509804 L 137.0,87.99686274509804 L 136.0,87.99686274509804 L 135.0,87.99686274509804 L 134.00313725490196,87.0 L 134.0,86.99686274509804 L 133.00313725490196,86.0 L 133.0,85.99686274509804 L 132.00313725490196,85.0 L 132.0,84.99686274509804 L 131.00313725490196,84.0 L 131.0,83.99686274509804 L 130.00313725490196,83.0 L 130.00313725490196,82.0 L 130.00313725490196,81.0 L 130.00313725490196,80.0 L 130.00313725490196,79.0 L 130.00313725490196,78.0 L 130.00313725490196,77.0 L 130.00313725490196,76.0 L 130.00313725490196,75.0 L 130.00313725490196,74.0 L 130.00313725490196,73.0 L 130.00313725490196,72.0 L 130.00313725490196,71.0 L 130.00313725490196,70.0 L 130.00313725490196,69.0 L 130.0,68.99686274509804 L 129.0,68.99686274509804 L 128.00313725490196,68.0 L 128.0,67.99686274509804 L 127.00313725490196,67.0 L 128.0,66.00313725490196 L 129.0,66.00313725490196 L 130.0,66.00313725490196 L 131.0,66.00313725490196 L 132.0,66.00313725490196 L 133.0,66.00313725490196 L 134.0,66.00313725490196 L 135.0,66.00313725490196 L 136.0,66.00313725490196 L 137.0,66.00313725490196 L 137.99686274509804,67.0 L 137.0,67.99686274509804 L 136.99686274509804,68.0 L 136.0,68.99686274509804 L 135.99686274509804,69.0 L 135.99686274509804,70.0 L 135.99686274509804,71.0 L 135.99686274509804,72.0 L 135.99686274509804,73.0 L 135.99686274509804,74.0 L 135.99686274509804,75.0 L 135.99686274509804,76.0 L 135.99686274509804,77.0 L 135.99686274509804,78.0 L 135.99686274509804,79.0 L 135.99686274509804,80.0 L 135.99686274509804,81.0 L 135.99686274509804,82.0 L 135.99686274509804,83.0 L 136.0,83.00313725490196 L 136.99686274509804,84.0 L 137.0,84.00313725490196 L 138.0,84.00313725490196 L 138.99686274509804,85.0 L 139.0,85.00313725490196 L 140.0,85.00313725490196 L 141.0,85.00313725490196 L 142.0,85.00313725490196 L 142.00313725490196,85.0 L 143.0,84.00313725490196 L 144.0,84.00313725490196 L 144.00313725490196,84.0 L 145.0,83.00313725490196 L 145.00313725490196,83.0 L 145.00313725490196,82.0 L 145.00313725490196,81.0 L 145.00313725490196,80.0 L 145.00313725490196,79.0 L 145.00313725490196,78.0 L 145.00313725490196,77.0 L 145.00313725490196,76.0 L 145.00313725490196,75.0 L 145.00313725490196,74.0 L 145.00313725490196,73.0 L 145.00313725490196,72.0 L 145.00313725490196,71.0 L 145.00313725490196,70.0 L 145.00313725490196,69.0 L 145.0,68.99686274509804 L 144.0,68.99686274509804 L 143.00313725490196,68.0 L 143.0,67.99686274509804 L 142.00313725490196,67.0 L 143.0,66.00313725490196 L 144.0,66.00313725490196 L 145.0,66.00313725490196 L 146.0,66.00313725490196 L 147.0,66.00313725490196 L 148.0,66.00313725490196 L 149.0,66.00313725490196 L 150.0,66.00313725490196 L 150.99686274509804,67.0 L 150.0,67.99686274509804 L 149.99686274509804,68.0 L 149.0,68.99686274509804 L 148.99686274509804,69.0 L 148.99686274509804,70.0 L 148.99686274509804,71.0 L 148.99686274509804,72.0 L 148.99686274509804,73.0 L 148.99686274509804,74.0 L 148.99686274509804,75.0 L 148.99686274509804,76.0 L 148.0,76.99686274509804 L 147.99686274509804,77.0 L 147.99686274509804,78.0 L 147.99686274509804,79.0 L 147.99686274509804,80.0 L 147.99686274509804,81.0 L 147.99686274509804,82.0 L 147.99686274509804,83.0 L 147.0,83.99686274509804 L 146.99686274509804,84.0 L 146.0,84.99686274509804 L 145.99686274509804,85.0 L 145.0,85.99686274509804 L 144.99686274509804,86.0 L 144.0,86.99686274509804 L 143.99686274509804,87.0 L 143.0,87.99686274509804 Z" fill="black" stroke="none" /><path d="M 167.0,87.99686274509804 L 166.0,87.99686274509804 L 165.0,87.99686274509804 L 164.0,87.99686274509804 L 163.0,87.99686274509804 L 162.0,87.99686274509804 L 161.0,87.99686274509804 L 160.0,87.99686274509804 L 159.0,87.99686274509804 L 158.0,87.99686274509804 L 157.0,87.99686274509804 L 156.00313725490196,87.0 L 156.00313725490196,86.0 L 157.0,85.00313725490196 L 158.0,85.00313725490196 L 159.0,85.00313725490196 L 159.00313725490196,85.0 L 159.00313725490196,84.0 L 159.00313725490196,83.0 L 160.0,82.00313725490196 L 160.00313725490196,82.0 L 160.00313725490196,81.0 L 160.00313725490196,80.0 L 160.00313725490196,79.0 L 160.00313725490196,78.0 L 160.00313725490196,77.0 L 160.00313725490196,76.0 L 160.00313725490196,75.0 L 160.00313725490196,74.0 L 160.00313725490196,73.0 L 160.00313725490196,72.0 L 160.00313725490196,71.0 L 160.00313725490196,70.0 L 160.00313725490196,69.0 L 160.0,68.99686274509804 L 159.0,68.99686274509804 L 158.0,68.99686274509804 L 157.0,68.99686274509804 L 156.0,68.99686274509804 L 155.99686274509804,69.0 L 155.0,69.99686274509804 L 154.99686274509804,70.0 L 154.99686274509804,71.0 L 154.0,71.99686274509804 L 153.99686274509804,72.0 L 153.0,72.99686274509804 L 152.00313725490196,72.0 L 152.00313725490196,71.0 L 152.00313725490196,70.0 L 152.00313725490196,69.0 L 152.00313725490196,68.0 L 152.00313725490196,67.0 L 153.0,66.00313725490196 L 154.0,66.00313725490196 L 155.0,66.00313725490196 L 156.0,66.00313725490196 L 157.0,66.00313725490196 L 158.0,66.00313725490196 L 159.0,66.00313725490196 L 160.0,66.00313725490196 L 161.0,66.00313725490196 L 162.0,66.00313725490196 L 163.0,66.00313725490196 L 164.0,66.00313725490196 L 165.0,66.00313725490196 L 166.0,66.00313725490196 L 167.0,66.00313725490196 L 168.0,66.00313725490196 L 169.0,66.00313725490196 L 170.0,66.00313725490196 L 171.0,66.00313725490196 L 172.0,66.00313725490196 L 172.99686274509804,67.0 L 172.99686274509804,68.0 L 172.0,68.99686274509804 L 171.99686274509804,69.0 L 171.99686274509804,70.0 L 171.99686274509804,71.0 L 171.99686274509804,72.0 L 171.0,72.99686274509804 L 170.00313725490196,72.0 L 170.0,71.99686274509804 L 169.00313725490196,71.0 L 169.00313725490196,70.0 L 169.00313725490196,69.0 L 169.0,68.99686274509804 L 168.0,68.99686274509804 L 167.0,68.99686274509804 L 166.0,68.99686274509804 L 165.0,68.99686274509804 L 164.99686274509804,69.0 L 164.99686274509804,70.0 L 164.99686274509804,71.0 L 164.99686274509804,72.0 L 164.99686274509804,73.0 L 164.99686274509804,74.0 L 164.99686274509804,75.0 L 164.99686274509804,76.0 L 164.99686274509804,77.0 L 164.99686274509804,78.0 L 164.99686274509804,79.0 L 164.99686274509804,80.0 L 164.99686274509804,81.0 L 164.99686274509804,82.0 L 164.99686274509804,83.0 L 164.99686274509804,84.0 L 164.99686274509804,85.0 L 165.0,85.00313725490196 L 166.0,85.00313725490196 L 167.0,85.00313725490196 L 167.99686274509804,86.0 L 167.99686274509804,87.0 L 167.0,87.99686274509804 Z" fill="black" stroke="none" /><path d="M 242.0,87.99686274509804 L 241.0,87.99686274509804 L 240.0,87.99686274509804 L 239.0,87.99686274509804 L 238.0,87.99686274509804 L 237.0,87.99686274509804 L 236.0,87.99686274509804 L 235.0,87.99686274509804 L 234.0,87.99686274509804 L 233.00313725490196,87.0 L 233.00313725490196,86.0 L 234.0,85.00313725490196 L 235.0,85.00313725490196 L 235.00313725490196,85.0 L 235.0,84.99686274509804 L 234.00313725490196,84.0 L 234.00313725490196,83.0 L 234.00313725490196,82.0 L 234.0,81.99686274509804 L 233.00313725490196,81.0 L 233.00313725490196,80.0 L 233.0,79.99686274509804 L 232.0,79.99686274509804 L 231.0,79.99686274509804 L 230.0,79.99686274509804 L 229.0,79.99686274509804 L 228.0,79.99686274509804 L 227.99686274509804,80.0 L 227.99686274509804,81.0 L 227.0,81.99686274509804 L 226.99686274509804,82.0 L 226.99686274509804,83.0 L 226.99686274509804,84.0 L 226.99686274509804,85.0 L 227.0,85.00313725490196 L 228.0,85.00313725490196 L 228.99686274509804,86.0 L 228.99686274509804,87.0 L 228.0,87.99686274509804 L 227.0,87.99686274509804 L 226.0,87.99686274509804 L 225.0,87.99686274509804 L 224.0,87.99686274509804 L 223.0,87.99686274509804 L 222.0,87.99686274509804 L 221.0,87.99686274509804 L 220.0,87.99686274509804 L 219.0,87.99686274509804 L 218.0,87.99686274509804 L 217.0,87.99686274509804 L 216.0,87.99686274509804 L 215.0,87.99686274509804 L 214.0,87.99686274509804 L 213.0,87.99686274509804 L 212.0,87.99686274509804 L 211.0,87.99686274509804 L 210.00313725490196,87.0 L 210.00313725490196,86.0 L 211.0,85.00313725490196 L 212.0,85.00313725490196 L 212.00313725490196,85.0 L 212.00313725490196,84.0 L 212.00313725490196,83.0 L 212.00313725490196,82.0 L 212.00313725490196,81.0 L 212.00313725490196,80.0 L 212.00313725490196,79.0 L 212.00313725490196,78.0 L 212.00313725490196,77.0 L 212.00313725490196,76.0 L 212.00313725490196,75.0 L 212.00313725490196,74.0 L 212.0,73.99686274509804 L 211.99686274509804,74.0 L 211.99686274509804,75.0 L 211.0,75.99686274509804 L 210.99686274509804,76.0 L 210.99686274509804,77.0 L 210.0,77.99686274509804 L 209.99686274509804,78.0 L 209.99686274509804,79.0 L 209.99686274509804,80.0 L 209.0,80.99686274509804 L 208.99686274509804,81.0 L 208.99686274509804,82.0 L 208.0,82.99686274509804 L 207.99686274509804,83.0 L 207.99686274509804,84.0 L 207.0,84.99686274509804 L 206.99686274509804,85.0 L 206.99686274509804,86.0 L 206.0,86.99686274509804 L 205.0,86.99686274509804 L 204.00313725490196,86.0 L 204.0,85.99686274509804 L 203.00313725490196,85.0 L 203.00313725490196,84.0 L 203.00313725490196,83.0 L 203.0,82.99686274509804 L 202.00313725490196,82.0 L 202.00313725490196,81.0 L 202.0,80.99686274509804 L 201.00313725490196,80.0 L 201.00313725490196,79.0 L 201.00313725490196,78.0 L 201.0,77.99686274509804 L 200.00313725490196,77.0 L 200.00313725490196,76.0 L 200.0,75.99686274509804 L 199.00313725490196,75.0 L 199.00313725490196,74.0 L 199.0,73.99686274509804 L 198.99686274509804,74.0 L 198.99686274509804,75.0 L 198.99686274509804,76.0 L 198.99686274509804,77.0 L 198.0,77.99686274509804 L 197.99686274509804,78.0 L 197.99686274509804,79.0 L 197.99686274509804,80.0 L 197.99686274509804,81.0 L 197.99686274509804,82.0 L 197.99686274509804,83.0 L 197.99686274509804,84.0 L 198.0,84.00313725490196 L 198.99686274509804,85.0 L 199.0,85.00313725490196 L 200.0,85.00313725490196 L 200.99686274509804,86.0 L 200.99686274509804,87.0 L 200.0,87.99686274509804 L 199.0,87.99686274509804 L 198.0,87.99686274509804 L 197.0,87.99686274509804 L 196.0,87.99686274509804 L 195.0,87.99686274509804 L 194.0,87.99686274509804 L 193.0,87.99686274509804 L 192.0,87.99686274509804 L 191.0,87.99686274509804 L 190.0,87.99686274509804 L 189.0,87.99686274509804 L 188.0,87.99686274509804 L 187.0,87.99686274509804 L 186.0,87.99686274509804 L 185.0,87.99686274509804 L 184.0,87.99686274509804 L 183.0,87.99686274509804 L 182.00313725490196,87.0 L 182.00313725490196,86.0 L 183.0,85.00313725490196 L 184.0,85.00313725490196 L 184.00313725490196,85.0 L 184.00313725490196,84.0 L 184.00313725490196,83.0 L 184.0,82.99686274509804 L 183.00313725490196,82.0 L 183.00313725490196,81.0 L 183.0,80.99686274509804 L 182.00313725490196,80.0 L 182.0,79.99686274509804 L 181.0,79.99686274509804 L 180.0,79.99686274509804 L 179.0,79.99686274509804 L 178.0,79.99686274509804 L 177.99686274509804,80.0 L 177.0,80.99686274509804 L 176.99686274509804,81.0 L 176.99686274509804,82.0 L 176.99686274509804,83.0 L 176.0,83.99686274509804 L 175.99686274509804,84.0 L 175.99686274509804,85.0 L 176.0,85.00313725490196 L 177.0,85.00313725490196 L 178.0,85.00313725490196 L 178.99686274509804,86.0 L 178.99686274509804,87.0 L 178.0,87.99686274509804 L 177.0,87.99686274509804 L 176.0,87.99686274509804 L 175.0,87.99686274509804 L 174.0,87.99686274509804 L 173.0,87.99686274509804 L 172.0,87.99686274509804 L 171.0,87.99686274509804 L 170.00313725490196,87.0 L 170.00313725490196,86.0 L 171.0,85.00313725490196 L 172.0,85.00313725490196 L 172.00313725490196,85.0 L 173.0,84.00313725490196 L 173.00313725490196,84.0 L 173.00313725490196,83.0 L 174.0,82.00313725490196 L 174.00313725490196,82.0 L 174.00313725490196,81.0 L 175.0,80.00313725490196 L 175.00313725490196,80.0 L 175.00313725490196,79.0 L 175.00313725490196,78.0 L 176.0,77.00313725490196 L 176.00313725490196,77.0 L 176.00313725490196,76.0 L 177.0,75.00313725490196 L 177.00313725490196,75.0 L 177.00313725490196,74.0 L 177.00313725490196,73.0 L 178.0,72.00313725490196 L 178.00313725490196,72.0 L 178.00313725490196,71.0 L 178.00313725490196,70.0 L 179.0,69.00313725490196 L 179.00313725490196,69.0 L 179.00313725490196,68.0 L 179.00313725490196,67.0 L 180.0,66.00313725490196 L 181.0,66.00313725490196 L 182.0,66.00313725490196 L 183.0,66.00313725490196 L 183.99686274509804,67.0 L 183.99686274509804,68.0 L 183.99686274509804,69.0 L 184.0,69.00313725490196 L 184.99686274509804,70.0 L 184.99686274509804,71.0 L 184.99686274509804,72.0 L 185.0,72.00313725490196 L 185.99686274509804,73.0 L 185.99686274509804,74.0 L 185.99686274509804,75.0 L 186.0,75.00313725490196 L 186.99686274509804,76.0 L 186.99686274509804,77.0 L 187.0,77.00313725490196 L 187.99686274509804,78.0 L 187.99686274509804,79.0 L 187.99686274509804,80.0 L 188.0,80.00313725490196 L 188.99686274509804,81.0 L 188.99686274509804,82.0 L 188.99686274509804,83.0 L 189.0,83.00313725490196 L 189.99686274509804,84.0 L 189.99686274509804,85.0 L 190.0,85.00313725490196 L 191.0,85.00313725490196 L 192.0,85.00313725490196 L 193.0,85.00313725490196 L 194.0,85.00313725490196 L 194.00313725490196,85.0 L 195.0,84.00313725490196 L 195.00313725490196,84.0 L 195.00313725490196,83.0 L 195.00313725490196,82.0 L 195.00313725490196,81.0 L 195.00313725490196,80.0 L 195.00313725490196,79.0 L 196.0,78.00313725490196 L 196.00313725490196,78.0 L 196.00313725490196,77.0 L 196.00313725490196,76.0 L 196.00313725490196,75.0 L 196.00313725490196,74.0 L 196.00313725490196,73.0 L 196.00313725490196,72.0 L 196.00313725490196,71.0 L 196.00313725490196,70.0 L 196.00313725490196,69.0 L 196.0,68.99686274509804 L 195.0,68.99686274509804 L 194.00313725490196,68.0 L 194.0,67.99686274509804 L 193.00313725490196,67.0 L 194.0,66.00313725490196 L 195.0,66.00313725490196 L 196.0,66.00313725490196 L 197.0,66.00313725490196 L 198.0,66.00313725490196 L 199.0,66.00313725490196 L 200.0,66.00313725490196 L 201.0,66.00313725490196 L 201.99686274509804,67.0 L 201.99686274509804,68.0 L 201.99686274509804,69.0 L 202.0,69.00313725490196 L 202.99686274509804,70.0 L 202.99686274509804,71.0 L 203.0,71.00313725490196 L 203.99686274509804,72.0 L 203.99686274509804,73.0 L 204.0,73.00313725490196 L 204.99686274509804,74.0 L 204.99686274509804,75.0 L 205.0,75.00313725490196 L 205.99686274509804,76.0 L 205.99686274509804,77.0 L 206.0,77.00313725490196 L 206.99686274509804,78.0 L 206.99686274509804,79.0 L 207.0,79.00313725490196 L 207.00313725490196,79.0 L 207.00313725490196,78.0 L 208.0,77.00313725490196 L 208.00313725490196,77.0 L 208.00313725490196,76.0 L 209.0,75.00313725490196 L 209.00313725490196,75.0 L 209.00313725490196,74.0 L 210.0,73.00313725490196 L 210.00313725490196,73.0 L 210.00313725490196,72.0 L 211.0,71.00313725490196 L 211.00313725490196,71.0 L 211.00313725490196,70.0 L 212.0,69.00313725490196 L 212.00313725490196,69.0 L 212.00313725490196,68.0 L 212.00313725490196,67.0 L 213.0,66.00313725490196 L 214.0,66.00313725490196 L 215.0,66.00313725490196 L 216.0,66.00313725490196 L 217.0,66.00313725490196 L 218.0,66.00313725490196 L 219.0,66.00313725490196 L 220.0,66.00313725490196 L 220.99686274509804,67.0 L 220.0,67.99686274509804 L 219.0,67.99686274509804 L 218.99686274509804,68.0 L 218.0,68.99686274509804 L 217.99686274509804,69.0 L 217.99686274509804,70.0 L 217.99686274509804,71.0 L 217.99686274509804,72.0 L 217.99686274509804,73.0 L 217.99686274509804,74.0 L 217.99686274509804,75.0 L 217.99686274509804,76.0 L 217.99686274509804,77.0 L 217.99686274509804,78.0 L 217.99686274509804,79.0 L 217.99686274509804,80.0 L 217.99686274509804,81.0 L 217.99686274509804,82.0 L 217.99686274509804,83.0 L 217.99686274509804,84.0 L 217.99686274509804,85.0 L 218.0,85.00313725490196 L 219.0,85.00313725490196 L 220.0,85.00313725490196 L 221.0,85.00313725490196 L 222.0,85.00313725490196 L 223.0,85.00313725490196 L 223.00313725490196,85.0 L 223.00313725490196,84.0 L 224.0,83.00313725490196 L 224.00313725490196,83.0 L 224.00313725490196,82.0 L 225.0,81.00313725490196 L 225.00313725490196,81.0 L 225.00313725490196,80.0 L 225.00313725490196,79.0 L 226.0,78.00313725490196 L 226.00313725490196,78.0 L 226.00313725490196,77.0 L 227.0,76.00313725490196 L 227.00313725490196,76.0 L 227.00313725490196,75.0 L 227.00313725490196,74.0 L 228.0,73.00313725490196 L 228.00313725490196,73.0 L 228.00313725490196,72.0 L 228.00313725490196,71.0 L 229.0,70.00313725490196 L 229.00313725490196,70.0 L 229.00313725490196,69.0 L 229.00313725490196,68.0 L 230.0,67.00313725490196 L 230.00313725490196,67.0 L 231.0,66.00313725490196 L 232.0,66.00313725490196 L 233.0,66.00313725490196 L 233.99686274509804,67.0 L 233.99686274509804,68.0 L 234.0,68.00313725490196 L 234.99686274509804,69.0 L 234.99686274509804,70.0 L 235.0,70.00313725490196 L 235.99686274509804,71.0 L 235.99686274509804,72.0 L 235.99686274509804,73.0 L 236.0,73.00313725490196 L 236.99686274509804,74.0 L 236.99686274509804,75.0 L 236.99686274509804,76.0 L 237.0,76.00313725490196 L 237.99686274509804,77.0 L 237.99686274509804,78.0 L 237.99686274509804,79.0 L 238.0,79.00313725490196 L 238.99686274509804,80.0 L 238.99686274509804,81.0 L 238.99686274509804,82.0 L 239.0,82.00313725490196 L 239.99686274509804,83.0 L 239.99686274509804,84.0 L 240.0,84.00313725490196 L 240.99686274509804,85.0 L 241.0,85.00313725490196 L 242.0,85.00313725490196 L 242.99686274509804,86.0 L 242.99686274509804,87.0 L 242.0,87.99686274509804 Z" fill="black" stroke="none" /><path d="M 90.0,104.99686274509804 L 89.0,104.99686274509804 L 88.0,104.99686274509804 L 87.0,104.99686274509804 L 86.0,104.99686274509804 L 85.00313725490196,104.0 L 85.00313725490196,103.0 L 85.00313725490196,102.0 L 86.0,101.00313725490196 L 86.00313725490196,101.0 L 87.0,100.00313725490196 L 87.00313725490196,100.0 L 88.0,99.00313725490196 L 88.00313725490196,99.0 L 89.0,98.00313725490196 L 89.00313725490196,98.0 L 89.0,97.99686274509804 L 88.99686274509804,98.0 L 88.0,98.99686274509804 L 87.99686274509804,99.0 L 87.0,99.99686274509804 L 86.0,99.99686274509804 L 85.00313725490196,99.0 L 85.00313725490196,98.0 L 85.00313725490196,97.0 L 85.00313725490196,96.0 L 86.0,95.00313725490196 L 86.00313725490196,95.0 L 86.0,94.99686274509804 L 85.00313725490196,94.0 L 85.00313725490196,93.0 L 85.00313725490196,92.0 L 85.00313725490196,91.0 L 85.00313725490196,90.0 L 85.00313725490196,89.0 L 85.0,88.99686274509804 L 84.99686274509804,89.0 L 84.99686274509804,90.0 L 84.99686274509804,91.0 L 84.99686274509804,92.0 L 84.99686274509804,93.0 L 84.99686274509804,94.0 L 84.0,94.99686274509804 L 83.99686274509804,95.0 L 84.0,95.00313725490196 L 84.99686274509804,96.0 L 84.99686274509804,97.0 L 84.99686274509804,98.0 L 84.99686274509804,99.0 L 84.0,99.99686274509804 L 83.0,99.99686274509804 L 82.00313725490196,99.0 L 82.0,98.99686274509804 L 81.99686274509804,99.0 L 82.0,99.00313725490196 L 82.99686274509804,100.0 L 83.0,100.00313725490196 L 83.99686274509804,101.0 L 84.0,101.00313725490196 L 84.99686274509804,102.0 L 84.99686274509804,103.0 L 84.99686274509804,104.0 L 84.0,104.99686274509804 L 83.0,104.99686274509804 L 82.0,104.99686274509804 L 81.0,104.99686274509804 L 80.0,104.99686274509804 L 79.0,104.99686274509804 L 78.00313725490196,104.0 L 78.0,103.99686274509804 L 77.00313725490196,103.0 L 77.0,102.99686274509804 L 76.0,102.99686274509804 L 75.00313725490196,102.0 L 75.0,101.99686274509804 L 74.00313725490196,101.0 L 74.0,100.99686274509804 L 73.00313725490196,100.0 L 73.00313725490196,99.0 L 73.0,98.99686274509804 L 72.00313725490196,98.0 L 72.00313725490196,97.0 L 72.00313725490196,96.0 L 72.00313725490196,95.0 L 72.00313725490196,94.0 L 72.00313725490196,93.0 L 72.00313725490196,92.0 L 72.00313725490196,91.0 L 72.00313725490196,90.0 L 72.00313725490196,89.0 L 73.0,88.00313725490196 L 73.00313725490196,88.0 L 73.00313725490196,87.0 L 74.0,86.00313725490196 L 74.00313725490196,86.0 L 74.00313725490196,85.0 L 75.0,84.00313725490196 L 75.00313725490196,84.0 L 75.00313725490196,83.0 L 76.0,82.00313725490196 L 76.00313725490196,82.0 L 76.00313725490196,81.0 L 77.0,80.00313725490196 L 77.00313725490196,80.0 L 78.0,79.00313725490196 L 78.00313725490196,79.0 L 78.00313725490196,78.0 L 79.0,77.00313725490196 L 79.00313725490196,77.0 L 80.0,76.00313725490196 L 80.00313725490196,76.0 L 81.0,75.00313725490196 L 81.00313725490196,75.0 L 82.0,74.00313725490196 L 82.00313725490196,74.0 L 83.0,73.00313725490196 L 83.00313725490196,73.0 L 84.0,72.00313725490196 L 84.00313725490196,72.0 L 85.0,71.00313725490196 L 85.99686274509804,72.0 L 86.0,72.00313725490196 L 86.99686274509804,73.0 L 87.0,73.00313725490196 L 87.99686274509804,74.0 L 88.0,74.00313725490196 L 88.99686274509804,75.0 L 89.0,75.00313725490196 L 89.99686274509804,76.0 L 90.0,76.00313725490196 L 90.99686274509804,77.0 L 90.99686274509804,78.0 L 91.0,78.00313725490196 L 91.99686274509804,79.0 L 92.0,79.00313725490196 L 92.99686274509804,80.0 L 93.0,80.00313725490196 L 93.99686274509804,81.0 L 93.99686274509804,82.0 L 94.0,82.00313725490196 L 94.99686274509804,83.0 L 95.0,83.00313725490196 L 95.99686274509804,84.0 L 95.99686274509804,85.0 L 96.0,85.00313725490196 L 96.99686274509804,86.0 L 96.99686274509804,87.0 L 96.99686274509804,88.0 L 97.0,88.00313725490196 L 97.99686274509804,89.0 L 97.99686274509804,90.0 L 97.99686274509804,91.0 L 97.99686274509804,92.0 L 97.99686274509804,93.0 L 98.0,93.00313725490196 L 98.99686274509804,94.0 L 98.0,94.99686274509804 L 97.99686274509804,95.0 L 97.99686274509804,96.0 L 97.99686274509804,97.0 L 97.99686274509804,98.0 L 97.0,98.99686274509804 L 96.99686274509804,99.0 L 96.99686274509804,100.0 L 96.0,100.99686274509804 L 95.99686274509804,101.0 L 95.0,101.99686274509804 L 94.99686274509804,102.0 L 94.0,102.99686274509804 L 93.0,102.99686274509804 L 92.99686274509804,103.0 L 92.0,103.99686274509804 L 91.0,103.99686274509804 L 90.99686274509804,104.0 L 90.0,104.99686274509804 Z" fill="black" stroke="none" /><path d="M 117.0,81.99686274509804 L 116.00313725490196,81.0 L 116.0,80.99686274509804 L 115.0,80.99686274509804 L 114.00313725490196,80.0 L 114.0,79.99686274509804 L 113.99686274509804,80.0 L 113.0,80.99686274509804 L 112.0,80.99686274509804 L 111.99686274509804,81.0 L 111.0,81.99686274509804 L 110.00313725490196,81.0 L 110.00313725490196,80.0 L 110.00313725490196,79.0 L 111.0,78.00313725490196 L 111.00313725490196,78.0 L 111.0,77.99686274509804 L 110.00313725490196,77.0 L 110.0,76.99686274509804 L 109.00313725490196,76.0 L 109.0,75.99686274509804 L 108.00313725490196,75.0 L 109.0,74.00313725490196 L 110.0,74.00313725490196 L 111.0,74.00313725490196 L 112.0,74.00313725490196 L 112.00313725490196,74.0 L 112.00313725490196,73.0 L 112.00313725490196,72.0 L 113.0,71.00313725490196 L 114.0,71.00313725490196 L 114.99686274509804,72.0 L 115.0,72.00313725490196 L 115.99686274509804,73.0 L 115.99686274509804,74.0 L 116.0,74.00313725490196 L 117.0,74.00313725490196 L 118.0,74.00313725490196 L 119.0,74.00313725490196 L 119.99686274509804,75.0 L 119.0,75.99686274509804 L 118.99686274509804,76.0 L 118.0,76.99686274509804 L 117.99686274509804,77.0 L 117.0,77.99686274509804 L 116.99686274509804,78.0 L 117.0,78.00313725490196 L 117.99686274509804,79.0 L 117.99686274509804,80.0 L 117.99686274509804,81.0 L 117.0,81.99686274509804 Z" fill="black" stroke="none" /><path d="M 182.00313725490196,77.0 L 182.0,76.99686274509804 L 181.00313725490196,76.0 L 181.00313725490196,75.0 L 181.00313725490196,74.0 L 181.0,73.99686274509804 L 180.00313725490196,73.0 L 180.0,72.99686274509804 L 179.99686274509804,73.0 L 179.99686274509804,74.0 L 179.0,74.99686274509804 L 178.99686274509804,75.0 L 178.99686274509804,76.0 L 178.99686274509804,77.0 L 179.0,77.00313725490196 L 180.0,77.00313725490196 L 181.0,77.00313725490196 L 182.0,77.00313725490196 L 182.00313725490196,77.0 Z" fill="black" stroke="none" /><path d="M 232.00313725490196,77.0 L 232.00313725490196,76.0 L 232.0,75.99686274509804 L 231.00313725490196,75.0 L 231.00313725490196,74.0 L 231.00313725490196,73.0 L 231.0,72.99686274509804 L 230.0,72.99686274509804 L 229.99686274509804,73.0 L 229.99686274509804,74.0 L 229.99686274509804,75.0 L 229.0,75.99686274509804 L 228.99686274509804,76.0 L 228.99686274509804,77.0 L 229.0,77.00313725490196 L 230.0,77.00313725490196 L 231.0,77.00313725490196 L 232.0,77.00313725490196 L 232.00313725490196,77.0 Z" fill="black" stroke="none" /><path d="M 115.0,89.99686274509804 L 114.0,89.99686274509804 L 113.0,89.99686274509804 L 112.0,89.99686274509804 L 111.00313725490196,89.0 L 111.00313725490196,88.0 L 111.0,87.99686274509804 L 110.00313725490196,87.0 L 110.00313725490196,86.0 L 110.00313725490196,85.0 L 110.00313725490196,84.0 L 111.0,83.00313725490196 L 112.0,83.00313725490196 L 112.99686274509804,84.0 L 112.99686274509804,85.0 L 112.99686274509804,86.0 L 112.99686274509804,87.0 L 113.0,87.00313725490196 L 114.0,87.00313725490196 L 114.00313725490196,87.0 L 114.00313725490196,86.0 L 114.00313725490196,85.0 L 114.00313725490196,84.0 L 115.0,83.00313725490196 L 115.99686274509804,84.0 L 115.99686274509804,85.0 L 115.99686274509804,86.0 L 115.99686274509804,87.0 L 115.99686274509804,88.0 L 115.99686274509804,89.0 L 115.0,89.99686274509804 Z" fill="black" stroke="none" /><path d="M 116.0,97.99686274509804 L 115.0,97.99686274509804 L 114.00313725490196,97.0 L 114.0,96.99686274509804 L 113.0,96.99686274509804 L 112.99686274509804,97.0 L 112.0,97.99686274509804 L 111.0,97.99686274509804 L 110.00313725490196,97.0 L 110.00313725490196,96.0 L 110.00313725490196,95.0 L 110.00313725490196,94.0 L 110.0,93.99686274509804 L 109.00313725490196,93.0 L 109.00313725490196,92.0 L 109.00313725490196,91.0 L 110.0,90.00313725490196 L 111.0,90.00313725490196 L 111.99686274509804,91.0 L 111.99686274509804,92.0 L 112.0,92.00313725490196 L 112.00313725490196,92.0 L 112.00313725490196,91.0 L 113.0,90.00313725490196 L 114.0,90.00313725490196 L 114.99686274509804,91.0 L 114.99686274509804,92.0 L 114.99686274509804,93.0 L 115.0,93.00313725490196 L 115.00313725490196,93.0 L 115.00313725490196,92.0 L 115.00313725490196,91.0 L 116.0,90.00313725490196 L 117.0,90.00313725490196 L 117.99686274509804,91.0 L 117.99686274509804,92.0 L 117.0,92.99686274509804 L 116.99686274509804,93.0 L 116.99686274509804,94.0 L 116.99686274509804,95.0 L 116.99686274509804,96.0 L 116.99686274509804,97.0 L 116.0,97.99686274509804 Z" fill="black" stroke="none" /><path d="M 223.0,116.99686274509804 L 222.0,116.99686274509804 L 221.0,116.99686274509804 L 220.0,116.99686274509804 L 219.0,116.99686274509804 L 218.0,116.99686274509804 L 217.0,116.99686274509804 L 216.0,116.99686274509804 L 215.0,116.99686274509804 L 214.0,116.99686274509804 L 213.0,116.99686274509804 L 212.0,116.99686274509804 L 211.00313725490196,116.0 L 211.0,115.99686274509804 L 210.0,115.99686274509804 L 209.00313725490196,115.0 L 209.0,114.99686274509804 L 208.00313725490196,114.0 L 208.0,113.99686274509804 L 207.00313725490196,113.0 L 207.0,112.99686274509804 L 206.00313725490196,112.0 L 206.00313725490196,111.0 L 206.0,110.99686274509804 L 205.00313725490196,110.0 L 205.00313725490196,109.0 L 205.00313725490196,108.0 L 205.00313725490196,107.0 L 205.00313725490196,106.0 L 205.00313725490196,105.0 L 205.00313725490196,104.0 L 205.00313725490196,103.0 L 205.00313725490196,102.0 L 206.0,101.00313725490196 L 206.00313725490196,101.0 L 206.00313725490196,100.0 L 207.0,99.00313725490196 L 207.00313725490196,99.0 L 208.0,98.00313725490196 L 208.00313725490196,98.0 L 209.0,97.00313725490196 L 210.0,97.00313725490196 L 210.00313725490196,97.0 L 211.0,96.00313725490196 L 212.0,96.00313725490196 L 213.0,96.00313725490196 L 213.00313725490196,96.0 L 214.0,95.00313725490196 L 215.0,95.00313725490196 L 216.0,95.00313725490196 L 217.0,95.00313725490196 L 218.0,95.00313725490196 L 219.0,95.00313725490196 L 220.0,95.00313725490196 L 221.0,95.00313725490196 L 222.0,95.00313725490196 L 222.99686274509804,96.0 L 223.0,96.00313725490196 L 224.0,96.00313725490196 L 224.99686274509804,97.0 L 224.99686274509804,98.0 L 224.99686274509804,99.0 L 224.99686274509804,100.0 L 224.99686274509804,101.0 L 224.0,101.99686274509804 L 223.0,101.99686274509804 L 222.00313725490196,101.0 L 222.00313725490196,100.0 L 222.00313725490196,99.0 L 222.0,98.99686274509804 L 221.00313725490196,98.0 L 221.0,97.99686274509804 L 220.0,97.99686274509804 L 219.00313725490196,97.0 L 219.0,96.99686274509804 L 218.0,96.99686274509804 L 217.0,96.99686274509804 L 216.0,96.99686274509804 L 215.0,96.99686274509804 L 214.99686274509804,97.0 L 214.0,97.99686274509804 L 213.0,97.99686274509804 L 212.99686274509804,98.0 L 212.0,98.99686274509804 L 211.99686274509804,99.0 L 211.99686274509804,100.0 L 211.0,100.99686274509804 L 210.99686274509804,101.0 L 210.99686274509804,102.0 L 210.99686274509804,103.0 L 210.0,103.99686274509804 L 209.99686274509804,104.0 L 209.99686274509804,105.0 L 209.99686274509804,106.0 L 209.99686274509804,107.0 L 210.0,107.00313725490196 L 210.99686274509804,108.0 L 210.99686274509804,109.0 L 210.99686274509804,110.0 L 210.99686274509804,111.0 L 211.0,111.00313725490196 L 211.99686274509804,112.0 L 212.0,112.00313725490196 L 212.99686274509804,113.0 L 213.0,113.00313725490196 L 213.99686274509804,114.0 L 214.0,114.00313725490196 L 214.99686274509804,115.0 L 215.0,115.00313725490196 L 216.0,115.00313725490196 L 217.0,115.00313725490196 L 218.0,115.00313725490196 L 219.0,115.00313725490196 L 219.00313725490196,115.0 L 219.00313725490196,114.0 L 220.0,113.00313725490196 L 220.00313725490196,113.0 L 220.00313725490196,112.0 L 220.00313725490196,111.0 L 220.0,110.99686274509804 L 219.00313725490196,110.0 L 219.00313725490196,109.0 L 219.0,108.99686274509804 L 218.0,108.99686274509804 L 217.0,108.99686274509804 L 216.00313725490196,108.0 L 217.0,107.00313725490196 L 218.0,107.00313725490196 L 219.0,107.00313725490196 L 220.0,107.00313725490196 L 221.0,107.00313725490196 L 222.0,107.00313725490196 L 223.0,107.00313725490196 L 224.0,107.00313725490196 L 225.0,107.00313725490196 L 225.99686274509804,108.0 L 225.0,108.99686274509804 L 224.99686274509804,109.0 L 224.99686274509804,110.0 L 224.99686274509804,111.0 L 224.99686274509804,112.0 L 224.99686274509804,113.0 L 224.99686274509804,114.0 L 224.99686274509804,115.0 L 224.0,115.99686274509804 L 223.99686274509804,116.0 L 223.0,116.99686274509804 Z" fill="black" stroke="none" /><path d="M 151.0,116.99686274509804 L 150.0,116.99686274509804 L 149.00313725490196,116.0 L 149.00313725490196,115.0 L 149.0,114.99686274509804 L 148.00313725490196,114.0 L 148.00313725490196,113.0 L 148.00313725490196,112.0 L 148.0,111.99686274509804 L 147.00313725490196,111.0 L 147.00313725490196,110.0 L 147.00313725490196,109.0 L 147.0,108.99686274509804 L 146.00313725490196,108.0 L 146.00313725490196,107.0 L 146.00313725490196,106.0 L 146.0,105.99686274509804 L 145.00313725490196,105.0 L 145.00313725490196,104.0 L 145.0,103.99686274509804 L 144.99686274509804,104.0 L 144.0,104.99686274509804 L 143.99686274509804,105.0 L 143.99686274509804,106.0 L 143.99686274509804,107.0 L 143.0,107.99686274509804 L 142.99686274509804,108.0 L 142.99686274509804,109.0 L 142.99686274509804,110.0 L 142.0,110.99686274509804 L 141.99686274509804,111.0 L 141.99686274509804,112.0 L 141.99686274509804,113.0 L 141.0,113.99686274509804 L 140.99686274509804,114.0 L 140.99686274509804,115.0 L 140.0,115.99686274509804 L 139.99686274509804,116.0 L 139.0,116.99686274509804 L 138.0,116.99686274509804 L 137.00313725490196,116.0 L 137.00313725490196,115.0 L 137.00313725490196,114.0 L 137.0,113.99686274509804 L 136.00313725490196,113.0 L 136.00313725490196,112.0 L 136.00313725490196,111.0 L 136.00313725490196,110.0 L 136.0,109.99686274509804 L 135.00313725490196,109.0 L 135.00313725490196,108.0 L 135.00313725490196,107.0 L 135.0,106.99686274509804 L 134.00313725490196,106.0 L 134.00313725490196,105.0 L 134.00313725490196,104.0 L 134.0,103.99686274509804 L 133.00313725490196,103.0 L 133.00313725490196,102.0 L 133.00313725490196,101.0 L 133.0,100.99686274509804 L 132.00313725490196,100.0 L 132.00313725490196,99.0 L 132.0,98.99686274509804 L 131.00313725490196,98.0 L 131.0,97.99686274509804 L 130.0,97.99686274509804 L 129.00313725490196,97.0 L 130.0,96.00313725490196 L 131.0,96.00313725490196 L 132.0,96.00313725490196 L 133.0,96.00313725490196 L 134.0,96.00313725490196 L 135.0,96.00313725490196 L 136.0,96.00313725490196 L 137.0,96.00313725490196 L 138.0,96.00313725490196 L 138.99686274509804,97.0 L 138.0,97.99686274509804 L 137.0,97.99686274509804 L 136.99686274509804,98.0 L 137.0,98.00313725490196 L 137.99686274509804,99.0 L 137.99686274509804,100.0 L 137.99686274509804,101.0 L 137.99686274509804,102.0 L 138.0,102.00313725490196 L 138.99686274509804,103.0 L 138.99686274509804,104.0 L 138.99686274509804,105.0 L 139.0,105.00313725490196 L 139.99686274509804,106.0 L 139.99686274509804,107.0 L 139.99686274509804,108.0 L 140.0,108.00313725490196 L 140.99686274509804,109.0 L 141.0,109.00313725490196 L 141.00313725490196,109.0 L 141.00313725490196,108.0 L 141.00313725490196,107.0 L 142.0,106.00313725490196 L 142.00313725490196,106.0 L 142.00313725490196,105.0 L 142.00313725490196,104.0 L 143.0,103.00313725490196 L 143.00313725490196,103.0 L 143.00313725490196,102.0 L 143.00313725490196,101.0 L 144.0,100.00313725490196 L 144.00313725490196,100.0 L 144.00313725490196,99.0 L 144.00313725490196,98.0 L 145.0,97.00313725490196 L 146.0,97.00313725490196 L 147.0,97.00313725490196 L 147.99686274509804,98.0 L 147.99686274509804,99.0 L 148.0,99.00313725490196 L 148.99686274509804,100.0 L 148.99686274509804,101.0 L 148.99686274509804,102.0 L 149.0,102.00313725490196 L 149.99686274509804,103.0 L 149.99686274509804,104.0 L 149.99686274509804,105.0 L 150.0,105.00313725490196 L 150.99686274509804,106.0 L 150.99686274509804,107.0 L 151.0,107.00313725490196 L 151.99686274509804,108.0 L 151.99686274509804,109.0 L 152.0,109.00313725490196 L 152.00313725490196,109.0 L 153.0,108.00313725490196 L 153.00313725490196,108.0 L 153.00313725490196,107.0 L 153.00313725490196,106.0 L 154.0,105.00313725490196 L 154.00313725490196,105.0 L 154.00313725490196,104.0 L 154.00313725490196,103.0 L 155.0,102.00313725490196 L 155.00313725490196,102.0 L 155.00313725490196,101.0 L 155.00313725490196,100.0 L 155.00313725490196,99.0 L 155.00313725490196,98.0 L 155.0,97.99686274509804 L 154.0,97.99686274509804 L 153.00313725490196,97.0 L 154.0,96.00313725490196 L 155.0,96.00313725490196 L 156.0,96.00313725490196 L 157.0,96.00313725490196 L 158.0,96.00313725490196 L 159.0,96.00313725490196 L 160.0,96.00313725490196 L 160.99686274509804,97.0 L 160.0,97.99686274509804 L 159.0,97.99686274509804 L 158.99686274509804,98.0 L 158.0,98.99686274509804 L 157.99686274509804,99.0 L 157.99686274509804,100.0 L 157.99686274509804,101.0 L 157.0,101.99686274509804 L 156.99686274509804,102.0 L 156.99686274509804,103.0 L 156.99686274509804,104.0 L 156.0,104.99686274509804 L 155.99686274509804,105.0 L 155.99686274509804,106.0 L 155.99686274509804,107.0 L 155.0,107.99686274509804 L 154.99686274509804,108.0 L 154.99686274509804,109.0 L 154.99686274509804,110.0 L 154.0,110.99686274509804 L 153.99686274509804,111.0 L 153.99686274509804,112.0 L 153.99686274509804,113.0 L 153.0,113.99686274509804 L 152.99686274509804,114.0 L 152.99686274509804,115.0 L 152.0,115.99686274509804 L 151.99686274509804,116.0 L 151.0,116.99686274509804 Z" fill="black" stroke="none" /><path d="M 199.0,116.99686274509804 L 198.0,116.99686274509804 L 197.0,116.99686274509804 L 196.00313725490196,116.0 L 196.0,115.99686274509804 L 195.00313725490196,115.0 L 195.00313725490196,114.0 L 195.0,113.99686274509804 L 194.00313725490196,113.0 L 194.0,112.99686274509804 L 193.00313725490196,112.0 L 193.0,111.99686274509804 L 192.00313725490196,111.0 L 192.00313725490196,110.0 L 192.0,109.99686274509804 L 191.00313725490196,109.0 L 191.0,108.99686274509804 L 190.00313725490196,108.0 L 190.0,107.99686274509804 L 189.00313725490196,107.0 L 189.0,106.99686274509804 L 188.00313725490196,106.0 L 188.00313725490196,105.0 L 188.0,104.99686274509804 L 187.00313725490196,104.0 L 187.0,103.99686274509804 L 186.00313725490196,103.0 L 186.0,102.99686274509804 L 185.00313725490196,102.0 L 185.0,101.99686274509804 L 184.99686274509804,102.0 L 184.99686274509804,103.0 L 184.99686274509804,104.0 L 184.99686274509804,105.0 L 184.99686274509804,106.0 L 184.99686274509804,107.0 L 184.99686274509804,108.0 L 184.99686274509804,109.0 L 184.99686274509804,110.0 L 184.99686274509804,111.0 L 184.99686274509804,112.0 L 184.99686274509804,113.0 L 185.0,113.00313725490196 L 185.99686274509804,114.0 L 186.0,114.00313725490196 L 186.99686274509804,115.0 L 187.0,115.00313725490196 L 188.0,115.00313725490196 L 188.99686274509804,116.0 L 188.0,116.99686274509804 L 187.0,116.99686274509804 L 186.0,116.99686274509804 L 185.0,116.99686274509804 L 184.0,116.99686274509804 L 183.0,116.99686274509804 L 182.0,116.99686274509804 L 181.0,116.99686274509804 L 180.0,116.99686274509804 L 179.0,116.99686274509804 L 178.0,116.99686274509804 L 177.0,116.99686274509804 L 176.0,116.99686274509804 L 175.0,116.99686274509804 L 174.0,116.99686274509804 L 173.0,116.99686274509804 L 172.0,116.99686274509804 L 171.0,116.99686274509804 L 170.0,116.99686274509804 L 169.00313725490196,116.0 L 170.0,115.00313725490196 L 171.0,115.00313725490196 L 171.00313725490196,115.0 L 171.00313725490196,114.0 L 171.00313725490196,113.0 L 171.00313725490196,112.0 L 171.0,111.99686274509804 L 170.00313725490196,111.0 L 170.00313725490196,110.0 L 170.0,109.99686274509804 L 169.00313725490196,109.0 L 169.0,108.99686274509804 L 168.0,108.99686274509804 L 167.0,108.99686274509804 L 166.0,108.99686274509804 L 165.0,108.99686274509804 L 164.99686274509804,109.0 L 164.0,109.99686274509804 L 163.99686274509804,110.0 L 163.99686274509804,111.0 L 163.99686274509804,112.0 L 163.0,112.99686274509804 L 162.99686274509804,113.0 L 162.99686274509804,114.0 L 163.0,114.00313725490196 L 163.99686274509804,115.0 L 164.0,115.00313725490196 L 165.0,115.00313725490196 L 165.99686274509804,116.0 L 165.0,116.99686274509804 L 164.0,116.99686274509804 L 163.0,116.99686274509804 L 162.0,116.99686274509804 L 161.0,116.99686274509804 L 160.0,116.99686274509804 L 159.0,116.99686274509804 L 158.0,116.99686274509804 L 157.00313725490196,116.0 L 158.0,115.00313725490196 L 158.00313725490196,115.0 L 159.0,114.00313725490196 L 160.0,114.00313725490196 L 160.00313725490196,114.0 L 160.00313725490196,113.0 L 161.0,112.00313725490196 L 161.00313725490196,112.0 L 161.00313725490196,111.0 L 161.00313725490196,110.0 L 162.0,109.00313725490196 L 162.00313725490196,109.0 L 162.00313725490196,108.0 L 163.0,107.00313725490196 L 163.00313725490196,107.0 L 163.00313725490196,106.0 L 163.00313725490196,105.0 L 164.0,104.00313725490196 L 164.00313725490196,104.0 L 164.00313725490196,103.0 L 165.0,102.00313725490196 L 165.00313725490196,102.0 L 165.00313725490196,101.0 L 165.00313725490196,100.0 L 166.0,99.00313725490196 L 166.00313725490196,99.0 L 166.00313725490196,98.0 L 166.00313725490196,97.0 L 167.0,96.00313725490196 L 168.0,96.00313725490196 L 169.0,96.00313725490196 L 170.0,96.00313725490196 L 170.99686274509804,97.0 L 170.99686274509804,98.0 L 170.99686274509804,99.0 L 171.0,99.00313725490196 L 171.99686274509804,100.0 L 171.99686274509804,101.0 L 172.0,101.00313725490196 L 172.99686274509804,102.0 L 172.99686274509804,103.0 L 172.99686274509804,104.0 L 173.0,104.00313725490196 L 173.99686274509804,105.0 L 173.99686274509804,106.0 L 173.99686274509804,107.0 L 174.0,107.00313725490196 L 174.99686274509804,108.0 L 174.99686274509804,109.0 L 174.99686274509804,110.0 L 175.0,110.00313725490196 L 175.99686274509804,111.0 L 175.99686274509804,112.0 L 176.0,112.00313725490196 L 176.99686274509804,113.0 L 176.99686274509804,114.0 L 177.0,114.00313725490196 L 178.0,114.00313725490196 L 178.99686274509804,115.0 L 179.0,115.00313725490196 L 180.0,115.00313725490196 L 181.0,115.00313725490196 L 181.00313725490196,115.0 L 182.0,114.00313725490196 L 182.00313725490196,114.0 L 182.00313725490196,113.0 L 182.00313725490196,112.0 L 182.00313725490196,111.0 L 182.00313725490196,110.0 L 182.00313725490196,109.0 L 182.00313725490196,108.0 L 183.0,107.00313725490196 L 183.00313725490196,107.0 L 183.00313725490196,106.0 L 183.00313725490196,105.0 L 183.00313725490196,104.0 L 183.00313725490196,103.0 L 183.00313725490196,102.0 L 183.00313725490196,101.0 L 183.00313725490196,100.0 L 183.00313725490196,99.0 L 183.0,98.99686274509804 L 182.00313725490196,98.0 L 182.0,97.99686274509804 L 181.0,97.99686274509804 L 180.00313725490196,97.0 L 181.0,96.00313725490196 L 182.0,96.00313725490196 L 183.0,96.00313725490196 L 184.0,96.00313725490196 L 185.0,96.00313725490196 L 186.0,96.00313725490196 L 187.0,96.00313725490196 L 187.99686274509804,97.0 L 187.99686274509804,98.0 L 188.0,98.00313725490196 L 188.99686274509804,99.0 L 189.0,99.00313725490196 L 189.99686274509804,100.0 L 190.0,100.00313725490196 L 190.99686274509804,101.0 L 191.0,101.00313725490196 L 191.99686274509804,102.0 L 191.99686274509804,103.0 L 192.0,103.00313725490196 L 192.99686274509804,104.0 L 193.0,104.00313725490196 L 193.99686274509804,105.0 L 194.0,105.00313725490196 L 194.99686274509804,106.0 L 195.0,106.00313725490196 L 195.99686274509804,107.0 L 195.99686274509804,108.0 L 196.0,108.00313725490196 L 196.99686274509804,109.0 L 197.0,109.00313725490196 L 197.99686274509804,110.0 L 198.0,110.00313725490196 L 198.00313725490196,110.0 L 198.00313725490196,109.0 L 198.00313725490196,108.0 L 198.00313725490196,107.0 L 198.00313725490196,106.0 L 198.00313725490196,105.0 L 198.00313725490196,104.0 L 198.00313725490196,103.0 L 198.00313725490196,102.0 L 198.00313725490196,101.0 L 198.00313725490196,100.0 L 198.00313725490196,99.0 L 198.0,98.99686274509804 L 197.00313725490196,98.0 L 197.0,97.99686274509804 L 196.0,97.99686274509804 L 195.00313725490196,97.0 L 196.0,96.00313725490196 L 197.0,96.00313725490196 L 198.0,96.00313725490196 L 199.0,96.00313725490196 L 200.0,96.00313725490196 L 201.0,96.00313725490196 L 202.0,96.00313725490196 L 202.99686274509804,97.0 L 202.0,97.99686274509804 L 201.0,97.99686274509804 L 200.99686274509804,98.0 L 200.99686274509804,99.0 L 200.99686274509804,100.0 L 200.99686274509804,101.0 L 200.99686274509804,102.0 L 200.0,102.99686274509804 L 199.99686274509804,103.0 L 199.99686274509804,104.0 L 199.99686274509804,105.0 L 199.99686274509804,106.0 L 199.99686274509804,107.0 L 199.99686274509804,108.0 L 199.99686274509804,109.0 L 199.99686274509804,110.0 L 199.99686274509804,111.0 L 199.99686274509804,112.0 L 199.99686274509804,113.0 L 199.99686274509804,114.0 L 199.99686274509804,115.0 L 199.99686274509804,116.0 L 199.0,116.99686274509804 Z" fill="black" stroke="none" /><path d="M 238.0,116.99686274509804 L 237.0,116.99686274509804 L 236.0,116.99686274509804 L 235.0,116.99686274509804 L 234.0,116.99686274509804 L 233.0,116.99686274509804 L 232.0,116.99686274509804 L 231.0,116.99686274509804 L 230.0,116.99686274509804 L 229.0,116.99686274509804 L 228.00313725490196,116.0 L 229.0,115.00313725490196 L 230.0,115.00313725490196 L 230.00313725490196,115.0 L 230.00313725490196,114.0 L 231.0,113.00313725490196 L 231.00313725490196,113.0 L 231.00313725490196,112.0 L 231.00313725490196,111.0 L 231.00313725490196,110.0 L 231.00313725490196,109.0 L 231.00313725490196,108.0 L 231.00313725490196,107.0 L 231.00313725490196,106.0 L 231.00313725490196,105.0 L 231.00313725490196,104.0 L 231.00313725490196,103.0 L 231.00313725490196,102.0 L 231.00313725490196,101.0 L 231.00313725490196,100.0 L 231.00313725490196,99.0 L 231.0,98.99686274509804 L 230.00313725490196,98.0 L 230.0,97.99686274509804 L 229.0,97.99686274509804 L 228.00313725490196,97.0 L 229.0,96.00313725490196 L 230.0,96.00313725490196 L 231.0,96.00313725490196 L 232.0,96.00313725490196 L 233.0,96.00313725490196 L 234.0,96.00313725490196 L 235.0,96.00313725490196 L 236.0,96.00313725490196 L 237.0,96.00313725490196 L 237.99686274509804,97.0 L 237.0,97.99686274509804 L 236.0,97.99686274509804 L 235.99686274509804,98.0 L 235.99686274509804,99.0 L 235.99686274509804,100.0 L 235.99686274509804,101.0 L 235.99686274509804,102.0 L 235.99686274509804,103.0 L 235.99686274509804,104.0 L 235.99686274509804,105.0 L 235.99686274509804,106.0 L 235.99686274509804,107.0 L 235.99686274509804,108.0 L 235.99686274509804,109.0 L 235.99686274509804,110.0 L 235.99686274509804,111.0 L 235.99686274509804,112.0 L 235.99686274509804,113.0 L 235.99686274509804,114.0 L 236.0,114.00313725490196 L 236.99686274509804,115.0 L 237.0,115.00313725490196 L 238.0,115.00313725490196 L 238.99686274509804,116.0 L 238.0,116.99686274509804 Z" fill="black" stroke="none" /><path d="M 113.0,105.99686274509804 L 112.00313725490196,105.0 L 112.0,104.99686274509804 L 111.00313725490196,104.0 L 112.0,103.00313725490196 L 113.0,103.00313725490196 L 113.00313725490196,103.0 L 113.0,102.99686274509804 L 112.00313725490196,102.0 L 112.0,101.99686274509804 L 111.00313725490196,101.0 L 111.00313725490196,100.0 L 111.00313725490196,99.0 L 112.0,98.00313725490196 L 113.0,98.00313725490196 L 114.0,98.00313725490196 L 115.0,98.00313725490196 L 115.99686274509804,99.0 L 115.0,99.99686274509804 L 114.0,99.99686274509804 L 113.99686274509804,100.0 L 113.99686274509804,101.0 L 114.0,101.00313725490196 L 115.0,101.00313725490196 L 115.99686274509804,102.0 L 115.99686274509804,103.0 L 115.99686274509804,104.0 L 115.0,104.99686274509804 L 114.0,104.99686274509804 L 113.99686274509804,105.0 L 113.0,105.99686274509804 Z" fill="black" stroke="none" /><path d="M 169.00313725490196,107.0 L 169.00313725490196,106.0 L 169.0,105.99686274509804 L 168.00313725490196,105.0 L 168.00313725490196,104.0 L 168.00313725490196,103.0 L 168.0,102.99686274509804 L 167.00313725490196,102.0 L 167.00313725490196,101.0 L 167.0,100.99686274509804 L 166.99686274509804,101.0 L 166.99686274509804,102.0 L 166.99686274509804,103.0 L 166.0,103.99686274509804 L 165.99686274509804,104.0 L 165.99686274509804,105.0 L 165.99686274509804,106.0 L 165.99686274509804,107.0 L 166.0,107.00313725490196 L 167.0,107.00313725490196 L 168.0,107.00313725490196 L 169.0,107.00313725490196 L 169.00313725490196,107.0 Z" fill="black" stroke="none" /></svg>