<?xml version="1.0" encoding="utf-8" ?>
<svg baseProfile="full" height="197px" version="1.1" width="257px" xmlns="http://www.w3.org/2000/svg" xmlns:ev="http://www.w3.org/2001/xml-events" xmlns:xlink="http://www.w3.org/1999/xlink"><defs /><path d="M 71.0,114.99686274509804 L 70.0,114.99686274509804 L 69.00313725490196,114.0 L 70.0,113.00313725490196 L 70.00313725490196,113.0 L 70.00313725490196,112.0 L 70.00313725490196,111.0 L 71.0,110.00313725490196 L 71.00313725490196,110.0 L 72.0,109.00313725490196 L 73.0,109.00313725490196 L 74.0,109.00313725490196 L 74.00313725490196,109.0 L 75.0,108.00313725490196 L 76.0,108.00313725490196 L 76.00313725490196,108.0 L 77.0,107.00313725490196 L 77.00313725490196,107.0 L 78.0,106.00313725490196 L 78.00313725490196,106.0 L 79.0,105.00313725490196 L 79.00313725490196,105.0 L 80.0,104.00313725490196 L 80.00313725490196,104.0 L 80.00313725490196,103.0 L 81.0,102.00313725490196 L 81.00313725490196,102.0 L 81.00313725490196,101.0 L 81.00313725490196,100.0 L 81.00313725490196,99.0 L 81.00313725490196,98.0 L 81.00313725490196,97.0 L 81.00313725490196,96.0 L 81.00313725490196,95.0 L 81.00313725490196,94.0 L 81.00313725490196,93.0 L 81.00313725490196,92.0 L 81.00313725490196,91.0 L 81.00313725490196,90.0 L 81.00313725490196,89.0 L 81.00313725490196,88.0 L 81.00313725490196,87.0 L 81.00313725490196,86.0 L 81.00313725490196,85.0 L 81.00313725490196,84.0 L 81.00313725490196,83.0 L 81.00313725490196,82.0 L 81.00313725490196,81.0 L 81.00313725490196,80.0 L 81.00313725490196,79.0 L 81.00313725490196,78.0 L 81.00313725490196,77.0 L 81.00313725490196,76.0 L 81.00313725490196,75.0 L 81.00313725490196,74.0 L 81.00313725490196,73.0 L 81.00313725490196,72.0 L 81.0,71.99686274509804 L 80.0,71.99686274509804 L 79.0,71.99686274509804 L 78.99686274509804,72.0 L 78.0,72.99686274509804 L 77.0,72.99686274509804 L 76.99686274509804,73.0 L 76.0,73.99686274509804 L 75.99686274509804,74.0 L 75.0,74.99686274509804 L 74.99686274509804,75.0 L 74.0,75.99686274509804 L 73.99686274509804,76.0 L 73.99686274509804,77.0 L 73.0,77.99686274509804 L 72.99686274509804,78.0 L 72.99686274509804,79.0 L 72.0,79.99686274509804 L 71.99686274509804,80.0 L 71.99686274509804,81.0 L 71.99686274509804,82.0 L 71.99686274509804,83.0 L 71.99686274509804,84.0 L 71.99686274509804,85.0 L 71.99686274509804,86.0 L 71.99686274509804,87.0 L 71.99686274509804,88.0 L 71.99686274509804,89.0 L 71.99686274509804,90.0 L 71.99686274509804,91.0 L 71.99686274509804,92.0 L 71.99686274509804,93.0 L 71.99686274509804,94.0 L 71.99686274509804,95.0 L 71.99686274509804,96.0 L 71.99686274509804,97.0 L 71.99686274509804,98.0 L 71.99686274509804,99.0 L 71.99686274509804,100.0 L 71.99686274509804,101.0 L 71.0,101.99686274509804 L 70.99686274509804,102.0 L 70.99686274509804,103.0 L 70.99686274509804,104.0 L 70.0,104.99686274509804 L 69.99686274509804,105.0 L 69.99686274509804,106.0 L 69.0,106.99686274509804 L 68.99686274509804,107.0 L 68.0,107.99686274509804 L 67.99686274509804,108.0 L 67.0,108.99686274509804 L 66.99686274509804,109.0 L 66.0,109.99686274509804 L 65.99686274509804,110.0 L 65.0,110.99686274509804 L 64.99686274509804,111.0 L 64.0,111.99686274509804 L 63.0,111.99686274509804 L 62.99686274509804,112.0 L 62.0,112.99686274509804 L 61.0,112.99686274509804 L 60.0,112.99686274509804 L 59.99686274509804,113.0 L 59.0,113.99686274509804 L 58.0,113.99686274509804 L 57.0,113.99686274509804 L 56.0,113.99686274509804 L 55.0,113.99686274509804 L 54.0,113.99686274509804 L 53.0,113.99686274509804 L 52.00313725490196,113.0 L 52.0,112.99686274509804 L 51.0,112.99686274509804 L 50.0,112.99686274509804 L 49.00313725490196,112.0 L 49.0,111.99686274509804 L 48.0,111.99686274509804 L 47.00313725490196,111.0 L 47.0,110.99686274509804 L 46.00313725490196,110.0 L 46.0,109.99686274509804 L 45.00313725490196,109.0 L 45.0,108.99686274509804 L 44.00313725490196,108.0 L 44.0,107.99686274509804 L 43.00313725490196,107.0 L 43.0,106.99686274509804 L 42.00313725490196,106.0 L 42.00313725490196,105.0 L 42.0,104.99686274509804 L 41.00313725490196,104.0 L 41.00313725490196,103.0 L 41.0,102.99686274509804 L 40.00313725490196,102.0 L 40.00313725490196,101.0 L 40.00313725490196,100.0 L 40.00313725490196,99.0 L 40.00313725490196,98.0 L 40.00313725490196,97.0 L 40.00313725490196,96.0 L 40.00313725490196,95.0 L 40.00313725490196,94.0 L 40.00313725490196,93.0 L 40.00313725490196,92.0 L 40.00313725490196,91.0 L 40.00313725490196,90.0 L 40.00313725490196,89.0 L 40.00313725490196,88.0 L 40.00313725490196,87.0 L 40.00313725490196,86.0 L 40.00313725490196,85.0 L 40.00313725490196,84.0 L 40.00313725490196,83.0 L 40.00313725490196,82.0 L 40.00313725490196,81.0 L 40.00313725490196,80.0 L 40.00313725490196,79.0 L 40.00313725490196,78.0 L 40.00313725490196,77.0 L 40.00313725490196,76.0 L 40.00313725490196,75.0 L 40.00313725490196,74.0 L 40.00313725490196,73.0 L 40.00313725490196,72.0 L 40.00313725490196,71.0 L 40.00313725490196,70.0 L 40.00313725490196,69.0 L 41.0,68.00313725490196 L 41.00313725490196,68.0 L 42.0,67.00313725490196 L 43.0,67.00313725490196 L 44.0,67.00313725490196 L 45.0,67.00313725490196 L 46.0,67.00313725490196 L 46.99686274509804,68.0 L 47.0,68.00313725490196 L 48.0,68.00313725490196 L 49.0,68.00313725490196 L 49.99686274509804,69.0 L 50.0,69.00313725490196 L 51.0,69.00313725490196 L 51.99686274509804,70.0 L 52.0,70.00313725490196 L 53.0,70.00313725490196 L 53.99686274509804,71.0 L 54.0,71.00313725490196 L 54.99686274509804,72.0 L 54.99686274509804,73.0 L 54.99686274509804,74.0 L 54.0,74.99686274509804 L 53.0,74.99686274509804 L 52.0,74.99686274509804 L 51.00313725490196,74.0 L 51.0,73.99686274509804 L 50.0,73.99686274509804 L 49.00313725490196,73.0 L 49.0,72.99686274509804 L 48.0,72.99686274509804 L 47.00313725490196,72.0 L 47.0,71.99686274509804 L 46.0,71.99686274509804 L 45.0,71.99686274509804 L 44.99686274509804,72.0 L 44.0,72.99686274509804 L 43.99686274509804,73.0 L 43.99686274509804,74.0 L 43.99686274509804,75.0 L 43.99686274509804,76.0 L 43.99686274509804,77.0 L 43.99686274509804,78.0 L 43.99686274509804,79.0 L 43.99686274509804,80.0 L 43.99686274509804,81.0 L 43.99686274509804,82.0 L 43.99686274509804,83.0 L 43.99686274509804,84.0 L 43.99686274509804,85.0 L 43.99686274509804,86.0 L 43.99686274509804,87.0 L 43.99686274509804,88.0 L 43.99686274509804,89.0 L 43.99686274509804,90.0 L 43.99686274509804,91.0 L 43.99686274509804,92.0 L 43.99686274509804,93.0 L 44.0,93.00313725490196 L 44.99686274509804,94.0 L 44.99686274509804,95.0 L 44.99686274509804,96.0 L 44.99686274509804,97.0 L 44.99686274509804,98.0 L 44.99686274509804,99.0 L 44.99686274509804,100.0 L 44.99686274509804,101.0 L 44.99686274509804,102.0 L 45.0,102.00313725490196 L 45.99686274509804,103.0 L 45.99686274509804,104.0 L 46.0,104.00313725490196 L 46.99686274509804,105.0 L 47.0,105.00313725490196 L 47.99686274509804,106.0 L 47.99686274509804,107.0 L 48.0,107.00313725490196 L 49.0,107.00313725490196 L 49.99686274509804,108.0 L 50.0,108.00313725490196 L 51.0,108.00313725490196 L 51.99686274509804,109.0 L 52.0,109.00313725490196 L 53.0,109.00313725490196 L 54.0,109.00313725490196 L 55.0,109.00313725490196 L 56.0,109.00313725490196 L 57.0,109.00313725490196 L 58.0,109.00313725490196 L 59.0,109.00313725490196 L 60.0,109.00313725490196 L 60.00313725490196,109.0 L 61.0,108.00313725490196 L 62.0,108.00313725490196 L 62.00313725490196,108.0 L 63.0,107.00313725490196 L 64.0,107.00313725490196 L 64.00313725490196,107.0 L 65.0,106.00313725490196 L 65.00313725490196,106.0 L 65.00313725490196,105.0 L 66.0,104.00313725490196 L 66.00313725490196,104.0 L 67.0,103.00313725490196 L 67.00313725490196,103.0 L 67.00313725490196,102.0 L 67.00313725490196,101.0 L 67.00313725490196,100.0 L 67.00313725490196,99.0 L 68.0,98.00313725490196 L 68.00313725490196,98.0 L 68.00313725490196,97.0 L 68.00313725490196,96.0 L 68.00313725490196,95.0 L 68.00313725490196,94.0 L 68.00313725490196,93.0 L 68.00313725490196,92.0 L 68.00313725490196,91.0 L 68.00313725490196,90.0 L 68.00313725490196,89.0 L 68.00313725490196,88.0 L 68.00313725490196,87.0 L 68.00313725490196,86.0 L 68.00313725490196,85.0 L 68.00313725490196,84.0 L 68.00313725490196,83.0 L 68.00313725490196,82.0 L 68.00313725490196,81.0 L 68.00313725490196,80.0 L 68.00313725490196,79.0 L 68.00313725490196,78.0 L 69.0,77.00313725490196 L 69.00313725490196,77.0 L 69.00313725490196,76.0 L 70.0,75.00313725490196 L 70.00313725490196,75.0 L 70.00313725490196,74.0 L 71.0,73.00313725490196 L 71.00313725490196,73.0 L 72.0,72.00313725490196 L 72.00313725490196,72.0 L 73.0,71.00313725490196 L 73.00313725490196,71.0 L 74.0,70.00313725490196 L 74.00313725490196,70.0 L 75.0,69.00313725490196 L 76.0,69.00313725490196 L 76.00313725490196,69.0 L 77.0,68.00313725490196 L 78.0,68.00313725490196 L 79.0,68.00313725490196 L 79.00313725490196,68.0 L 80.0,67.00313725490196 L 81.0,67.00313725490196 L 82.0,67.00313725490196 L 83.0,67.00313725490196 L 84.0,67.00313725490196 L 84.99686274509804,68.0 L 85.0,68.00313725490196 L 85.99686274509804,69.0 L 85.99686274509804,70.0 L 85.99686274509804,71.0 L 85.99686274509804,72.0 L 85.99686274509804,73.0 L 85.99686274509804,74.0 L 85.99686274509804,75.0 L 85.99686274509804,76.0 L 85.99686274509804,77.0 L 85.99686274509804,78.0 L 85.99686274509804,79.0 L 85.99686274509804,80.0 L 85.99686274509804,81.0 L 85.99686274509804,82.0 L 85.99686274509804,83.0 L 85.99686274509804,84.0 L 85.99686274509804,85.0 L 85.99686274509804,86.0 L 85.99686274509804,87.0 L 85.99686274509804,88.0 L 85.99686274509804,89.0 L 85.99686274509804,90.0 L 85.99686274509804,91.0 L 85.99686274509804,92.0 L 85.99686274509804,93.0 L 85.99686274509804,94.0 L 85.99686274509804,95.0 L 85.99686274509804,96.0 L 85.99686274509804,97.0 L 85.99686274509804,98.0 L 85.99686274509804,99.0 L 85.99686274509804,100.0 L 85.99686274509804,101.0 L 85.0,101.99686274509804 L 84.99686274509804,102.0 L 84.99686274509804,103.0 L 84.99686274509804,104.0 L 84.0,104.99686274509804 L 83.99686274509804,105.0 L 83.99686274509804,106.0 L 83.0,106.99686274509804 L 82.99686274509804,107.0 L 82.0,107.99686274509804 L 81.99686274509804,108.0 L 81.0,108.99686274509804 L 80.99686274509804,109.0 L 80.0,109.99686274509804 L 79.99686274509804,110.0 L 79.0,110.99686274509804 L 78.99686274509804,111.0 L 78.0,111.99686274509804 L 77.0,111.99686274509804 L 76.99686274509804,112.0 L 76.0,112.99686274509804 L 75.0,112.99686274509804 L 74.99686274509804,113.0 L 74.0,113.99686274509804 L 73.0,113.99686274509804 L 72.0,113.99686274509804 L 71.99686274509804,114.0 L 71.0,114.99686274509804 Z" fill="black" stroke="none" /><path d="M 170.0,105.99686274509804 L 169.0,105.99686274509804 L 168.0,105.99686274509804 L 167.0,105.99686274509804 L 166.0,105.99686274509804 L 165.0,105.99686274509804 L 164.0,105.99686274509804 L 163.0,105.99686274509804 L 162.0,105.99686274509804 L 161.0,105.99686274509804 L 160.0,105.99686274509804 L 159.0,105.99686274509804 L 158.0,105.99686274509804 L 157.0,105.99686274509804 L 156.00313725490196,105.0 L 156.0,104.99686274509804 L 155.0,104.99686274509804 L 154.00313725490196,104.0 L 154.0,103.99686274509804 L 153.0,103.99686274509804 L 152.00313725490196,103.0 L 152.0,102.99686274509804 L 151.00313725490196,102.0 L 151.0,101.99686274509804 L 150.00313725490196,101.0 L 150.0,100.99686274509804 L 149.00313725490196,100.0 L 149.0,99.99686274509804 L 148.00313725490196,99.0 L 148.00313725490196,98.0 L 148.0,97.99686274509804 L 147.00313725490196,97.0 L 147.00313725490196,96.0 L 147.0,95.99686274509804 L 146.00313725490196,95.0 L 146.00313725490196,94.0 L 146.00313725490196,93.0 L 146.00313725490196,92.0 L 146.00313725490196,91.0 L 146.00313725490196,90.0 L 146.00313725490196,89.0 L 146.00313725490196,88.0 L 146.00313725490196,87.0 L 146.00313725490196,86.0 L 146.00313725490196,85.0 L 147.0,84.00313725490196 L 147.00313725490196,84.0 L 147.00313725490196,83.0 L 147.00313725490196,82.0 L 148.0,81.00313725490196 L 148.00313725490196,81.0 L 149.0,80.00313725490196 L 149.00313725490196,80.0 L 150.0,79.00313725490196 L 150.00313725490196,79.0 L 151.0,78.00313725490196 L 151.00313725490196,78.0 L 152.0,77.00313725490196 L 152.00313725490196,77.0 L 153.0,76.00313725490196 L 153.00313725490196,76.0 L 154.0,75.00313725490196 L 155.0,75.00313725490196 L 155.00313725490196,75.0 L 156.0,74.00313725490196 L 157.0,74.00313725490196 L 158.0,74.00313725490196 L 159.0,74.00313725490196 L 159.00313725490196,74.0 L 160.0,73.00313725490196 L 161.0,73.00313725490196 L 162.0,73.00313725490196 L 163.0,73.00313725490196 L 164.0,73.00313725490196 L 165.0,73.00313725490196 L 166.0,73.00313725490196 L 167.0,73.00313725490196 L 168.0,73.00313725490196 L 169.0,73.00313725490196 L 170.0,73.00313725490196 L 170.99686274509804,74.0 L 171.0,74.00313725490196 L 172.0,74.00313725490196 L 173.0,74.00313725490196 L 174.0,74.00313725490196 L 174.99686274509804,75.0 L 174.99686274509804,76.0 L 174.99686274509804,77.0 L 174.99686274509804,78.0 L 174.99686274509804,79.0 L 174.99686274509804,80.0 L 174.99686274509804,81.0 L 174.99686274509804,82.0 L 174.0,82.99686274509804 L 173.99686274509804,83.0 L 173.0,83.99686274509804 L 172.00313725490196,83.0 L 172.0,82.99686274509804 L 171.00313725490196,82.0 L 171.00313725490196,81.0 L 171.00313725490196,80.0 L 171.0,79.99686274509804 L 170.00313725490196,79.0 L 170.00313725490196,78.0 L 170.0,77.99686274509804 L 169.0,77.99686274509804 L 168.00313725490196,77.0 L 168.0,76.99686274509804 L 167.0,76.99686274509804 L 166.0,76.99686274509804 L 165.00313725490196,76.0 L 165.0,75.99686274509804 L 164.0,75.99686274509804 L 163.0,75.99686274509804 L 162.0,75.99686274509804 L 161.99686274509804,76.0 L 161.0,76.99686274509804 L 160.0,76.99686274509804 L 159.0,76.99686274509804 L 158.99686274509804,77.0 L 158.0,77.99686274509804 L 157.99686274509804,78.0 L 157.0,78.99686274509804 L 156.99686274509804,79.0 L 156.0,79.99686274509804 L 155.99686274509804,80.0 L 155.99686274509804,81.0 L 155.0,81.99686274509804 L 154.99686274509804,82.0 L 154.99686274509804,83.0 L 154.99686274509804,84.0 L 154.0,84.99686274509804 L 153.99686274509804,85.0 L 153.99686274509804,86.0 L 153.99686274509804,87.0 L 153.99686274509804,88.0 L 153.99686274509804,89.0 L 153.99686274509804,90.0 L 153.99686274509804,91.0 L 153.99686274509804,92.0 L 154.0,92.00313725490196 L 154.99686274509804,93.0 L 154.99686274509804,94.0 L 154.99686274509804,95.0 L 154.99686274509804,96.0 L 155.0,96.00313725490196 L 155.99686274509804,97.0 L 155.99686274509804,98.0 L 156.0,98.00313725490196 L 156.99686274509804,99.0 L 157.0,99.00313725490196 L 157.99686274509804,100.0 L 158.0,100.00313725490196 L 158.99686274509804,101.0 L 159.0,101.00313725490196 L 160.0,101.00313725490196 L 160.99686274509804,102.0 L 161.0,102.00313725490196 L 162.0,102.00313725490196 L 163.0,102.00313725490196 L 164.0,102.00313725490196 L 164.99686274509804,103.0 L 165.0,103.00313725490196 L 166.0,103.00313725490196 L 166.00313725490196,103.0 L 167.0,102.00313725490196 L 168.0,102.00313725490196 L 169.0,102.00313725490196 L 169.00313725490196,102.0 L 170.0,101.00313725490196 L 170.00313725490196,101.0 L 171.0,100.00313725490196 L 171.00313725490196,100.0 L 172.0,99.00313725490196 L 172.00313725490196,99.0 L 173.0,98.00313725490196 L 173.00313725490196,98.0 L 173.00313725490196,97.0 L 174.0,96.00313725490196 L 175.0,96.00313725490196 L 175.99686274509804,97.0 L 175.99686274509804,98.0 L 175.99686274509804,99.0 L 175.0,99.99686274509804 L 174.99686274509804,100.0 L 174.99686274509804,101.0 L 174.0,101.99686274509804 L 173.99686274509804,102.0 L 173.99686274509804,103.0 L 173.0,103.99686274509804 L 172.99686274509804,104.0 L 172.0,104.99686274509804 L 171.0,104.99686274509804 L 170.99686274509804,105.0 L 170.0,105.99686274509804 Z" fill="black" stroke="none" /><path d="M 103.0,105.99686274509804 L 102.0,105.99686274509804 L 101.0,105.99686274509804 L 100.0,105.99686274509804 L 99.0,105.99686274509804 L 98.0,105.99686274509804 L 97.0,105.99686274509804 L 96.0,105.99686274509804 L 95.0,105.99686274509804 L 94.0,105.99686274509804 L 93.0,105.99686274509804 L 92.0,105.99686274509804 L 91.0,105.99686274509804 L 90.0,105.99686274509804 L 89.0,105.99686274509804 L 88.00313725490196,105.0 L 88.0,104.99686274509804 L 87.00313725490196,104.0 L 88.0,103.00313725490196 L 89.0,103.00313725490196 L 89.00313725490196,103.0 L 90.0,102.00313725490196 L 91.0,102.00313725490196 L 91.00313725490196,102.0 L 91.00313725490196,101.0 L 91.00313725490196,100.0 L 91.00313725490196,99.0 L 91.00313725490196,98.0 L 91.00313725490196,97.0 L 91.00313725490196,96.0 L 91.00313725490196,95.0 L 91.00313725490196,94.0 L 91.00313725490196,93.0 L 91.00313725490196,92.0 L 91.00313725490196,91.0 L 91.00313725490196,90.0 L 91.00313725490196,89.0 L 91.00313725490196,88.0 L 91.00313725490196,87.0 L 91.00313725490196,86.0 L 91.00313725490196,85.0 L 91.00313725490196,84.0 L 91.00313725490196,83.0 L 91.00313725490196,82.0 L 91.00313725490196,81.0 L 91.00313725490196,80.0 L 91.00313725490196,79.0 L 91.00313725490196,78.0 L 91.00313725490196,77.0 L 91.0,76.99686274509804 L 90.0,76.99686274509804 L 89.0,76.99686274509804 L 88.0,76.99686274509804 L 87.00313725490196,76.0 L 87.00313725490196,75.0 L 88.0,74.00313725490196 L 89.0,74.00313725490196 L 90.0,74.00313725490196 L 91.0,74.00313725490196 L 92.0,74.00313725490196 L 93.0,74.00313725490196 L 94.0,74.00313725490196 L 95.0,74.00313725490196 L 96.0,74.00313725490196 L 97.0,74.00313725490196 L 98.0,74.00313725490196 L 99.0,74.00313725490196 L 100.0,74.00313725490196 L 101.0,74.00313725490196 L 102.0,74.00313725490196 L 103.0,74.00313725490196 L 104.0,74.00313725490196 L 105.0,74.00313725490196 L 106.0,74.00313725490196 L 107.0,74.00313725490196 L 108.0,74.00313725490196 L 108.99686274509804,75.0 L 109.0,75.00313725490196 L 110.0,75.00313725490196 L 110.99686274509804,76.0 L 111.0,76.00313725490196 L 111.99686274509804,77.0 L 112.0,77.00313725490196 L 112.99686274509804,78.0 L 112.99686274509804,79.0 L 113.0,79.00313725490196 L 113.99686274509804,80.0 L 113.99686274509804,81.0 L 113.99686274509804,82.0 L 113.99686274509804,83.0 L 113.99686274509804,84.0 L 113.99686274509804,85.0 L 113.99686274509804,86.0 L 113.99686274509804,87.0 L 113.0,87.99686274509804 L 112.99686274509804,88.0 L 112.0,88.99686274509804 L 111.99686274509804,89.0 L 111.99686274509804,90.0 L 111.0,90.99686274509804 L 110.99686274509804,91.0 L 110.0,91.99686274509804 L 109.0,91.99686274509804 L 108.99686274509804,92.0 L 108.0,92.99686274509804 L 107.0,92.99686274509804 L 106.0,92.99686274509804 L 105.99686274509804,93.0 L 105.0,93.99686274509804 L 104.0,93.99686274509804 L 103.0,93.99686274509804 L 102.0,93.99686274509804 L 101.0,93.99686274509804 L 100.00313725490196,93.0 L 100.00313725490196,92.0 L 100.00313725490196,91.0 L 101.0,90.00313725490196 L 102.0,90.00313725490196 L 103.0,90.00313725490196 L 104.0,90.00313725490196 L 104.00313725490196,90.0 L 105.0,89.00313725490196 L 105.00313725490196,89.0 L 106.0,88.00313725490196 L 106.00313725490196,88.0 L 106.00313725490196,87.0 L 106.00313725490196,86.0 L 107.0,85.00313725490196 L 107.00313725490196,85.0 L 107.00313725490196,84.0 L 107.0,83.99686274509804 L 106.00313725490196,83.0 L 106.00313725490196,82.0 L 106.00313725490196,81.0 L 106.00313725490196,80.0 L 106.0,79.99686274509804 L 105.00313725490196,79.0 L 105.0,78.99686274509804 L 104.00313725490196,78.0 L 104.0,77.99686274509804 L 103.0,77.99686274509804 L 102.00313725490196,77.0 L 102.0,76.99686274509804 L 101.0,76.99686274509804 L 100.0,76.99686274509804 L 99.0,76.99686274509804 L 98.99686274509804,77.0 L 98.99686274509804,78.0 L 98.99686274509804,79.0 L 98.99686274509804,80.0 L 98.99686274509804,81.0 L 98.99686274509804,82.0 L 98.99686274509804,83.0 L 98.99686274509804,84.0 L 98.99686274509804,85.0 L 98.99686274509804,86.0 L 98.99686274509804,87.0 L 98.99686274509804,88.0 L 98.99686274509804,89.0 L 98.99686274509804,90.0 L 98.99686274509804,91.0 L 98.99686274509804,92.0 L 98.99686274509804,93.0 L 98.99686274509804,94.0 L 98.99686274509804,95.0 L 98.99686274509804,96.0 L 98.99686274509804,97.0 L 98.99686274509804,98.0 L 98.99686274509804,99.0 L 98.99686274509804,100.0 L 98.99686274509804,101.0 L 98.99686274509804,102.0 L 99.0,102.00313725490196 L 100.0,102.00313725490196 L 101.0,102.00313725490196 L 101.99686274509804,103.0 L 102.0,103.00313725490196 L 103.0,103.00313725490196 L 103.99686274509804,104.0 L 103.99686274509804,105.0 L 103.0,105.99686274509804 Z" fill="black" stroke="none" /><path d="M 144.0,105.99686274509804 L 143.0,105.99686274509804 L 142.0,105.99686274509804 L 141.0,105.99686274509804 L 140.0,105.99686274509804 L 139.0,105.99686274509804 L 138.0,105.99686274509804 L 137.0,105.99686274509804 L 136.0,105.99686274509804 L 135.0,105.99686274509804 L 134.0,105.99686274509804 L 133.0,105.99686274509804 L 132.0,105.99686274509804 L 131.0,105.99686274509804 L 130.00313725490196,105.0 L 130.00313725490196,104.0 L 131.0,103.00313725490196 L 131.00313725490196,103.0 L 132.0,102.00313725490196 L 133.0,102.00313725490196 L 133.00313725490196,102.0 L 133.00313725490196,101.0 L 133.0,100.99686274509804 L 132.00313725490196,100.0 L 132.00313725490196,99.0 L 132.00313725490196,98.0 L 132.0,97.99686274509804 L 131.00313725490196,97.0 L 131.00313725490196,96.0 L 131.00313725490196,95.0 L 131.0,94.99686274509804 L 130.0,94.99686274509804 L 129.0,94.99686274509804 L 128.0,94.99686274509804 L 127.0,94.99686274509804 L 126.0,94.99686274509804 L 125.0,94.99686274509804 L 124.0,94.99686274509804 L 123.0,94.99686274509804 L 122.0,94.99686274509804 L 121.99686274509804,95.0 L 121.99686274509804,96.0 L 121.99686274509804,97.0 L 121.0,97.99686274509804 L 120.99686274509804,98.0 L 120.99686274509804,99.0 L 120.99686274509804,100.0 L 120.0,100.99686274509804 L 119.99686274509804,101.0 L 120.0,101.00313725490196 L 120.99686274509804,102.0 L 121.0,102.00313725490196 L 122.0,102.00313725490196 L 122.99686274509804,103.0 L 123.0,103.00313725490196 L 124.0,103.00313725490196 L 124.99686274509804,104.0 L 124.0,104.99686274509804 L 123.99686274509804,105.0 L 123.0,105.99686274509804 L 122.0,105.99686274509804 L 121.0,105.99686274509804 L 120.0,105.99686274509804 L 119.0,105.99686274509804 L 118.0,105.99686274509804 L 117.0,105.99686274509804 L 116.0,105.99686274509804 L 115.0,105.99686274509804 L 114.0,105.99686274509804 L 113.0,105.99686274509804 L 112.0,105.99686274509804 L 111.00313725490196,105.0 L 111.00313725490196,104.0 L 112.0,103.00313725490196 L 112.00313725490196,103.0 L 113.0,102.00313725490196 L 114.0,102.00313725490196 L 115.0,102.00313725490196 L 115.00313725490196,102.0 L 116.0,101.00313725490196 L 116.00313725490196,101.0 L 116.00313725490196,100.0 L 117.0,99.00313725490196 L 117.00313725490196,99.0 L 117.00313725490196,98.0 L 117.00313725490196,97.0 L 118.0,96.00313725490196 L 118.00313725490196,96.0 L 118.00313725490196,95.0 L 119.0,94.00313725490196 L 119.00313725490196,94.0 L 119.00313725490196,93.0 L 119.00313725490196,92.0 L 120.0,91.00313725490196 L 120.00313725490196,91.0 L 120.00313725490196,90.0 L 121.0,89.00313725490196 L 121.00313725490196,89.0 L 121.00313725490196,88.0 L 121.00313725490196,87.0 L 122.0,86.00313725490196 L 122.00313725490196,86.0 L 122.00313725490196,85.0 L 122.00313725490196,84.0 L 123.0,83.00313725490196 L 123.00313725490196,83.0 L 123.00313725490196,82.0 L 123.00313725490196,81.0 L 124.0,80.00313725490196 L 124.00313725490196,80.0 L 124.00313725490196,79.0 L 125.0,78.00313725490196 L 125.00313725490196,78.0 L 125.00313725490196,77.0 L 125.00313725490196,76.0 L 126.0,75.00313725490196 L 126.00313725490196,75.0 L 127.0,74.00313725490196 L 128.0,74.00313725490196 L 129.0,74.00313725490196 L 130.0,74.00313725490196 L 131.0,74.00313725490196 L 131.99686274509804,75.0 L 131.99686274509804,76.0 L 131.99686274509804,77.0 L 132.0,77.00313725490196 L 132.99686274509804,78.0 L 132.99686274509804,79.0 L 132.99686274509804,80.0 L 133.0,80.00313725490196 L 133.99686274509804,81.0 L 133.99686274509804,82.0 L 133.99686274509804,83.0 L 134.0,83.00313725490196 L 134.99686274509804,84.0 L 134.99686274509804,85.0 L 134.99686274509804,86.0 L 135.0,86.00313725490196 L 135.99686274509804,87.0 L 135.99686274509804,88.0 L 136.0,88.00313725490196 L 136.99686274509804,89.0 L 136.99686274509804,90.0 L 136.99686274509804,91.0 L 137.0,91.00313725490196 L 137.99686274509804,92.0 L 137.99686274509804,93.0 L 137.99686274509804,94.0 L 138.0,94.00313725490196 L 138.99686274509804,95.0 L 138.99686274509804,96.0 L 138.99686274509804,97.0 L 139.0,97.00313725490196 L 139.99686274509804,98.0 L 139.99686274509804,99.0 L 140.0,99.00313725490196 L 140.99686274509804,100.0 L 140.99686274509804,101.0 L 141.0,101.00313725490196 L 141.99686274509804,102.0 L 142.0,102.00313725490196 L 143.0,102.00313725490196 L 143.99686274509804,103.0 L 144.0,103.00313725490196 L 145.0,103.00313725490196 L 145.99686274509804,104.0 L 145.0,104.99686274509804 L 144.99686274509804,105.0 L 144.0,105.99686274509804 Z" fill="black" stroke="none" /><path d="M 211.0,105.99686274509804 L 210.0,105.99686274509804 L 209.0,105.99686274509804 L 208.0,105.99686274509804 L 207.0,105.99686274509804 L 206.0,105.99686274509804 L 205.0,105.99686274509804 L 204.0,105.99686274509804 L 203.0,105.99686274509804 L 202.00313725490196,105.0 L 202.0,104.99686274509804 L 201.0,104.99686274509804 L 200.00313725490196,104.0 L 200.0,103.99686274509804 L 199.00313725490196,103.0 L 199.0,102.99686274509804 L 198.00313725490196,102.0 L 198.0,101.99686274509804 L 197.00313725490196,101.0 L 197.0,100.99686274509804 L 196.00313725490196,100.0 L 196.0,99.99686274509804 L 195.00313725490196,99.0 L 195.0,98.99686274509804 L 194.00313725490196,98.0 L 194.00313725490196,97.0 L 194.0,96.99686274509804 L 193.00313725490196,96.0 L 193.0,95.99686274509804 L 192.00313725490196,95.0 L 192.0,94.99686274509804 L 191.00313725490196,94.0 L 191.00313725490196,93.0 L 191.0,92.99686274509804 L 190.00313725490196,92.0 L 190.0,91.99686274509804 L 189.99686274509804,92.0 L 189.99686274509804,93.0 L 189.99686274509804,94.0 L 189.99686274509804,95.0 L 189.99686274509804,96.0 L 189.99686274509804,97.0 L 189.99686274509804,98.0 L 189.99686274509804,99.0 L 189.99686274509804,100.0 L 189.99686274509804,101.0 L 189.99686274509804,102.0 L 190.0,102.00313725490196 L 191.0,102.00313725490196 L 192.0,102.00313725490196 L 192.99686274509804,103.0 L 193.0,103.00313725490196 L 193.99686274509804,104.0 L 193.99686274509804,105.0 L 193.0,105.99686274509804 L 192.0,105.99686274509804 L 191.0,105.99686274509804 L 190.0,105.99686274509804 L 189.0,105.99686274509804 L 188.0,105.99686274509804 L 187.0,105.99686274509804 L 186.0,105.99686274509804 L 185.0,105.99686274509804 L 184.0,105.99686274509804 L 183.0,105.99686274509804 L 182.0,105.99686274509804 L 181.0,105.99686274509804 L 180.0,105.99686274509804 L 179.0,105.99686274509804 L 178.00313725490196,105.0 L 178.00313725490196,104.0 L 179.0,103.00313725490196 L 179.00313725490196,103.0 L 180.0,102.00313725490196 L 181.0,102.00313725490196 L 182.0,102.00313725490196 L 182.00313725490196,102.0 L 182.00313725490196,101.0 L 182.00313725490196,100.0 L 182.00313725490196,99.0 L 182.00313725490196,98.0 L 182.00313725490196,97.0 L 182.00313725490196,96.0 L 182.00313725490196,95.0 L 182.00313725490196,94.0 L 182.00313725490196,93.0 L 182.00313725490196,92.0 L 182.00313725490196,91.0 L 182.00313725490196,90.0 L 182.00313725490196,89.0 L 182.00313725490196,88.0 L 182.00313725490196,87.0 L 182.00313725490196,86.0 L 182.00313725490196,85.0 L 182.00313725490196,84.0 L 182.00313725490196,83.0 L 182.00313725490196,82.0 L 182.00313725490196,81.0 L 182.00313725490196,80.0 L 182.00313725490196,79.0 L 182.00313725490196,78.0 L 182.0,77.99686274509804 L 181.00313725490196,77.0 L 181.0,76.99686274509804 L 180.0,76.99686274509804 L 179.0,76.99686274509804 L 178.00313725490196,76.0 L 178.00313725490196,75.0 L 179.0,74.00313725490196 L 180.0,74.00313725490196 L 181.0,74.00313725490196 L 182.0,74.00313725490196 L 183.0,74.00313725490196 L 184.0,74.00313725490196 L 185.0,74.00313725490196 L 186.0,74.00313725490196 L 187.0,74.00313725490196 L 188.0,74.00313725490196 L 189.0,74.00313725490196 L 190.0,74.00313725490196 L 191.0,74.00313725490196 L 192.0,74.00313725490196 L 192.99686274509804,75.0 L 192.99686274509804,76.0 L 192.0,76.99686274509804 L 191.0,76.99686274509804 L 190.0,76.99686274509804 L 189.99686274509804,77.0 L 189.99686274509804,78.0 L 189.99686274509804,79.0 L 189.99686274509804,80.0 L 189.99686274509804,81.0 L 189.99686274509804,82.0 L 189.99686274509804,83.0 L 189.99686274509804,84.0 L 189.99686274509804,85.0 L 189.99686274509804,86.0 L 189.99686274509804,87.0 L 189.99686274509804,88.0 L 189.99686274509804,89.0 L 190.0,89.00313725490196 L 190.00313725490196,89.0 L 191.0,88.00313725490196 L 191.00313725490196,88.0 L 192.0,87.00313725490196 L 192.00313725490196,87.0 L 193.0,86.00313725490196 L 193.00313725490196,86.0 L 194.0,85.00313725490196 L 194.00313725490196,85.0 L 195.0,84.00313725490196 L 195.00313725490196,84.0 L 196.0,83.00313725490196 L 196.00313725490196,83.0 L 197.0,82.00313725490196 L 197.00313725490196,82.0 L 198.0,81.00313725490196 L 198.00313725490196,81.0 L 198.00313725490196,80.0 L 199.0,79.00313725490196 L 199.00313725490196,79.0 L 199.00313725490196,78.0 L 199.00313725490196,77.0 L 199.0,76.99686274509804 L 198.0,76.99686274509804 L 197.0,76.99686274509804 L 196.00313725490196,76.0 L 196.00313725490196,75.0 L 197.0,74.00313725490196 L 198.0,74.00313725490196 L 199.0,74.00313725490196 L 200.0,74.00313725490196 L 201.0,74.00313725490196 L 202.0,74.00313725490196 L 203.0,74.00313725490196 L 204.0,74.00313725490196 L 205.0,74.00313725490196 L 206.0,74.00313725490196 L 207.0,74.00313725490196 L 208.0,74.00313725490196 L 209.0,74.00313725490196 L 209.99686274509804,75.0 L 209.99686274509804,76.0 L 209.0,76.99686274509804 L 208.0,76.99686274509804 L 207.0,76.99686274509804 L 206.0,76.99686274509804 L 205.99686274509804,77.0 L 205.0,77.99686274509804 L 204.99686274509804,78.0 L 204.0,78.99686274509804 L 203.99686274509804,79.0 L 203.0,79.99686274509804 L 202.99686274509804,80.0 L 202.0,80.99686274509804 L 201.99686274509804,81.0 L 201.0,81.99686274509804 L 200.99686274509804,82.0 L 200.0,82.99686274509804 L 199.99686274509804,83.0 L 199.0,83.99686274509804 L 198.99686274509804,84.0 L 198.0,84.99686274509804 L 197.99686274509804,85.0 L 197.0,85.99686274509804 L 196.99686274509804,86.0 L 196.99686274509804,87.0 L 196.0,87.99686274509804 L 195.99686274509804,88.0 L 196.0,88.00313725490196 L 196.99686274509804,89.0 L 196.99686274509804,90.0 L 197.0,90.00313725490196 L 197.99686274509804,91.0 L 198.0,91.00313725490196 L 198.99686274509804,92.0 L 199.0,92.00313725490196 L 199.99686274509804,93.0 L 200.0,93.00313725490196 L 200.99686274509804,94.0 L 200.99686274509804,95.0 L 201.0,95.00313725490196 L 201.99686274509804,96.0 L 202.0,96.00313725490196 L 202.99686274509804,97.0 L 203.0,97.00313725490196 L 203.99686274509804,98.0 L 204.0,98.00313725490196 L 204.99686274509804,99.0 L 205.0,99.00313725490196 L 205.99686274509804,100.0 L 206.0,100.00313725490196 L 206.99686274509804,101.0 L 207.0,101.00313725490196 L 207.99686274509804,102.0 L 208.0,102.00313725490196 L 209.0,102.00313725490196 L 210.0,102.00313725490196 L 210.99686274509804,103.0 L 211.0,103.00313725490196 L 211.99686274509804,104.0 L 211.99686274509804,105.0 L 211.0,105.99686274509804 Z" fill="black" stroke="none" /><path d="M 79.0,84.99686274509804 L 78.00313725490196,84.0 L 78.0,83.99686274509804 L 77.00313725490196,83.0 L 77.0,82.99686274509804 L 76.99686274509804,83.0 L 76.0,83.99686274509804 L 75.99686274509804,84.0 L 75.0,84.99686274509804 L 74.00313725490196,84.0 L 74.00313725490196,83.0 L 74.00313725490196,82.0 L 74.00313725490196,81.0 L 74.0,80.99686274509804 L 73.00313725490196,80.0 L 74.0,79.00313725490196 L 75.0,79.00313725490196 L 76.0,79.00313725490196 L 76.00313725490196,79.0 L 76.00313725490196,78.0 L 76.00313725490196,77.0 L 77.0,76.00313725490196 L 77.99686274509804,77.0 L 78.0,77.00313725490196 L 78.99686274509804,78.0 L 78.99686274509804,79.0 L 79.0,79.00313725490196 L 80.0,79.00313725490196 L 80.99686274509804,80.0 L 80.0,80.99686274509804 L 79.99686274509804,81.0 L 79.99686274509804,82.0 L 79.99686274509804,83.0 L 79.99686274509804,84.0 L 79.0,84.99686274509804 Z" fill="black" stroke="none" /><path d="M 59.0,103.99686274509804 L 58.0,103.99686274509804 L 57.0,103.99686274509804 L 56.0,103.99686274509804 L 55.00313725490196,103.0 L 55.00313725490196,102.0 L 55.00313725490196,101.0 L 56.0,100.00313725490196 L 56.00313725490196,100.0 L 56.0,99.99686274509804 L 55.00313725490196,99.0 L 55.00313725490196,98.0 L 55.00313725490196,97.0 L 56.0,96.00313725490196 L 56.00313725490196,96.0 L 56.0,95.99686274509804 L 55.00313725490196,95.0 L 55.00313725490196,94.0 L 55.00313725490196,93.0 L 55.00313725490196,92.0 L 55.0,91.99686274509804 L 54.99686274509804,92.0 L 54.99686274509804,93.0 L 54.99686274509804,94.0 L 54.99686274509804,95.0 L 54.99686274509804,96.0 L 54.99686274509804,97.0 L 54.99686274509804,98.0 L 54.99686274509804,99.0 L 54.0,99.99686274509804 L 53.00313725490196,99.0 L 53.0,98.99686274509804 L 52.99686274509804,99.0 L 53.0,99.00313725490196 L 53.99686274509804,100.0 L 54.0,100.00313725490196 L 54.99686274509804,101.0 L 54.99686274509804,102.0 L 54.99686274509804,103.0 L 54.0,103.99686274509804 L 53.0,103.99686274509804 L 52.0,103.99686274509804 L 51.0,103.99686274509804 L 50.00313725490196,103.0 L 50.0,102.99686274509804 L 49.0,102.99686274509804 L 48.00313725490196,102.0 L 48.0,101.99686274509804 L 47.00313725490196,101.0 L 47.0,100.99686274509804 L 46.00313725490196,100.0 L 46.00313725490196,99.0 L 46.0,98.99686274509804 L 45.00313725490196,98.0 L 45.00313725490196,97.0 L 45.00313725490196,96.0 L 45.00313725490196,95.0 L 45.00313725490196,94.0 L 45.00313725490196,93.0 L 45.00313725490196,92.0 L 45.00313725490196,91.0 L 46.0,90.00313725490196 L 46.00313725490196,90.0 L 46.00313725490196,89.0 L 47.0,88.00313725490196 L 47.00313725490196,88.0 L 47.00313725490196,87.0 L 48.0,86.00313725490196 L 48.00313725490196,86.0 L 49.0,85.00313725490196 L 49.00313725490196,85.0 L 49.00313725490196,84.0 L 50.0,83.00313725490196 L 50.00313725490196,83.0 L 51.0,82.00313725490196 L 51.00313725490196,82.0 L 51.00313725490196,81.0 L 52.0,80.00313725490196 L 52.00313725490196,80.0 L 53.0,79.00313725490196 L 53.00313725490196,79.0 L 54.0,78.00313725490196 L 55.0,78.00313725490196 L 56.0,78.00313725490196 L 56.99686274509804,79.0 L 57.0,79.00313725490196 L 57.99686274509804,80.0 L 58.0,80.00313725490196 L 58.99686274509804,81.0 L 59.0,81.00313725490196 L 59.99686274509804,82.0 L 59.99686274509804,83.0 L 60.0,83.00313725490196 L 60.99686274509804,84.0 L 61.0,84.00313725490196 L 61.99686274509804,85.0 L 62.0,85.00313725490196 L 62.99686274509804,86.0 L 62.99686274509804,87.0 L 63.0,87.00313725490196 L 63.99686274509804,88.0 L 63.99686274509804,89.0 L 64.0,89.00313725490196 L 64.99686274509804,90.0 L 64.99686274509804,91.0 L 64.99686274509804,92.0 L 65.0,92.00313725490196 L 65.99686274509804,93.0 L 65.99686274509804,94.0 L 65.99686274509804,95.0 L 65.99686274509804,96.0 L 65.99686274509804,97.0 L 65.0,97.99686274509804 L 64.99686274509804,98.0 L 64.99686274509804,99.0 L 64.0,99.99686274509804 L 63.99686274509804,100.0 L 63.0,100.99686274509804 L 62.99686274509804,101.0 L 62.0,101.99686274509804 L 61.99686274509804,102.0 L 61.0,102.99686274509804 L 60.0,102.99686274509804 L 59.99686274509804,103.0 L 59.0,103.99686274509804 Z" fill="black" stroke="none" /><path d="M 129.00313725490196,90.0 L 129.00313725490196,89.0 L 129.0,88.99686274509804 L 128.00313725490196,88.0 L 128.00313725490196,87.0 L 128.00313725490196,86.0 L 128.0,85.99686274509804 L 127.00313725490196,85.0 L 127.00313725490196,84.0 L 127.00313725490196,83.0 L 127.0,82.99686274509804 L 126.99686274509804,83.0 L 126.0,83.99686274509804 L 125.99686274509804,84.0 L 125.99686274509804,85.0 L 125.99686274509804,86.0 L 125.0,86.99686274509804 L 124.99686274509804,87.0 L 124.99686274509804,88.0 L 124.99686274509804,89.0 L 124.0,89.99686274509804 L 123.99686274509804,90.0 L 124.0,90.00313725490196 L 125.0,90.00313725490196 L 126.0,90.00313725490196 L 127.0,90.00313725490196 L 128.0,90.00313725490196 L 129.0,90.00313725490196 L 129.00313725490196,90.0 Z" fill="black" stroke="none" /><path d="M 78.0,91.99686274509804 L 77.0,91.99686274509804 L 76.0,91.99686274509804 L 75.00313725490196,91.0 L 75.00313725490196,90.0 L 75.00313725490196,89.0 L 75.00313725490196,88.0 L 75.00313725490196,87.0 L 76.0,86.00313725490196 L 76.99686274509804,87.0 L 76.99686274509804,88.0 L 76.99686274509804,89.0 L 76.99686274509804,90.0 L 77.0,90.00313725490196 L 77.00313725490196,90.0 L 77.00313725490196,89.0 L 77.00313725490196,88.0 L 77.00313725490196,87.0 L 78.0,86.00313725490196 L 78.99686274509804,87.0 L 78.99686274509804,88.0 L 78.99686274509804,89.0 L 78.99686274509804,90.0 L 78.99686274509804,91.0 L 78.0,91.99686274509804 Z" fill="black" stroke="none" /><path d="M 79.0,97.99686274509804 L 78.0,97.99686274509804 L 77.00313725490196,97.0 L 77.00313725490196,96.0 L 77.0,95.99686274509804 L 76.99686274509804,96.0 L 76.99686274509804,97.0 L 76.0,97.99686274509804 L 75.0,97.99686274509804 L 74.00313725490196,97.0 L 74.00313725490196,96.0 L 74.00313725490196,95.0 L 74.00313725490196,94.0 L 74.00313725490196,93.0 L 75.0,92.00313725490196 L 75.99686274509804,93.0 L 76.0,93.00313725490196 L 76.00313725490196,93.0 L 77.0,92.00313725490196 L 77.99686274509804,93.0 L 77.99686274509804,94.0 L 78.0,94.00313725490196 L 78.00313725490196,94.0 L 78.00313725490196,93.0 L 79.0,92.00313725490196 L 79.99686274509804,93.0 L 79.99686274509804,94.0 L 79.99686274509804,95.0 L 79.99686274509804,96.0 L 79.99686274509804,97.0 L 79.0,97.99686274509804 Z" fill="black" stroke="none" /><path d="M 78.0,103.99686274509804 L 77.0,103.99686274509804 L 76.0,103.99686274509804 L 75.00313725490196,103.0 L 76.0,102.00313725490196 L 77.0,102.00313725490196 L 77.00313725490196,102.0 L 77.0,101.99686274509804 L 76.0,101.99686274509804 L 75.00313725490196,101.0 L 75.00313725490196,100.0 L 75.00313725490196,99.0 L 76.0,98.00313725490196 L 77.0,98.00313725490196 L 78.0,98.00313725490196 L 78.99686274509804,99.0 L 78.0,99.99686274509804 L 77.0,99.99686274509804 L 76.99686274509804,100.0 L 77.0,100.00313725490196 L 78.0,100.00313725490196 L 78.99686274509804,101.0 L 78.99686274509804,102.0 L 78.99686274509804,103.0 L 78.0,103.99686274509804 Z" fill="black" stroke="none" /></svg>