<?xml version="1.0" encoding="utf-8" ?>
<svg baseProfile="full" height="197px" version="1.1" width="257px" xmlns="http://www.w3.org/2000/svg" xmlns:ev="http://www.w3.org/2001/xml-events" xmlns:xlink="http://www.w3.org/1999/xlink"><defs /><path d="M 37.0,113.99686274509804 L 36.0,113.99686274509804 L 35.0,113.99686274509804 L 34.0,113.99686274509804 L 33.0,113.99686274509804 L 32.0,113.99686274509804 L 31.0,113.99686274509804 L 30.0,113.99686274509804 L 29.0,113.99686274509804 L 28.0,113.99686274509804 L 27.0,113.99686274509804 L 26.0,113.99686274509804 L 25.00313725490196,113.0 L 25.0,112.99686274509804 L 24.0,112.99686274509804 L 23.0,112.99686274509804 L 22.00313725490196,112.0 L 22.0,111.99686274509804 L 21.0,111.99686274509804 L 20.00313725490196,111.0 L 20.0,110.99686274509804 L 19.0,110.99686274509804 L 18.00313725490196,110.0 L 18.0,109.99686274509804 L 17.00313725490196,109.0 L 17.0,108.99686274509804 L 16.0,108.99686274509804 L 15.003137254901961,108.0 L 15.0,107.99686274509804 L 14.003137254901961,107.0 L 14.0,106.99686274509804 L 13.003137254901961,106.0 L 13.0,105.99686274509804 L 12.003137254901961,105.0 L 12.0,104.99686274509804 L 11.003137254901961,104.0 L 11.003137254901961,103.0 L 11.0,102.99686274509804 L 10.003137254901961,102.0 L 10.003137254901961,101.0 L 10.0,100.99686274509804 L 9.003137254901961,100.0 L 9.003137254901961,99.0 L 9.0,98.99686274509804 L 8.003137254901961,98.0 L 8.003137254901961,97.0 L 8.0,96.99686274509804 L 7.003137254901961,96.0 L 7.003137254901961,95.0 L 7.003137254901961,94.0 L 7.003137254901961,93.0 L 7.0,92.99686274509804 L 6.003137254901961,92.0 L 6.003137254901961,91.0 L 6.003137254901961,90.0 L 6.003137254901961,89.0 L 6.003137254901961,88.0 L 6.003137254901961,87.0 L 6.003137254901961,86.0 L 7.0,85.00313725490196 L 7.003137254901961,85.0 L 7.003137254901961,84.0 L 7.003137254901961,83.0 L 7.003137254901961,82.0 L 8.0,81.00313725490196 L 8.003137254901961,81.0 L 8.003137254901961,80.0 L 8.003137254901961,79.0 L 9.0,78.00313725490196 L 9.003137254901961,78.0 L 10.0,77.00313725490196 L 10.003137254901961,77.0 L 10.003137254901961,76.0 L 10.003137254901961,75.0 L 11.0,74.00313725490196 L 11.003137254901961,74.0 L 11.003137254901961,73.0 L 12.0,72.00313725490196 L 12.003137254901961,72.0 L 12.003137254901961,71.0 L 13.0,70.00313725490196 L 13.003137254901961,70.0 L 13.003137254901961,69.0 L 14.0,68.00313725490196 L 14.003137254901961,68.0 L 14.003137254901961,67.0 L 15.0,66.00313725490196 L 15.003137254901961,66.0 L 16.0,65.00313725490196 L 16.00313725490196,65.0 L 16.00313725490196,64.0 L 17.0,63.00313725490196 L 17.00313725490196,63.0 L 17.00313725490196,62.0 L 18.0,61.00313725490196 L 18.00313725490196,61.0 L 19.0,60.00313725490196 L 19.00313725490196,60.0 L 19.00313725490196,59.0 L 20.0,58.00313725490196 L 20.00313725490196,58.0 L 21.0,57.00313725490196 L 21.00313725490196,57.0 L 21.00313725490196,56.0 L 22.0,55.00313725490196 L 22.00313725490196,55.0 L 22.00313725490196,54.0 L 23.0,53.00313725490196 L 23.00313725490196,53.0 L 24.0,52.00313725490196 L 24.00313725490196,52.0 L 24.00313725490196,51.0 L 25.0,50.00313725490196 L 25.00313725490196,50.0 L 26.0,49.00313725490196 L 26.00313725490196,49.0 L 26.00313725490196,48.0 L 27.0,47.00313725490196 L 27.00313725490196,47.0 L 27.00313725490196,46.0 L 28.0,45.00313725490196 L 28.00313725490196,45.0 L 29.0,44.00313725490196 L 29.00313725490196,44.0 L 30.0,43.00313725490196 L 30.00313725490196,43.0 L 31.0,42.00313725490196 L 32.0,42.00313725490196 L 32.99686274509804,43.0 L 33.0,43.00313725490196 L 33.99686274509804,44.0 L 34.0,44.00313725490196 L 34.99686274509804,45.0 L 35.0,45.00313725490196 L 35.99686274509804,46.0 L 35.99686274509804,47.0 L 36.0,47.00313725490196 L 36.99686274509804,48.0 L 37.0,48.00313725490196 L 37.99686274509804,49.0 L 37.99686274509804,50.0 L 38.0,50.00313725490196 L 38.99686274509804,51.0 L 38.99686274509804,52.0 L 39.0,52.00313725490196 L 39.99686274509804,53.0 L 40.0,53.00313725490196 L 40.99686274509804,54.0 L 40.99686274509804,55.0 L 41.0,55.00313725490196 L 41.99686274509804,56.0 L 42.0,56.00313725490196 L 42.99686274509804,57.0 L 42.99686274509804,58.0 L 43.0,58.00313725490196 L 43.99686274509804,59.0 L 43.99686274509804,60.0 L 44.0,60.00313725490196 L 44.99686274509804,61.0 L 45.0,61.00313725490196 L 45.99686274509804,62.0 L 45.99686274509804,63.0 L 46.0,63.00313725490196 L 46.99686274509804,64.0 L 47.0,64.00313725490196 L 47.99686274509804,65.0 L 47.99686274509804,66.0 L 48.0,66.00313725490196 L 48.99686274509804,67.0 L 48.99686274509804,68.0 L 49.0,68.00313725490196 L 49.99686274509804,69.0 L 49.99686274509804,70.0 L 50.0,70.00313725490196 L 50.99686274509804,71.0 L 50.99686274509804,72.0 L 51.0,72.00313725490196 L 51.99686274509804,73.0 L 51.99686274509804,74.0 L 52.0,74.00313725490196 L 52.99686274509804,75.0 L 52.99686274509804,76.0 L 53.0,76.00313725490196 L 53.99686274509804,77.0 L 53.99686274509804,78.0 L 53.99686274509804,79.0 L 54.0,79.00313725490196 L 54.99686274509804,80.0 L 54.99686274509804,81.0 L 55.0,81.00313725490196 L 55.99686274509804,82.0 L 55.99686274509804,83.0 L 55.99686274509804,84.0 L 55.99686274509804,85.0 L 56.0,85.00313725490196 L 56.99686274509804,86.0 L 56.99686274509804,87.0 L 56.99686274509804,88.0 L 56.99686274509804,89.0 L 56.99686274509804,90.0 L 56.99686274509804,91.0 L 56.99686274509804,92.0 L 56.0,92.99686274509804 L 55.99686274509804,93.0 L 55.99686274509804,94.0 L 55.99686274509804,95.0 L 55.0,95.99686274509804 L 54.99686274509804,96.0 L 54.99686274509804,97.0 L 54.99686274509804,98.0 L 54.0,98.99686274509804 L 53.99686274509804,99.0 L 53.99686274509804,100.0 L 53.0,100.99686274509804 L 52.99686274509804,101.0 L 52.99686274509804,102.0 L 52.0,102.99686274509804 L 51.99686274509804,103.0 L 51.0,103.99686274509804 L 50.99686274509804,104.0 L 50.99686274509804,105.0 L 50.0,105.99686274509804 L 49.99686274509804,106.0 L 49.0,106.99686274509804 L 48.99686274509804,107.0 L 48.0,107.99686274509804 L 47.99686274509804,108.0 L 47.0,108.99686274509804 L 46.0,108.99686274509804 L 45.99686274509804,109.0 L 45.0,109.99686274509804 L 44.99686274509804,110.0 L 44.0,110.99686274509804 L 43.0,110.99686274509804 L 42.99686274509804,111.0 L 42.0,111.99686274509804 L 41.0,111.99686274509804 L 40.99686274509804,112.0 L 40.0,112.99686274509804 L 39.0,112.99686274509804 L 38.0,112.99686274509804 L 37.99686274509804,113.0 L 37.0,113.99686274509804 Z" fill="black" stroke="none" /><path d="M 35.00313725490196,110.0 L 36.0,109.00313725490196 L 37.0,109.00313725490196 L 38.0,109.00313725490196 L 38.00313725490196,109.0 L 39.0,108.00313725490196 L 40.0,108.00313725490196 L 41.0,108.00313725490196 L 41.00313725490196,108.0 L 42.0,107.00313725490196 L 43.0,107.00313725490196 L 43.00313725490196,107.0 L 44.0,106.00313725490196 L 44.00313725490196,106.0 L 45.0,105.00313725490196 L 45.00313725490196,105.0 L 46.0,104.00313725490196 L 46.00313725490196,104.0 L 47.0,103.00313725490196 L 47.00313725490196,103.0 L 48.0,102.00313725490196 L 48.00313725490196,102.0 L 49.0,101.00313725490196 L 49.00313725490196,101.0 L 49.00313725490196,100.0 L 50.0,99.00313725490196 L 50.00313725490196,99.0 L 50.00313725490196,98.0 L 51.0,97.00313725490196 L 51.00313725490196,97.0 L 51.00313725490196,96.0 L 52.0,95.00313725490196 L 52.00313725490196,95.0 L 52.00313725490196,94.0 L 52.00313725490196,93.0 L 52.00313725490196,92.0 L 52.00313725490196,91.0 L 52.00313725490196,90.0 L 52.00313725490196,89.0 L 52.00313725490196,88.0 L 52.00313725490196,87.0 L 52.00313725490196,86.0 L 52.00313725490196,85.0 L 52.00313725490196,84.0 L 52.0,83.99686274509804 L 51.00313725490196,83.0 L 51.00313725490196,82.0 L 51.0,81.99686274509804 L 50.00313725490196,81.0 L 50.00313725490196,80.0 L 50.00313725490196,79.0 L 50.0,78.99686274509804 L 49.00313725490196,78.0 L 49.00313725490196,77.0 L 49.0,76.99686274509804 L 48.00313725490196,76.0 L 48.00313725490196,75.0 L 48.0,74.99686274509804 L 47.00313725490196,74.0 L 47.00313725490196,73.0 L 47.0,72.99686274509804 L 46.00313725490196,72.0 L 46.00313725490196,71.0 L 46.0,70.99686274509804 L 45.00313725490196,70.0 L 45.00313725490196,69.0 L 45.0,68.99686274509804 L 44.00313725490196,68.0 L 44.0,67.99686274509804 L 43.00313725490196,67.0 L 43.00313725490196,66.0 L 43.0,65.99686274509804 L 42.00313725490196,65.0 L 42.00313725490196,64.0 L 42.0,63.99686274509804 L 41.00313725490196,63.0 L 41.0,62.99686274509804 L 40.00313725490196,62.0 L 40.00313725490196,61.0 L 40.0,60.99686274509804 L 39.00313725490196,60.0 L 39.00313725490196,59.0 L 39.0,58.99686274509804 L 38.00313725490196,58.0 L 38.0,57.99686274509804 L 37.00313725490196,57.0 L 37.00313725490196,56.0 L 37.0,55.99686274509804 L 36.00313725490196,55.0 L 36.00313725490196,54.0 L 36.0,53.99686274509804 L 35.00313725490196,53.0 L 35.0,52.99686274509804 L 34.00313725490196,52.0 L 34.00313725490196,51.0 L 34.0,50.99686274509804 L 33.00313725490196,50.0 L 33.0,49.99686274509804 L 32.00313725490196,49.0 L 32.00313725490196,48.0 L 32.0,47.99686274509804 L 31.0,47.99686274509804 L 30.99686274509804,48.0 L 30.99686274509804,49.0 L 30.0,49.99686274509804 L 29.99686274509804,50.0 L 29.0,50.99686274509804 L 28.99686274509804,51.0 L 28.0,51.99686274509804 L 27.99686274509804,52.0 L 27.99686274509804,53.0 L 27.0,53.99686274509804 L 26.99686274509804,54.0 L 26.99686274509804,55.0 L 26.0,55.99686274509804 L 25.99686274509804,56.0 L 25.0,56.99686274509804 L 24.99686274509804,57.0 L 24.99686274509804,58.0 L 24.0,58.99686274509804 L 23.99686274509804,59.0 L 23.0,59.99686274509804 L 22.99686274509804,60.0 L 22.99686274509804,61.0 L 22.0,61.99686274509804 L 21.99686274509804,62.0 L 21.99686274509804,63.0 L 21.0,63.99686274509804 L 20.99686274509804,64.0 L 20.0,64.99686274509804 L 19.99686274509804,65.0 L 19.99686274509804,66.0 L 19.0,66.99686274509804 L 18.99686274509804,67.0 L 18.99686274509804,68.0 L 18.0,68.99686274509804 L 17.99686274509804,69.0 L 17.99686274509804,70.0 L 17.0,70.99686274509804 L 16.99686274509804,71.0 L 16.99686274509804,72.0 L 16.0,72.99686274509804 L 15.996862745098039,73.0 L 15.996862745098039,74.0 L 15.0,74.99686274509804 L 14.996862745098039,75.0 L 14.996862745098039,76.0 L 14.0,76.99686274509804 L 13.996862745098039,77.0 L 13.996862745098039,78.0 L 13.0,78.99686274509804 L 12.996862745098039,79.0 L 12.996862745098039,80.0 L 12.0,80.99686274509804 L 11.996862745098039,81.0 L 11.996862745098039,82.0 L 11.996862745098039,83.0 L 11.0,83.99686274509804 L 10.996862745098039,84.0 L 10.996862745098039,85.0 L 10.996862745098039,86.0 L 10.996862745098039,87.0 L 10.996862745098039,88.0 L 10.0,88.99686274509804 L 9.996862745098039,89.0 L 10.0,89.00313725490196 L 10.996862745098039,90.0 L 10.996862745098039,91.0 L 10.996862745098039,92.0 L 10.996862745098039,93.0 L 10.996862745098039,94.0 L 11.0,94.00313725490196 L 11.996862745098039,95.0 L 11.996862745098039,96.0 L 11.996862745098039,97.0 L 12.0,97.00313725490196 L 12.996862745098039,98.0 L 12.996862745098039,99.0 L 13.0,99.00313725490196 L 13.996862745098039,100.0 L 13.996862745098039,101.0 L 14.0,101.00313725490196 L 14.996862745098039,102.0 L 15.0,102.00313725490196 L 15.996862745098039,103.0 L 16.0,103.00313725490196 L 16.99686274509804,104.0 L 17.0,104.00313725490196 L 17.99686274509804,105.0 L 18.0,105.00313725490196 L 18.99686274509804,106.0 L 19.0,106.00313725490196 L 20.0,106.00313725490196 L 20.99686274509804,107.0 L 21.0,107.00313725490196 L 21.99686274509804,108.0 L 22.0,108.00313725490196 L 23.0,108.00313725490196 L 24.0,108.00313725490196 L 24.99686274509804,109.0 L 25.0,109.00313725490196 L 26.0,109.00313725490196 L 27.0,109.00313725490196 L 27.99686274509804,110.0 L 28.0,110.00313725490196 L 29.0,110.00313725490196 L 30.0,110.00313725490196 L 31.0,110.00313725490196 L 32.0,110.00313725490196 L 33.0,110.00313725490196 L 34.0,110.00313725490196 L 35.0,110.00313725490196 L 35.00313725490196,110.0 Z" fill="black" stroke="none" /><path d="M 256.0,106.99686274509804 L 255.0,106.99686274509804 L 254.00313725490196,106.0 L 254.0,105.99686274509804 L 253.00313725490196,105.0 L 253.0,104.99686274509804 L 252.0,104.99686274509804 L 251.00313725490196,104.0 L 251.0,103.99686274509804 L 250.00313725490196,103.0 L 250.0,102.99686274509804 L 249.00313725490196,102.0 L 249.0,101.99686274509804 L 248.00313725490196,101.0 L 248.0,100.99686274509804 L 247.00313725490196,100.0 L 247.0,99.99686274509804 L 246.00313725490196,99.0 L 246.0,98.99686274509804 L 245.00313725490196,98.0 L 245.0,97.99686274509804 L 244.00313725490196,97.0 L 244.00313725490196,96.0 L 244.0,95.99686274509804 L 243.00313725490196,95.0 L 243.00313725490196,94.0 L 243.00313725490196,93.0 L 243.0,92.99686274509804 L 242.00313725490196,92.0 L 242.00313725490196,91.0 L 242.00313725490196,90.0 L 242.00313725490196,89.0 L 242.0,88.99686274509804 L 241.00313725490196,88.0 L 241.00313725490196,87.0 L 241.00313725490196,86.0 L 241.00313725490196,85.0 L 241.00313725490196,84.0 L 241.00313725490196,83.0 L 241.00313725490196,82.0 L 241.00313725490196,81.0 L 241.00313725490196,80.0 L 241.00313725490196,79.0 L 241.00313725490196,78.0 L 241.00313725490196,77.0 L 241.00313725490196,76.0 L 241.00313725490196,75.0 L 241.00313725490196,74.0 L 241.00313725490196,73.0 L 241.00313725490196,72.0 L 241.00313725490196,71.0 L 241.00313725490196,70.0 L 241.00313725490196,69.0 L 241.00313725490196,68.0 L 241.00313725490196,67.0 L 241.00313725490196,66.0 L 241.00313725490196,65.0 L 241.00313725490196,64.0 L 241.00313725490196,63.0 L 241.0,62.99686274509804 L 240.00313725490196,62.0 L 241.0,61.00313725490196 L 242.0,61.00313725490196 L 243.0,61.00313725490196 L 243.99686274509804,62.0 L 244.0,62.00313725490196 L 245.0,62.00313725490196 L 245.99686274509804,63.0 L 246.0,63.00313725490196 L 247.0,63.00313725490196 L 247.99686274509804,64.0 L 248.0,64.00313725490196 L 248.99686274509804,65.0 L 249.0,65.00313725490196 L 249.99686274509804,66.0 L 250.0,66.00313725490196 L 250.99686274509804,67.0 L 251.0,67.00313725490196 L 251.99686274509804,68.0 L 252.0,68.00313725490196 L 252.99686274509804,69.0 L 253.0,69.00313725490196 L 253.99686274509804,70.0 L 254.0,70.00313725490196 L 254.99686274509804,71.0 L 254.99686274509804,72.0 L 255.0,72.00313725490196 L 255.99686274509804,73.0 L 256.0,73.00313725490196 Z" fill="black" stroke="none" /><path d="M 31.0,72.99686274509804 L 30.0,72.99686274509804 L 29.0,72.99686274509804 L 28.0,72.99686274509804 L 27.00313725490196,72.0 L 28.0,71.00313725490196 L 29.0,71.00313725490196 L 29.00313725490196,71.0 L 30.0,70.00313725490196 L 31.0,70.00313725490196 L 32.0,70.00313725490196 L 33.0,70.00313725490196 L 33.00313725490196,70.0 L 34.0,69.00313725490196 L 35.0,69.00313725490196 L 35.99686274509804,70.0 L 36.0,70.00313725490196 L 37.0,70.00313725490196 L 38.0,70.00313725490196 L 39.0,70.00313725490196 L 40.0,70.00313725490196 L 40.99686274509804,71.0 L 40.0,71.99686274509804 L 39.0,71.99686274509804 L 38.0,71.99686274509804 L 37.0,71.99686274509804 L 36.0,71.99686274509804 L 35.0,71.99686274509804 L 34.0,71.99686274509804 L 33.0,71.99686274509804 L 32.0,71.99686274509804 L 31.99686274509804,72.0 L 31.0,72.99686274509804 Z" fill="black" stroke="none" /><path d="M 80.0,84.99686274509804 L 79.0,84.99686274509804 L 78.00313725490196,84.0 L 78.0,83.99686274509804 L 77.00313725490196,83.0 L 77.00313725490196,82.0 L 77.0,81.99686274509804 L 76.00313725490196,81.0 L 76.0,80.99686274509804 L 75.0,80.99686274509804 L 74.0,80.99686274509804 L 73.0,80.99686274509804 L 72.99686274509804,81.0 L 72.0,81.99686274509804 L 71.99686274509804,82.0 L 71.99686274509804,83.0 L 71.0,83.99686274509804 L 70.99686274509804,84.0 L 70.0,84.99686274509804 L 69.0,84.99686274509804 L 68.00313725490196,84.0 L 68.0,83.99686274509804 L 67.0,83.99686274509804 L 66.0,83.99686274509804 L 65.99686274509804,84.0 L 65.0,84.99686274509804 L 64.0,84.99686274509804 L 63.0,84.99686274509804 L 62.0,84.99686274509804 L 61.00313725490196,84.0 L 61.0,83.99686274509804 L 60.0,83.99686274509804 L 59.00313725490196,83.0 L 59.0,82.99686274509804 L 58.00313725490196,82.0 L 58.0,81.99686274509804 L 57.00313725490196,81.0 L 57.00313725490196,80.0 L 57.00313725490196,79.0 L 57.0,78.99686274509804 L 56.00313725490196,78.0 L 56.00313725490196,77.0 L 56.00313725490196,76.0 L 57.0,75.00313725490196 L 57.00313725490196,75.0 L 57.00313725490196,74.0 L 57.00313725490196,73.0 L 58.0,72.00313725490196 L 58.00313725490196,72.0 L 59.0,71.00313725490196 L 59.00313725490196,71.0 L 60.0,70.00313725490196 L 60.00313725490196,70.0 L 61.0,69.00313725490196 L 62.0,69.00313725490196 L 63.0,69.00313725490196 L 64.0,69.00313725490196 L 65.0,69.00313725490196 L 66.0,69.00313725490196 L 66.99686274509804,70.0 L 67.0,70.00313725490196 L 67.99686274509804,71.0 L 67.99686274509804,72.0 L 67.99686274509804,73.0 L 67.0,73.99686274509804 L 66.00313725490196,73.0 L 66.0,72.99686274509804 L 65.0,72.99686274509804 L 64.0,72.99686274509804 L 63.0,72.99686274509804 L 62.0,72.99686274509804 L 61.99686274509804,73.0 L 61.99686274509804,74.0 L 61.0,74.99686274509804 L 60.99686274509804,75.0 L 60.99686274509804,76.0 L 60.99686274509804,77.0 L 60.99686274509804,78.0 L 60.99686274509804,79.0 L 61.0,79.00313725490196 L 61.99686274509804,80.0 L 62.0,80.00313725490196 L 62.99686274509804,81.0 L 63.0,81.00313725490196 L 64.0,81.00313725490196 L 65.0,81.00313725490196 L 65.00313725490196,81.0 L 66.0,80.00313725490196 L 67.0,80.00313725490196 L 67.99686274509804,81.0 L 67.99686274509804,82.0 L 68.0,82.00313725490196 L 68.00313725490196,82.0 L 68.00313725490196,81.0 L 69.0,80.00313725490196 L 69.00313725490196,80.0 L 69.00313725490196,79.0 L 69.00313725490196,78.0 L 70.0,77.00313725490196 L 70.00313725490196,77.0 L 70.00313725490196,76.0 L 70.00313725490196,75.0 L 71.0,74.00313725490196 L 71.00313725490196,74.0 L 71.00313725490196,73.0 L 71.00313725490196,72.0 L 72.0,71.00313725490196 L 72.00313725490196,71.0 L 72.00313725490196,70.0 L 73.0,69.00313725490196 L 74.0,69.00313725490196 L 75.0,69.00313725490196 L 76.0,69.00313725490196 L 76.99686274509804,70.0 L 77.0,70.00313725490196 L 77.99686274509804,71.0 L 77.99686274509804,72.0 L 77.99686274509804,73.0 L 78.0,73.00313725490196 L 78.99686274509804,74.0 L 78.99686274509804,75.0 L 78.99686274509804,76.0 L 79.0,76.00313725490196 L 79.99686274509804,77.0 L 79.99686274509804,78.0 L 79.99686274509804,79.0 L 80.0,79.00313725490196 L 80.99686274509804,80.0 L 80.99686274509804,81.0 L 80.99686274509804,82.0 L 81.0,82.00313725490196 L 81.99686274509804,83.0 L 81.0,83.99686274509804 L 80.99686274509804,84.0 L 80.0,84.99686274509804 Z" fill="black" stroke="none" /><path d="M 92.0,84.99686274509804 L 91.0,84.99686274509804 L 90.00313725490196,84.0 L 90.0,83.99686274509804 L 89.00313725490196,83.0 L 89.00313725490196,82.0 L 89.0,81.99686274509804 L 88.00313725490196,81.0 L 88.00313725490196,80.0 L 88.0,79.99686274509804 L 87.00313725490196,79.0 L 87.0,78.99686274509804 L 86.0,78.99686274509804 L 85.99686274509804,79.0 L 85.99686274509804,80.0 L 85.99686274509804,81.0 L 85.99686274509804,82.0 L 85.99686274509804,83.0 L 85.0,83.99686274509804 L 84.99686274509804,84.0 L 84.0,84.99686274509804 L 83.00313725490196,84.0 L 83.0,83.99686274509804 L 82.00313725490196,83.0 L 82.00313725490196,82.0 L 82.00313725490196,81.0 L 82.00313725490196,80.0 L 82.00313725490196,79.0 L 82.00313725490196,78.0 L 82.00313725490196,77.0 L 82.00313725490196,76.0 L 82.00313725490196,75.0 L 82.00313725490196,74.0 L 82.00313725490196,73.0 L 82.00313725490196,72.0 L 82.00313725490196,71.0 L 82.00313725490196,70.0 L 83.0,69.00313725490196 L 84.0,69.00313725490196 L 85.0,69.00313725490196 L 86.0,69.00313725490196 L 87.0,69.00313725490196 L 88.0,69.00313725490196 L 89.0,69.00313725490196 L 90.0,69.00313725490196 L 90.99686274509804,70.0 L 91.0,70.00313725490196 L 91.99686274509804,71.0 L 92.0,71.00313725490196 L 92.99686274509804,72.0 L 92.99686274509804,73.0 L 92.99686274509804,74.0 L 92.99686274509804,75.0 L 92.0,75.99686274509804 L 91.99686274509804,76.0 L 91.0,76.99686274509804 L 90.99686274509804,77.0 L 90.99686274509804,78.0 L 91.0,78.00313725490196 L 91.99686274509804,79.0 L 91.99686274509804,80.0 L 92.0,80.00313725490196 L 92.99686274509804,81.0 L 92.99686274509804,82.0 L 92.99686274509804,83.0 L 92.99686274509804,84.0 L 92.0,84.99686274509804 Z" fill="black" stroke="none" /><path d="M 104.0,84.99686274509804 L 103.0,84.99686274509804 L 102.00313725490196,84.0 L 102.0,83.99686274509804 L 101.00313725490196,83.0 L 101.00313725490196,82.0 L 101.0,81.99686274509804 L 100.00313725490196,81.0 L 100.00313725490196,80.0 L 100.0,79.99686274509804 L 99.00313725490196,79.0 L 99.0,78.99686274509804 L 98.99686274509804,79.0 L 98.99686274509804,80.0 L 98.99686274509804,81.0 L 98.99686274509804,82.0 L 98.99686274509804,83.0 L 98.0,83.99686274509804 L 97.99686274509804,84.0 L 97.0,84.99686274509804 L 96.0,84.99686274509804 L 95.00313725490196,84.0 L 95.0,83.99686274509804 L 94.00313725490196,83.0 L 94.00313725490196,82.0 L 94.00313725490196,81.0 L 94.00313725490196,80.0 L 94.00313725490196,79.0 L 94.00313725490196,78.0 L 94.00313725490196,77.0 L 94.00313725490196,76.0 L 94.00313725490196,75.0 L 94.00313725490196,74.0 L 94.00313725490196,73.0 L 94.00313725490196,72.0 L 94.00313725490196,71.0 L 94.00313725490196,70.0 L 95.0,69.00313725490196 L 96.0,69.00313725490196 L 97.0,69.00313725490196 L 98.0,69.00313725490196 L 99.0,69.00313725490196 L 100.0,69.00313725490196 L 101.0,69.00313725490196 L 102.0,69.00313725490196 L 102.99686274509804,70.0 L 103.0,70.00313725490196 L 103.99686274509804,71.0 L 104.0,71.00313725490196 L 104.99686274509804,72.0 L 104.99686274509804,73.0 L 104.99686274509804,74.0 L 104.99686274509804,75.0 L 104.0,75.99686274509804 L 103.99686274509804,76.0 L 103.0,76.99686274509804 L 102.99686274509804,77.0 L 102.99686274509804,78.0 L 103.0,78.00313725490196 L 103.99686274509804,79.0 L 104.0,79.00313725490196 L 104.99686274509804,80.0 L 104.99686274509804,81.0 L 104.99686274509804,82.0 L 105.0,82.00313725490196 L 105.99686274509804,83.0 L 105.0,83.99686274509804 L 104.99686274509804,84.0 L 104.0,84.99686274509804 Z" fill="black" stroke="none" /><path d="M 109.0,84.99686274509804 L 108.0,84.99686274509804 L 107.00313725490196,84.0 L 107.0,83.99686274509804 L 106.00313725490196,83.0 L 106.00313725490196,82.0 L 106.00313725490196,81.0 L 106.00313725490196,80.0 L 106.00313725490196,79.0 L 106.00313725490196,78.0 L 106.00313725490196,77.0 L 106.00313725490196,76.0 L 106.00313725490196,75.0 L 106.00313725490196,74.0 L 106.00313725490196,73.0 L 106.00313725490196,72.0 L 106.00313725490196,71.0 L 107.0,70.00313725490196 L 107.00313725490196,70.0 L 108.0,69.00313725490196 L 109.0,69.00313725490196 L 110.0,69.00313725490196 L 110.99686274509804,70.0 L 110.99686274509804,71.0 L 110.99686274509804,72.0 L 110.99686274509804,73.0 L 110.99686274509804,74.0 L 110.99686274509804,75.0 L 110.99686274509804,76.0 L 110.99686274509804,77.0 L 110.99686274509804,78.0 L 110.99686274509804,79.0 L 110.99686274509804,80.0 L 110.99686274509804,81.0 L 110.99686274509804,82.0 L 110.99686274509804,83.0 L 110.0,83.99686274509804 L 109.99686274509804,84.0 L 109.0,84.99686274509804 Z" fill="black" stroke="none" /><path d="M 120.0,84.99686274509804 L 119.0,84.99686274509804 L 118.0,84.99686274509804 L 117.0,84.99686274509804 L 116.0,84.99686274509804 L 115.0,84.99686274509804 L 114.00313725490196,84.0 L 114.0,83.99686274509804 L 113.0,83.99686274509804 L 112.00313725490196,83.0 L 112.00313725490196,82.0 L 112.00313725490196,81.0 L 112.00313725490196,80.0 L 112.00313725490196,79.0 L 112.00313725490196,78.0 L 112.00313725490196,77.0 L 112.00313725490196,76.0 L 112.00313725490196,75.0 L 112.00313725490196,74.0 L 112.00313725490196,73.0 L 112.00313725490196,72.0 L 112.00313725490196,71.0 L 112.00313725490196,70.0 L 113.0,69.00313725490196 L 114.0,69.00313725490196 L 115.0,69.00313725490196 L 116.0,69.00313725490196 L 117.0,69.00313725490196 L 118.0,69.00313725490196 L 119.0,69.00313725490196 L 120.0,69.00313725490196 L 121.0,69.00313725490196 L 121.99686274509804,70.0 L 121.99686274509804,71.0 L 121.99686274509804,72.0 L 121.0,72.99686274509804 L 120.0,72.99686274509804 L 119.0,72.99686274509804 L 118.0,72.99686274509804 L 117.0,72.99686274509804 L 116.99686274509804,73.0 L 116.99686274509804,74.0 L 116.99686274509804,75.0 L 117.0,75.00313725490196 L 118.0,75.00313725490196 L 119.0,75.00313725490196 L 120.0,75.00313725490196 L 120.99686274509804,76.0 L 120.99686274509804,77.0 L 120.0,77.99686274509804 L 119.0,77.99686274509804 L 118.0,77.99686274509804 L 117.0,77.99686274509804 L 116.99686274509804,78.0 L 116.99686274509804,79.0 L 116.99686274509804,80.0 L 116.99686274509804,81.0 L 117.0,81.00313725490196 L 118.0,81.00313725490196 L 119.0,81.00313725490196 L 120.0,81.00313725490196 L 121.0,81.00313725490196 L 121.99686274509804,82.0 L 121.99686274509804,83.0 L 121.0,83.99686274509804 L 120.99686274509804,84.0 L 120.0,84.99686274509804 Z" fill="black" stroke="none" /><path d="M 133.0,84.99686274509804 L 132.0,84.99686274509804 L 131.00313725490196,84.0 L 131.0,83.99686274509804 L 130.00313725490196,83.0 L 130.00313725490196,82.0 L 130.0,81.99686274509804 L 129.00313725490196,81.0 L 129.00313725490196,80.0 L 129.0,79.99686274509804 L 128.00313725490196,79.0 L 128.0,78.99686274509804 L 127.0,78.99686274509804 L 126.99686274509804,79.0 L 126.99686274509804,80.0 L 126.99686274509804,81.0 L 126.99686274509804,82.0 L 126.99686274509804,83.0 L 126.0,83.99686274509804 L 125.99686274509804,84.0 L 125.0,84.99686274509804 L 124.00313725490196,84.0 L 124.0,83.99686274509804 L 123.00313725490196,83.0 L 123.00313725490196,82.0 L 123.00313725490196,81.0 L 123.00313725490196,80.0 L 123.00313725490196,79.0 L 123.00313725490196,78.0 L 123.00313725490196,77.0 L 123.00313725490196,76.0 L 123.00313725490196,75.0 L 123.00313725490196,74.0 L 123.00313725490196,73.0 L 123.00313725490196,72.0 L 123.00313725490196,71.0 L 123.00313725490196,70.0 L 124.0,69.00313725490196 L 125.0,69.00313725490196 L 126.0,69.00313725490196 L 127.0,69.00313725490196 L 128.0,69.00313725490196 L 129.0,69.00313725490196 L 130.0,69.00313725490196 L 131.0,69.00313725490196 L 131.99686274509804,70.0 L 132.0,70.00313725490196 L 132.99686274509804,71.0 L 132.99686274509804,72.0 L 133.0,72.00313725490196 L 133.99686274509804,73.0 L 133.99686274509804,74.0 L 133.99686274509804,75.0 L 133.0,75.99686274509804 L 132.99686274509804,76.0 L 132.0,76.99686274509804 L 131.99686274509804,77.0 L 131.99686274509804,78.0 L 132.0,78.00313725490196 L 132.99686274509804,79.0 L 132.99686274509804,80.0 L 133.0,80.00313725490196 L 133.99686274509804,81.0 L 133.99686274509804,82.0 L 133.99686274509804,83.0 L 133.99686274509804,84.0 L 133.0,84.99686274509804 Z" fill="black" stroke="none" /><path d="M 148.0,84.99686274509804 L 147.0,84.99686274509804 L 146.0,84.99686274509804 L 145.0,84.99686274509804 L 144.00313725490196,84.0 L 144.0,83.99686274509804 L 143.0,83.99686274509804 L 142.00313725490196,83.0 L 142.0,82.99686274509804 L 141.00313725490196,82.0 L 141.0,81.99686274509804 L 140.00313725490196,81.0 L 140.00313725490196,80.0 L 140.00313725490196,79.0 L 140.0,78.99686274509804 L 139.00313725490196,78.0 L 139.00313725490196,77.0 L 139.00313725490196,76.0 L 140.0,75.00313725490196 L 140.00313725490196,75.0 L 140.00313725490196,74.0 L 140.00313725490196,73.0 L 141.0,72.00313725490196 L 141.00313725490196,72.0 L 142.0,71.00313725490196 L 142.00313725490196,71.0 L 143.0,70.00313725490196 L 143.00313725490196,70.0 L 144.0,69.00313725490196 L 145.0,69.00313725490196 L 146.0,69.00313725490196 L 147.0,69.00313725490196 L 148.0,69.00313725490196 L 149.0,69.00313725490196 L 150.0,69.00313725490196 L 150.99686274509804,70.0 L 151.0,70.00313725490196 L 151.99686274509804,71.0 L 152.0,71.00313725490196 L 152.99686274509804,72.0 L 152.99686274509804,73.0 L 153.0,73.00313725490196 L 153.99686274509804,74.0 L 153.99686274509804,75.0 L 153.99686274509804,76.0 L 153.99686274509804,77.0 L 153.99686274509804,78.0 L 153.99686274509804,79.0 L 153.0,79.99686274509804 L 152.99686274509804,80.0 L 152.99686274509804,81.0 L 152.0,81.99686274509804 L 151.99686274509804,82.0 L 151.0,82.99686274509804 L 150.99686274509804,83.0 L 150.0,83.99686274509804 L 149.0,83.99686274509804 L 148.99686274509804,84.0 L 148.0,84.99686274509804 Z" fill="black" stroke="none" /><path d="M 157.0,84.99686274509804 L 156.00313725490196,84.0 L 156.0,83.99686274509804 L 155.00313725490196,83.0 L 155.00313725490196,82.0 L 155.00313725490196,81.0 L 155.00313725490196,80.0 L 155.00313725490196,79.0 L 155.00313725490196,78.0 L 155.00313725490196,77.0 L 155.00313725490196,76.0 L 155.00313725490196,75.0 L 155.00313725490196,74.0 L 155.00313725490196,73.0 L 155.00313725490196,72.0 L 155.00313725490196,71.0 L 155.00313725490196,70.0 L 156.0,69.00313725490196 L 157.0,69.00313725490196 L 158.0,69.00313725490196 L 158.99686274509804,70.0 L 158.99686274509804,71.0 L 158.99686274509804,72.0 L 158.99686274509804,73.0 L 158.99686274509804,74.0 L 158.99686274509804,75.0 L 158.99686274509804,76.0 L 158.99686274509804,77.0 L 158.99686274509804,78.0 L 158.99686274509804,79.0 L 158.99686274509804,80.0 L 158.99686274509804,81.0 L 158.99686274509804,82.0 L 158.99686274509804,83.0 L 158.0,83.99686274509804 L 157.99686274509804,84.0 L 157.0,84.99686274509804 Z" fill="black" stroke="none" /><path d="M 175.0,84.99686274509804 L 174.0,84.99686274509804 L 173.0,84.99686274509804 L 172.0,84.99686274509804 L 171.00313725490196,84.0 L 171.0,83.99686274509804 L 170.0,83.99686274509804 L 169.0,83.99686274509804 L 168.99686274509804,84.0 L 168.0,84.99686274509804 L 167.0,84.99686274509804 L 166.0,84.99686274509804 L 165.0,84.99686274509804 L 164.0,84.99686274509804 L 163.0,84.99686274509804 L 162.00313725490196,84.0 L 162.0,83.99686274509804 L 161.00313725490196,83.0 L 161.00313725490196,82.0 L 161.00313725490196,81.0 L 161.00313725490196,80.0 L 161.00313725490196,79.0 L 161.00313725490196,78.0 L 161.00313725490196,77.0 L 161.00313725490196,76.0 L 161.00313725490196,75.0 L 161.00313725490196,74.0 L 161.00313725490196,73.0 L 161.00313725490196,72.0 L 161.00313725490196,71.0 L 161.00313725490196,70.0 L 162.0,69.00313725490196 L 163.0,69.00313725490196 L 164.0,69.00313725490196 L 164.99686274509804,70.0 L 164.99686274509804,71.0 L 164.99686274509804,72.0 L 164.99686274509804,73.0 L 164.99686274509804,74.0 L 164.99686274509804,75.0 L 164.99686274509804,76.0 L 164.99686274509804,77.0 L 164.99686274509804,78.0 L 164.99686274509804,79.0 L 164.99686274509804,80.0 L 164.99686274509804,81.0 L 165.0,81.00313725490196 L 166.0,81.00313725490196 L 167.0,81.00313725490196 L 168.0,81.00313725490196 L 169.0,81.00313725490196 L 169.00313725490196,81.0 L 170.0,80.00313725490196 L 171.0,80.00313725490196 L 171.99686274509804,81.0 L 172.0,81.00313725490196 L 173.0,81.00313725490196 L 174.0,81.00313725490196 L 175.0,81.00313725490196 L 175.00313725490196,81.0 L 175.00313725490196,80.0 L 175.00313725490196,79.0 L 175.0,78.99686274509804 L 174.0,78.99686274509804 L 173.00313725490196,78.0 L 173.0,77.99686274509804 L 172.0,77.99686274509804 L 171.00313725490196,77.0 L 171.0,76.99686274509804 L 170.00313725490196,76.0 L 170.0,75.99686274509804 L 169.00313725490196,75.0 L 169.00313725490196,74.0 L 169.00313725490196,73.0 L 170.0,72.00313725490196 L 170.00313725490196,72.0 L 170.00313725490196,71.0 L 171.0,70.00313725490196 L 171.00313725490196,70.0 L 172.0,69.00313725490196 L 173.0,69.00313725490196 L 174.0,69.00313725490196 L 175.0,69.00313725490196 L 176.0,69.00313725490196 L 177.0,69.00313725490196 L 177.99686274509804,70.0 L 178.0,70.00313725490196 L 178.99686274509804,71.0 L 178.99686274509804,72.0 L 178.0,72.99686274509804 L 177.0,72.99686274509804 L 176.0,72.99686274509804 L 175.0,72.99686274509804 L 174.0,72.99686274509804 L 173.99686274509804,73.0 L 173.99686274509804,74.0 L 174.0,74.00313725490196 L 174.99686274509804,75.0 L 175.0,75.00313725490196 L 176.0,75.00313725490196 L 176.99686274509804,76.0 L 177.0,76.00313725490196 L 178.0,76.00313725490196 L 178.99686274509804,77.0 L 178.99686274509804,78.0 L 179.0,78.00313725490196 L 179.99686274509804,79.0 L 179.99686274509804,80.0 L 179.0,80.99686274509804 L 178.99686274509804,81.0 L 178.99686274509804,82.0 L 178.0,82.99686274509804 L 177.99686274509804,83.0 L 177.0,83.99686274509804 L 176.0,83.99686274509804 L 175.99686274509804,84.0 L 175.0,84.99686274509804 Z" fill="black" stroke="none" /><path d="M 27.0,73.99686274509804 L 26.00313725490196,73.0 L 27.0,72.00313725490196 L 27.99686274509804,73.0 L 27.0,73.99686274509804 Z" fill="black" stroke="none" /><path d="M 88.00313725490196,75.0 L 88.00313725490196,74.0 L 88.00313725490196,73.0 L 88.0,72.99686274509804 L 87.0,72.99686274509804 L 86.0,72.99686274509804 L 85.99686274509804,73.0 L 85.99686274509804,74.0 L 85.99686274509804,75.0 L 86.0,75.00313725490196 L 87.0,75.00313725490196 L 88.0,75.00313725490196 L 88.00313725490196,75.0 Z" fill="black" stroke="none" /><path d="M 100.00313725490196,75.0 L 101.0,74.00313725490196 L 101.00313725490196,74.0 L 101.00313725490196,73.0 L 101.0,72.99686274509804 L 100.0,72.99686274509804 L 99.0,72.99686274509804 L 98.99686274509804,73.0 L 98.99686274509804,74.0 L 98.99686274509804,75.0 L 99.0,75.00313725490196 L 100.0,75.00313725490196 L 100.00313725490196,75.0 Z" fill="black" stroke="none" /><path d="M 129.00313725490196,75.0 L 129.00313725490196,74.0 L 129.00313725490196,73.0 L 129.0,72.99686274509804 L 128.0,72.99686274509804 L 127.0,72.99686274509804 L 126.99686274509804,73.0 L 126.99686274509804,74.0 L 126.99686274509804,75.0 L 127.0,75.00313725490196 L 128.0,75.00313725490196 L 129.0,75.00313725490196 L 129.00313725490196,75.0 Z" fill="black" stroke="none" /><path d="M 148.00313725490196,81.0 L 149.0,80.00313725490196 L 149.00313725490196,80.0 L 149.00313725490196,79.0 L 149.00313725490196,78.0 L 150.0,77.00313725490196 L 150.00313725490196,77.0 L 150.0,76.99686274509804 L 149.00313725490196,76.0 L 149.00313725490196,75.0 L 149.00313725490196,74.0 L 149.0,73.99686274509804 L 148.00313725490196,73.0 L 148.0,72.99686274509804 L 147.0,72.99686274509804 L 146.0,72.99686274509804 L 145.0,72.99686274509804 L 144.99686274509804,73.0 L 144.0,73.99686274509804 L 143.99686274509804,74.0 L 143.99686274509804,75.0 L 143.99686274509804,76.0 L 143.99686274509804,77.0 L 143.99686274509804,78.0 L 143.99686274509804,79.0 L 143.99686274509804,80.0 L 144.0,80.00313725490196 L 144.99686274509804,81.0 L 145.0,81.00313725490196 L 146.0,81.00313725490196 L 147.0,81.00313725490196 L 148.0,81.00313725490196 L 148.00313725490196,81.0 Z" fill="black" stroke="none" /><path d="M 29.0,95.99686274509804 L 28.0,95.99686274509804 L 27.0,95.99686274509804 L 26.0,95.99686274509804 L 25.0,95.99686274509804 L 24.00313725490196,95.0 L 24.0,94.99686274509804 L 23.0,94.99686274509804 L 22.00313725490196,94.0 L 22.0,93.99686274509804 L 21.00313725490196,93.0 L 21.0,92.99686274509804 L 20.00313725490196,92.0 L 20.0,91.99686274509804 L 19.00313725490196,91.0 L 19.00313725490196,90.0 L 19.0,89.99686274509804 L 18.00313725490196,89.0 L 18.00313725490196,88.0 L 18.00313725490196,87.0 L 18.00313725490196,86.0 L 18.00313725490196,85.0 L 18.00313725490196,84.0 L 18.00313725490196,83.0 L 18.00313725490196,82.0 L 18.00313725490196,81.0 L 18.00313725490196,80.0 L 18.00313725490196,79.0 L 18.00313725490196,78.0 L 18.00313725490196,77.0 L 18.00313725490196,76.0 L 18.00313725490196,75.0 L 18.00313725490196,74.0 L 19.0,73.00313725490196 L 19.99686274509804,74.0 L 19.99686274509804,75.0 L 19.99686274509804,76.0 L 19.99686274509804,77.0 L 19.99686274509804,78.0 L 19.99686274509804,79.0 L 19.99686274509804,80.0 L 19.99686274509804,81.0 L 19.99686274509804,82.0 L 19.99686274509804,83.0 L 19.99686274509804,84.0 L 19.99686274509804,85.0 L 19.99686274509804,86.0 L 19.99686274509804,87.0 L 19.99686274509804,88.0 L 20.0,88.00313725490196 L 20.99686274509804,89.0 L 20.99686274509804,90.0 L 21.0,90.00313725490196 L 21.99686274509804,91.0 L 22.0,91.00313725490196 L 22.99686274509804,92.0 L 23.0,92.00313725490196 L 24.0,92.00313725490196 L 24.99686274509804,93.0 L 25.0,93.00313725490196 L 26.0,93.00313725490196 L 27.0,93.00313725490196 L 28.0,93.00313725490196 L 29.0,93.00313725490196 L 30.0,93.00313725490196 L 30.00313725490196,93.0 L 31.0,92.00313725490196 L 31.00313725490196,92.0 L 32.0,91.00313725490196 L 32.00313725490196,91.0 L 33.0,90.00313725490196 L 33.00313725490196,90.0 L 34.0,89.00313725490196 L 34.00313725490196,89.0 L 34.00313725490196,88.0 L 34.00313725490196,87.0 L 34.00313725490196,86.0 L 34.00313725490196,85.0 L 34.00313725490196,84.0 L 34.00313725490196,83.0 L 34.00313725490196,82.0 L 34.00313725490196,81.0 L 34.00313725490196,80.0 L 34.0,79.99686274509804 L 33.99686274509804,80.0 L 33.0,80.99686274509804 L 32.99686274509804,81.0 L 32.0,81.99686274509804 L 31.0,81.99686274509804 L 30.99686274509804,82.0 L 30.0,82.99686274509804 L 29.0,82.99686274509804 L 28.99686274509804,83.0 L 28.0,83.99686274509804 L 27.99686274509804,84.0 L 27.0,84.99686274509804 L 26.99686274509804,85.0 L 26.0,85.99686274509804 L 25.99686274509804,86.0 L 25.99686274509804,87.0 L 25.99686274509804,88.0 L 25.99686274509804,89.0 L 26.0,89.00313725490196 L 27.0,89.00313725490196 L 27.00313725490196,89.0 L 28.0,88.00313725490196 L 29.0,88.00313725490196 L 29.00313725490196,88.0 L 30.0,87.00313725490196 L 30.00313725490196,87.0 L 31.0,86.00313725490196 L 31.99686274509804,87.0 L 31.99686274509804,88.0 L 31.0,88.99686274509804 L 30.99686274509804,89.0 L 30.0,89.99686274509804 L 29.0,89.99686274509804 L 28.99686274509804,90.0 L 28.0,90.99686274509804 L 27.99686274509804,91.0 L 27.0,91.99686274509804 L 26.0,91.99686274509804 L 25.0,91.99686274509804 L 24.0,91.99686274509804 L 23.00313725490196,91.0 L 23.00313725490196,90.0 L 23.00313725490196,89.0 L 23.00313725490196,88.0 L 23.00313725490196,87.0 L 24.0,86.00313725490196 L 24.00313725490196,86.0 L 24.00313725490196,85.0 L 24.00313725490196,84.0 L 25.0,83.00313725490196 L 25.00313725490196,83.0 L 26.0,82.00313725490196 L 27.0,82.00313725490196 L 27.00313725490196,82.0 L 28.0,81.00313725490196 L 29.0,81.00313725490196 L 29.00313725490196,81.0 L 30.0,80.00313725490196 L 30.00313725490196,80.0 L 31.0,79.00313725490196 L 32.0,79.00313725490196 L 32.00313725490196,79.0 L 33.0,78.00313725490196 L 33.00313725490196,78.0 L 33.00313725490196,77.0 L 34.0,76.00313725490196 L 34.00313725490196,76.0 L 35.0,75.00313725490196 L 35.00313725490196,75.0 L 36.0,74.00313725490196 L 36.99686274509804,75.0 L 36.99686274509804,76.0 L 36.99686274509804,77.0 L 36.99686274509804,78.0 L 36.99686274509804,79.0 L 36.99686274509804,80.0 L 36.99686274509804,81.0 L 36.99686274509804,82.0 L 36.99686274509804,83.0 L 36.99686274509804,84.0 L 36.99686274509804,85.0 L 36.99686274509804,86.0 L 36.99686274509804,87.0 L 36.99686274509804,88.0 L 36.0,88.99686274509804 L 35.99686274509804,89.0 L 35.99686274509804,90.0 L 35.0,90.99686274509804 L 34.99686274509804,91.0 L 34.99686274509804,92.0 L 34.0,92.99686274509804 L 33.99686274509804,93.0 L 33.0,93.99686274509804 L 32.0,93.99686274509804 L 31.99686274509804,94.0 L 31.0,94.99686274509804 L 30.0,94.99686274509804 L 29.99686274509804,95.0 L 29.0,95.99686274509804 Z" fill="black" stroke="none" /><path d="M 75.00313725490196,78.0 L 75.00313725490196,77.0 L 75.00313725490196,76.0 L 75.0,75.99686274509804 L 74.00313725490196,75.0 L 74.0,74.99686274509804 L 73.99686274509804,75.0 L 73.99686274509804,76.0 L 73.99686274509804,77.0 L 73.0,77.99686274509804 L 72.99686274509804,78.0 L 73.0,78.00313725490196 L 74.0,78.00313725490196 L 75.0,78.00313725490196 L 75.00313725490196,78.0 Z" fill="black" stroke="none" /><path d="M 252.00313725490196,83.0 L 252.0,82.99686274509804 L 251.99686274509804,83.0 L 252.0,83.00313725490196 L 252.00313725490196,83.0 Z" fill="black" stroke="none" /><path d="M 32.0,86.99686274509804 L 31.00313725490196,86.0 L 31.00313725490196,85.0 L 32.0,84.00313725490196 L 32.99686274509804,85.0 L 32.99686274509804,86.0 L 32.0,86.99686274509804 Z" fill="black" stroke="none" /><path d="M 15.0,91.99686274509804 L 14.0,91.99686274509804 L 13.0,91.99686274509804 L 12.003137254901961,91.0 L 12.003137254901961,90.0 L 12.003137254901961,89.0 L 12.003137254901961,88.0 L 12.003137254901961,87.0 L 12.003137254901961,86.0 L 13.0,85.00313725490196 L 14.0,85.00313725490196 L 14.996862745098039,86.0 L 15.0,86.00313725490196 L 15.996862745098039,87.0 L 15.996862745098039,88.0 L 15.996862745098039,89.0 L 15.996862745098039,90.0 L 15.996862745098039,91.0 L 15.0,91.99686274509804 Z" fill="black" stroke="none" /><path d="M 253.00313725490196,86.0 L 253.0,85.99686274509804 L 252.99686274509804,86.0 L 253.0,86.00313725490196 L 253.00313725490196,86.0 Z" fill="black" stroke="none" /><path d="M 254.00313725490196,90.0 L 254.00313725490196,89.0 L 254.0,88.99686274509804 L 253.99686274509804,89.0 L 253.99686274509804,90.0 L 254.0,90.00313725490196 L 254.00313725490196,90.0 Z" fill="black" stroke="none" /><path d="M 255.00313725490196,95.0 L 255.00313725490196,94.0 L 255.00313725490196,93.0 L 255.0,92.99686274509804 L 254.99686274509804,93.0 L 254.99686274509804,94.0 L 254.99686274509804,95.0 L 255.0,95.00313725490196 L 255.00313725490196,95.0 Z" fill="black" stroke="none" /><path d="M 33.0,107.99686274509804 L 32.0,107.99686274509804 L 31.0,107.99686274509804 L 30.0,107.99686274509804 L 29.00313725490196,107.0 L 29.0,106.99686274509804 L 28.0,106.99686274509804 L 27.0,106.99686274509804 L 26.0,106.99686274509804 L 25.00313725490196,106.0 L 25.0,105.99686274509804 L 24.0,105.99686274509804 L 23.00313725490196,105.0 L 23.0,104.99686274509804 L 22.0,104.99686274509804 L 21.00313725490196,104.0 L 21.0,103.99686274509804 L 20.00313725490196,103.0 L 20.0,102.99686274509804 L 19.00313725490196,102.0 L 19.0,101.99686274509804 L 18.00313725490196,101.0 L 18.0,100.99686274509804 L 17.00313725490196,100.0 L 17.0,99.99686274509804 L 16.00313725490196,99.0 L 16.0,98.99686274509804 L 15.003137254901961,98.0 L 15.003137254901961,97.0 L 15.0,96.99686274509804 L 14.003137254901961,96.0 L 14.003137254901961,95.0 L 14.003137254901961,94.0 L 15.0,93.00313725490196 L 16.0,93.00313725490196 L 16.99686274509804,94.0 L 17.0,94.00313725490196 L 17.99686274509804,95.0 L 17.99686274509804,96.0 L 18.0,96.00313725490196 L 18.99686274509804,97.0 L 19.0,97.00313725490196 L 19.99686274509804,98.0 L 20.0,98.00313725490196 L 20.99686274509804,99.0 L 21.0,99.00313725490196 L 21.99686274509804,100.0 L 22.0,100.00313725490196 L 22.99686274509804,101.0 L 23.0,101.00313725490196 L 24.0,101.00313725490196 L 24.99686274509804,102.0 L 25.0,102.00313725490196 L 26.0,102.00313725490196 L 26.99686274509804,103.0 L 27.0,103.00313725490196 L 28.0,103.00313725490196 L 28.99686274509804,104.0 L 29.0,104.00313725490196 L 30.0,104.00313725490196 L 31.0,104.00313725490196 L 32.0,104.00313725490196 L 33.0,104.00313725490196 L 33.99686274509804,105.0 L 33.99686274509804,106.0 L 33.99686274509804,107.0 L 33.0,107.99686274509804 Z" fill="black" stroke="none" /><path d="M 65.0,110.99686274509804 L 64.0,110.99686274509804 L 63.0,110.99686274509804 L 62.0,110.99686274509804 L 61.0,110.99686274509804 L 60.0,110.99686274509804 L 59.00313725490196,110.0 L 59.0,109.99686274509804 L 58.00313725490196,109.0 L 58.0,108.99686274509804 L 57.00313725490196,108.0 L 57.00313725490196,107.0 L 57.0,106.99686274509804 L 56.00313725490196,106.0 L 56.00313725490196,105.0 L 56.00313725490196,104.0 L 56.00313725490196,103.0 L 56.00313725490196,102.0 L 56.00313725490196,101.0 L 56.00313725490196,100.0 L 56.00313725490196,99.0 L 56.00313725490196,98.0 L 56.00313725490196,97.0 L 57.0,96.00313725490196 L 58.0,96.00313725490196 L 59.0,96.00313725490196 L 59.99686274509804,97.0 L 59.99686274509804,98.0 L 59.99686274509804,99.0 L 59.99686274509804,100.0 L 59.99686274509804,101.0 L 59.99686274509804,102.0 L 59.99686274509804,103.0 L 59.99686274509804,104.0 L 59.99686274509804,105.0 L 60.0,105.00313725490196 L 60.99686274509804,106.0 L 60.99686274509804,107.0 L 61.0,107.00313725490196 L 61.99686274509804,108.0 L 62.0,108.00313725490196 L 63.0,108.00313725490196 L 63.00313725490196,108.0 L 64.0,107.00313725490196 L 64.00313725490196,107.0 L 65.0,106.00313725490196 L 65.00313725490196,106.0 L 65.00313725490196,105.0 L 65.00313725490196,104.0 L 65.00313725490196,103.0 L 65.00313725490196,102.0 L 65.00313725490196,101.0 L 65.00313725490196,100.0 L 65.00313725490196,99.0 L 65.00313725490196,98.0 L 65.00313725490196,97.0 L 66.0,96.00313725490196 L 67.0,96.00313725490196 L 68.0,96.00313725490196 L 68.99686274509804,97.0 L 68.99686274509804,98.0 L 68.99686274509804,99.0 L 68.99686274509804,100.0 L 68.99686274509804,101.0 L 68.99686274509804,102.0 L 68.99686274509804,103.0 L 68.99686274509804,104.0 L 68.99686274509804,105.0 L 68.99686274509804,106.0 L 68.99686274509804,107.0 L 68.0,107.99686274509804 L 67.99686274509804,108.0 L 67.99686274509804,109.0 L 67.0,109.99686274509804 L 66.0,109.99686274509804 L 65.99686274509804,110.0 L 65.0,110.99686274509804 Z" fill="black" stroke="none" /><path d="M 76.0,110.99686274509804 L 75.0,110.99686274509804 L 74.0,110.99686274509804 L 73.00313725490196,110.0 L 73.00313725490196,109.0 L 73.00313725490196,108.0 L 73.00313725490196,107.0 L 73.00313725490196,106.0 L 73.00313725490196,105.0 L 73.00313725490196,104.0 L 73.00313725490196,103.0 L 73.00313725490196,102.0 L 73.00313725490196,101.0 L 73.00313725490196,100.0 L 73.00313725490196,99.0 L 73.0,98.99686274509804 L 72.0,98.99686274509804 L 71.0,98.99686274509804 L 70.0,98.99686274509804 L 69.00313725490196,98.0 L 69.00313725490196,97.0 L 70.0,96.00313725490196 L 71.0,96.00313725490196 L 72.0,96.00313725490196 L 73.0,96.00313725490196 L 74.0,96.00313725490196 L 75.0,96.00313725490196 L 76.0,96.00313725490196 L 77.0,96.00313725490196 L 78.0,96.00313725490196 L 79.0,96.00313725490196 L 80.0,96.00313725490196 L 80.99686274509804,97.0 L 80.99686274509804,98.0 L 80.0,98.99686274509804 L 79.0,98.99686274509804 L 78.0,98.99686274509804 L 77.0,98.99686274509804 L 76.99686274509804,99.0 L 76.99686274509804,100.0 L 76.99686274509804,101.0 L 76.99686274509804,102.0 L 76.99686274509804,103.0 L 76.99686274509804,104.0 L 76.99686274509804,105.0 L 76.99686274509804,106.0 L 76.99686274509804,107.0 L 76.99686274509804,108.0 L 76.99686274509804,109.0 L 76.99686274509804,110.0 L 76.0,110.99686274509804 Z" fill="black" stroke="none" /><path d="M 91.0,110.99686274509804 L 90.0,110.99686274509804 L 89.0,110.99686274509804 L 88.00313725490196,110.0 L 88.00313725490196,109.0 L 88.0,108.99686274509804 L 87.00313725490196,108.0 L 87.0,107.99686274509804 L 86.0,107.99686274509804 L 85.0,107.99686274509804 L 84.0,107.99686274509804 L 83.0,107.99686274509804 L 82.99686274509804,108.0 L 82.99686274509804,109.0 L 82.0,109.99686274509804 L 81.99686274509804,110.0 L 81.0,110.99686274509804 L 80.0,110.99686274509804 L 79.00313725490196,110.0 L 79.00313725490196,109.0 L 79.00313725490196,108.0 L 79.00313725490196,107.0 L 80.0,106.00313725490196 L 80.00313725490196,106.0 L 80.00313725490196,105.0 L 80.00313725490196,104.0 L 81.0,103.00313725490196 L 81.00313725490196,103.0 L 81.00313725490196,102.0 L 81.00313725490196,101.0 L 82.0,100.00313725490196 L 82.00313725490196,100.0 L 82.00313725490196,99.0 L 82.00313725490196,98.0 L 83.0,97.00313725490196 L 83.00313725490196,97.0 L 84.0,96.00313725490196 L 85.0,96.00313725490196 L 86.0,96.00313725490196 L 87.0,96.00313725490196 L 87.99686274509804,97.0 L 87.99686274509804,98.0 L 88.0,98.00313725490196 L 88.99686274509804,99.0 L 88.99686274509804,100.0 L 88.99686274509804,101.0 L 89.0,101.00313725490196 L 89.99686274509804,102.0 L 89.99686274509804,103.0 L 89.99686274509804,104.0 L 90.0,104.00313725490196 L 90.99686274509804,105.0 L 90.99686274509804,106.0 L 90.99686274509804,107.0 L 91.0,107.00313725490196 L 91.99686274509804,108.0 L 91.99686274509804,109.0 L 91.99686274509804,110.0 L 91.0,110.99686274509804 Z" fill="black" stroke="none" /><path d="M 109.0,110.99686274509804 L 108.0,110.99686274509804 L 107.0,110.99686274509804 L 106.00313725490196,110.0 L 106.00313725490196,109.0 L 106.00313725490196,108.0 L 106.00313725490196,107.0 L 106.00313725490196,106.0 L 106.00313725490196,105.0 L 106.00313725490196,104.0 L 106.00313725490196,103.0 L 106.00313725490196,102.0 L 106.0,101.99686274509804 L 105.99686274509804,102.0 L 105.99686274509804,103.0 L 105.99686274509804,104.0 L 105.0,104.99686274509804 L 104.99686274509804,105.0 L 104.99686274509804,106.0 L 104.0,106.99686274509804 L 103.99686274509804,107.0 L 103.99686274509804,108.0 L 103.99686274509804,109.0 L 103.0,109.99686274509804 L 102.99686274509804,110.0 L 102.0,110.99686274509804 L 101.0,110.99686274509804 L 100.0,110.99686274509804 L 99.00313725490196,110.0 L 99.00313725490196,109.0 L 99.00313725490196,108.0 L 99.0,107.99686274509804 L 98.00313725490196,107.0 L 98.00313725490196,106.0 L 98.00313725490196,105.0 L 98.0,104.99686274509804 L 97.00313725490196,104.0 L 97.00313725490196,103.0 L 97.00313725490196,102.0 L 97.0,101.99686274509804 L 96.99686274509804,102.0 L 96.99686274509804,103.0 L 96.99686274509804,104.0 L 96.99686274509804,105.0 L 96.99686274509804,106.0 L 96.99686274509804,107.0 L 96.99686274509804,108.0 L 96.99686274509804,109.0 L 96.99686274509804,110.0 L 96.0,110.99686274509804 L 95.0,110.99686274509804 L 94.0,110.99686274509804 L 93.00313725490196,110.0 L 93.00313725490196,109.0 L 93.00313725490196,108.0 L 93.00313725490196,107.0 L 93.00313725490196,106.0 L 93.00313725490196,105.0 L 93.00313725490196,104.0 L 93.00313725490196,103.0 L 93.00313725490196,102.0 L 93.00313725490196,101.0 L 93.00313725490196,100.0 L 93.00313725490196,99.0 L 93.00313725490196,98.0 L 93.00313725490196,97.0 L 94.0,96.00313725490196 L 95.0,96.00313725490196 L 96.0,96.00313725490196 L 97.0,96.00313725490196 L 98.0,96.00313725490196 L 98.99686274509804,97.0 L 98.99686274509804,98.0 L 99.0,98.00313725490196 L 99.99686274509804,99.0 L 99.99686274509804,100.0 L 99.99686274509804,101.0 L 100.0,101.00313725490196 L 100.99686274509804,102.0 L 100.99686274509804,103.0 L 100.99686274509804,104.0 L 101.0,104.00313725490196 L 102.0,104.00313725490196 L 102.00313725490196,104.0 L 102.00313725490196,103.0 L 102.00313725490196,102.0 L 103.0,101.00313725490196 L 103.00313725490196,101.0 L 103.00313725490196,100.0 L 104.0,99.00313725490196 L 104.00313725490196,99.0 L 104.00313725490196,98.0 L 104.00313725490196,97.0 L 105.0,96.00313725490196 L 106.0,96.00313725490196 L 107.0,96.00313725490196 L 108.0,96.00313725490196 L 109.0,96.00313725490196 L 109.99686274509804,97.0 L 109.99686274509804,98.0 L 109.99686274509804,99.0 L 109.99686274509804,100.0 L 109.99686274509804,101.0 L 109.99686274509804,102.0 L 109.99686274509804,103.0 L 109.99686274509804,104.0 L 109.99686274509804,105.0 L 109.99686274509804,106.0 L 109.99686274509804,107.0 L 109.99686274509804,108.0 L 109.99686274509804,109.0 L 109.99686274509804,110.0 L 109.0,110.99686274509804 Z" fill="black" stroke="none" /><path d="M 123.0,110.99686274509804 L 122.0,110.99686274509804 L 121.0,110.99686274509804 L 120.00313725490196,110.0 L 120.00313725490196,109.0 L 120.00313725490196,108.0 L 120.0,107.99686274509804 L 119.0,107.99686274509804 L 118.0,107.99686274509804 L 117.0,107.99686274509804 L 116.0,107.99686274509804 L 115.0,107.99686274509804 L 114.99686274509804,108.0 L 114.99686274509804,109.0 L 114.0,109.99686274509804 L 113.99686274509804,110.0 L 113.0,110.99686274509804 L 112.0,110.99686274509804 L 111.00313725490196,110.0 L 111.00313725490196,109.0 L 111.00313725490196,108.0 L 111.00313725490196,107.0 L 112.0,106.00313725490196 L 112.00313725490196,106.0 L 112.00313725490196,105.0 L 112.00313725490196,104.0 L 113.0,103.00313725490196 L 113.00313725490196,103.0 L 113.00313725490196,102.0 L 113.00313725490196,101.0 L 114.0,100.00313725490196 L 114.00313725490196,100.0 L 114.00313725490196,99.0 L 115.0,98.00313725490196 L 115.00313725490196,98.0 L 115.00313725490196,97.0 L 116.0,96.00313725490196 L 117.0,96.00313725490196 L 118.0,96.00313725490196 L 119.0,96.00313725490196 L 119.99686274509804,97.0 L 120.0,97.00313725490196 L 120.99686274509804,98.0 L 120.99686274509804,99.0 L 120.99686274509804,100.0 L 121.0,100.00313725490196 L 121.99686274509804,101.0 L 121.99686274509804,102.0 L 121.99686274509804,103.0 L 122.0,103.00313725490196 L 122.99686274509804,104.0 L 122.99686274509804,105.0 L 122.99686274509804,106.0 L 123.0,106.00313725490196 L 123.99686274509804,107.0 L 123.99686274509804,108.0 L 123.99686274509804,109.0 L 123.99686274509804,110.0 L 123.0,110.99686274509804 Z" fill="black" stroke="none" /><path d="M 144.0,110.99686274509804 L 143.0,110.99686274509804 L 142.0,110.99686274509804 L 141.00313725490196,110.0 L 141.0,109.99686274509804 L 140.00313725490196,109.0 L 140.00313725490196,108.0 L 140.00313725490196,107.0 L 140.0,106.99686274509804 L 139.00313725490196,106.0 L 139.00313725490196,105.0 L 139.00313725490196,104.0 L 139.00313725490196,103.0 L 139.0,102.99686274509804 L 138.99686274509804,103.0 L 138.99686274509804,104.0 L 138.0,104.99686274509804 L 137.99686274509804,105.0 L 137.99686274509804,106.0 L 137.99686274509804,107.0 L 137.99686274509804,108.0 L 137.99686274509804,109.0 L 137.0,109.99686274509804 L 136.99686274509804,110.0 L 136.0,110.99686274509804 L 135.0,110.99686274509804 L 134.0,110.99686274509804 L 133.0,110.99686274509804 L 132.00313725490196,110.0 L 132.00313725490196,109.0 L 132.00313725490196,108.0 L 132.0,107.99686274509804 L 131.00313725490196,107.0 L 131.00313725490196,106.0 L 131.00313725490196,105.0 L 131.00313725490196,104.0 L 131.0,103.99686274509804 L 130.00313725490196,103.0 L 130.00313725490196,102.0 L 130.00313725490196,101.0 L 130.00313725490196,100.0 L 130.0,99.99686274509804 L 129.00313725490196,99.0 L 129.00313725490196,98.0 L 129.00313725490196,97.0 L 130.0,96.00313725490196 L 131.0,96.00313725490196 L 132.0,96.00313725490196 L 132.99686274509804,97.0 L 132.99686274509804,98.0 L 132.99686274509804,99.0 L 133.0,99.00313725490196 L 133.99686274509804,100.0 L 133.99686274509804,101.0 L 133.99686274509804,102.0 L 133.99686274509804,103.0 L 134.0,103.00313725490196 L 134.99686274509804,104.0 L 134.99686274509804,105.0 L 135.0,105.00313725490196 L 135.00313725490196,105.0 L 135.00313725490196,104.0 L 135.00313725490196,103.0 L 135.00313725490196,102.0 L 136.0,101.00313725490196 L 136.00313725490196,101.0 L 136.00313725490196,100.0 L 136.00313725490196,99.0 L 136.00313725490196,98.0 L 137.0,97.00313725490196 L 137.00313725490196,97.0 L 138.0,96.00313725490196 L 139.0,96.00313725490196 L 140.0,96.00313725490196 L 140.99686274509804,97.0 L 140.99686274509804,98.0 L 141.0,98.00313725490196 L 141.99686274509804,99.0 L 141.99686274509804,100.0 L 141.99686274509804,101.0 L 141.99686274509804,102.0 L 142.0,102.00313725490196 L 142.99686274509804,103.0 L 142.99686274509804,104.0 L 142.99686274509804,105.0 L 142.99686274509804,106.0 L 143.0,106.00313725490196 L 143.00313725490196,106.0 L 143.00313725490196,105.0 L 143.00313725490196,104.0 L 144.0,103.00313725490196 L 144.00313725490196,103.0 L 144.00313725490196,102.0 L 144.00313725490196,101.0 L 144.00313725490196,100.0 L 144.00313725490196,99.0 L 145.0,98.00313725490196 L 145.00313725490196,98.0 L 145.00313725490196,97.0 L 146.0,96.00313725490196 L 147.0,96.00313725490196 L 148.0,96.00313725490196 L 148.99686274509804,97.0 L 148.99686274509804,98.0 L 148.0,98.99686274509804 L 147.99686274509804,99.0 L 147.99686274509804,100.0 L 147.99686274509804,101.0 L 147.99686274509804,102.0 L 147.0,102.99686274509804 L 146.99686274509804,103.0 L 146.99686274509804,104.0 L 146.99686274509804,105.0 L 146.99686274509804,106.0 L 146.0,106.99686274509804 L 145.99686274509804,107.0 L 145.99686274509804,108.0 L 145.99686274509804,109.0 L 145.0,109.99686274509804 L 144.99686274509804,110.0 L 144.0,110.99686274509804 Z" fill="black" stroke="none" /><path d="M 160.0,110.99686274509804 L 159.0,110.99686274509804 L 158.0,110.99686274509804 L 157.00313725490196,110.0 L 157.00313725490196,109.0 L 157.0,108.99686274509804 L 156.00313725490196,108.0 L 156.0,107.99686274509804 L 155.0,107.99686274509804 L 154.0,107.99686274509804 L 153.0,107.99686274509804 L 152.0,107.99686274509804 L 151.99686274509804,108.0 L 151.99686274509804,109.0 L 151.0,109.99686274509804 L 150.99686274509804,110.0 L 150.0,110.99686274509804 L 149.0,110.99686274509804 L 148.0,110.99686274509804 L 147.00313725490196,110.0 L 148.0,109.00313725490196 L 148.00313725490196,109.0 L 148.00313725490196,108.0 L 148.00313725490196,107.0 L 149.0,106.00313725490196 L 149.00313725490196,106.0 L 149.00313725490196,105.0 L 149.00313725490196,104.0 L 150.0,103.00313725490196 L 150.00313725490196,103.0 L 150.00313725490196,102.0 L 150.00313725490196,101.0 L 151.0,100.00313725490196 L 151.00313725490196,100.0 L 151.00313725490196,99.0 L 151.00313725490196,98.0 L 152.0,97.00313725490196 L 152.00313725490196,97.0 L 153.0,96.00313725490196 L 154.0,96.00313725490196 L 155.0,96.00313725490196 L 156.0,96.00313725490196 L 156.99686274509804,97.0 L 156.99686274509804,98.0 L 157.0,98.00313725490196 L 157.99686274509804,99.0 L 157.99686274509804,100.0 L 157.99686274509804,101.0 L 158.0,101.00313725490196 L 158.99686274509804,102.0 L 158.99686274509804,103.0 L 158.99686274509804,104.0 L 159.0,104.00313725490196 L 159.99686274509804,105.0 L 159.99686274509804,106.0 L 159.99686274509804,107.0 L 160.0,107.00313725490196 L 160.99686274509804,108.0 L 160.99686274509804,109.0 L 160.99686274509804,110.0 L 160.0,110.99686274509804 Z" fill="black" stroke="none" /><path d="M 173.0,110.99686274509804 L 172.0,110.99686274509804 L 171.0,110.99686274509804 L 170.00313725490196,110.0 L 170.0,109.99686274509804 L 169.00313725490196,109.0 L 169.0,108.99686274509804 L 168.00313725490196,108.0 L 168.00313725490196,107.0 L 168.0,106.99686274509804 L 167.00313725490196,106.0 L 167.00313725490196,105.0 L 167.0,104.99686274509804 L 166.00313725490196,104.0 L 166.00313725490196,103.0 L 166.0,102.99686274509804 L 165.99686274509804,103.0 L 165.99686274509804,104.0 L 165.99686274509804,105.0 L 165.99686274509804,106.0 L 165.99686274509804,107.0 L 165.99686274509804,108.0 L 165.99686274509804,109.0 L 165.0,109.99686274509804 L 164.99686274509804,110.0 L 164.0,110.99686274509804 L 163.0,110.99686274509804 L 162.00313725490196,110.0 L 162.00313725490196,109.0 L 162.00313725490196,108.0 L 162.00313725490196,107.0 L 162.00313725490196,106.0 L 162.00313725490196,105.0 L 162.00313725490196,104.0 L 162.00313725490196,103.0 L 162.00313725490196,102.0 L 162.00313725490196,101.0 L 162.00313725490196,100.0 L 162.00313725490196,99.0 L 162.00313725490196,98.0 L 162.00313725490196,97.0 L 163.0,96.00313725490196 L 164.0,96.00313725490196 L 165.0,96.00313725490196 L 166.0,96.00313725490196 L 166.99686274509804,97.0 L 167.0,97.00313725490196 L 167.99686274509804,98.0 L 167.99686274509804,99.0 L 168.0,99.00313725490196 L 168.99686274509804,100.0 L 168.99686274509804,101.0 L 169.0,101.00313725490196 L 169.99686274509804,102.0 L 169.99686274509804,103.0 L 170.0,103.00313725490196 L 170.99686274509804,104.0 L 171.0,104.00313725490196 L 171.00313725490196,104.0 L 171.00313725490196,103.0 L 171.00313725490196,102.0 L 171.00313725490196,101.0 L 171.00313725490196,100.0 L 171.00313725490196,99.0 L 171.00313725490196,98.0 L 171.00313725490196,97.0 L 172.0,96.00313725490196 L 173.0,96.00313725490196 L 173.99686274509804,97.0 L 173.99686274509804,98.0 L 173.99686274509804,99.0 L 173.99686274509804,100.0 L 173.99686274509804,101.0 L 173.99686274509804,102.0 L 173.99686274509804,103.0 L 173.99686274509804,104.0 L 173.99686274509804,105.0 L 173.99686274509804,106.0 L 173.99686274509804,107.0 L 173.99686274509804,108.0 L 173.99686274509804,109.0 L 173.99686274509804,110.0 L 173.0,110.99686274509804 Z" fill="black" stroke="none" /><path d="M 179.0,110.99686274509804 L 178.0,110.99686274509804 L 177.0,110.99686274509804 L 176.00313725490196,110.0 L 176.00313725490196,109.0 L 176.00313725490196,108.0 L 176.00313725490196,107.0 L 176.00313725490196,106.0 L 176.00313725490196,105.0 L 176.00313725490196,104.0 L 176.00313725490196,103.0 L 176.00313725490196,102.0 L 176.00313725490196,101.0 L 176.00313725490196,100.0 L 176.00313725490196,99.0 L 176.00313725490196,98.0 L 176.00313725490196,97.0 L 177.0,96.00313725490196 L 178.0,96.00313725490196 L 179.0,96.00313725490196 L 179.99686274509804,97.0 L 179.99686274509804,98.0 L 179.99686274509804,99.0 L 179.99686274509804,100.0 L 179.99686274509804,101.0 L 179.99686274509804,102.0 L 179.99686274509804,103.0 L 179.99686274509804,104.0 L 179.99686274509804,105.0 L 179.99686274509804,106.0 L 179.99686274509804,107.0 L 179.99686274509804,108.0 L 179.99686274509804,109.0 L 179.99686274509804,110.0 L 179.0,110.99686274509804 Z" fill="black" stroke="none" /><path d="M 256.0,97.99686274509804 L 255.99686274509804,98.0 L 255.99686274509804,99.0 L 255.99686274509804,100.0 L 255.99686274509804,101.0 L 256.0,101.00313725490196 Z" fill="black" stroke="none" /><path d="M 86.00313725490196,104.0 L 86.00313725490196,103.0 L 86.00313725490196,102.0 L 86.0,101.99686274509804 L 85.00313725490196,101.0 L 85.0,100.99686274509804 L 84.99686274509804,101.0 L 84.99686274509804,102.0 L 84.99686274509804,103.0 L 84.0,103.99686274509804 L 83.99686274509804,104.0 L 84.0,104.00313725490196 L 85.0,104.00313725490196 L 86.0,104.00313725490196 L 86.00313725490196,104.0 Z" fill="black" stroke="none" /><path d="M 118.00313725490196,104.0 L 118.00313725490196,103.0 L 118.00313725490196,102.0 L 118.0,101.99686274509804 L 117.00313725490196,101.0 L 117.0,100.99686274509804 L 116.99686274509804,101.0 L 116.99686274509804,102.0 L 116.99686274509804,103.0 L 116.0,103.99686274509804 L 115.99686274509804,104.0 L 116.0,104.00313725490196 L 117.0,104.00313725490196 L 118.0,104.00313725490196 L 118.00313725490196,104.0 Z" fill="black" stroke="none" /><path d="M 155.00313725490196,104.0 L 155.00313725490196,103.0 L 155.0,102.99686274509804 L 154.00313725490196,102.0 L 154.00313725490196,101.0 L 154.0,100.99686274509804 L 153.99686274509804,101.0 L 153.99686274509804,102.0 L 153.0,102.99686274509804 L 152.99686274509804,103.0 L 152.99686274509804,104.0 L 153.0,104.00313725490196 L 154.0,104.00313725490196 L 155.0,104.00313725490196 L 155.00313725490196,104.0 Z" fill="black" stroke="none" /><path d="M 239.0,105.99686274509804 L 238.00313725490196,105.0 L 239.0,104.00313725490196 L 239.99686274509804,105.0 L 239.0,105.99686274509804 Z" fill="black" stroke="none" /><path d="M 256.0,126.99686274509804 L 255.0,126.99686274509804 L 254.0,126.99686274509804 L 253.0,126.99686274509804 L 252.0,126.99686274509804 L 251.0,126.99686274509804 L 250.0,126.99686274509804 L 249.0,126.99686274509804 L 248.00313725490196,126.0 L 248.0,125.99686274509804 L 247.0,125.99686274509804 L 246.0,125.99686274509804 L 245.0,125.99686274509804 L 244.00313725490196,125.0 L 245.0,124.00313725490196 L 245.00313725490196,124.0 L 245.00313725490196,123.0 L 245.0,122.99686274509804 L 244.0,122.99686274509804 L 243.00313725490196,122.0 L 243.0,121.99686274509804 L 242.00313725490196,121.0 L 242.0,120.99686274509804 L 241.00313725490196,120.0 L 241.0,119.99686274509804 L 240.00313725490196,119.0 L 240.0,118.99686274509804 L 239.00313725490196,118.0 L 239.0,117.99686274509804 L 238.00313725490196,117.0 L 238.00313725490196,116.0 L 238.0,115.99686274509804 L 237.00313725490196,115.0 L 237.00313725490196,114.0 L 237.00313725490196,113.0 L 237.0,112.99686274509804 L 236.00313725490196,112.0 L 236.00313725490196,111.0 L 236.00313725490196,110.0 L 236.00313725490196,109.0 L 236.00313725490196,108.0 L 236.00313725490196,107.0 L 237.0,106.00313725490196 L 237.00313725490196,106.0 L 238.0,105.00313725490196 L 238.99686274509804,106.0 L 238.99686274509804,107.0 L 238.99686274509804,108.0 L 239.0,108.00313725490196 L 240.0,108.00313725490196 L 240.99686274509804,109.0 L 241.0,109.00313725490196 L 242.0,109.00313725490196 L 243.0,109.00313725490196 L 244.0,109.00313725490196 L 244.99686274509804,110.0 L 245.0,110.00313725490196 L 246.0,110.00313725490196 L 247.0,110.00313725490196 L 248.0,110.00313725490196 L 249.0,110.00313725490196 L 250.0,110.00313725490196 L 250.99686274509804,111.0 L 251.0,111.00313725490196 L 252.0,111.00313725490196 L 253.0,111.00313725490196 L 254.0,111.00313725490196 L 255.0,111.00313725490196 L 256.0,111.00313725490196 Z" fill="black" stroke="none" /><path d="M 163.0,129.99686274509804 L 162.0,129.99686274509804 L 161.0,129.99686274509804 L 160.0,129.99686274509804 L 159.0,129.99686274509804 L 158.0,129.99686274509804 L 157.0,129.99686274509804 L 156.0,129.99686274509804 L 155.00313725490196,129.0 L 155.0,128.99686274509804 L 154.0,128.99686274509804 L 153.0,128.99686274509804 L 152.0,128.99686274509804 L 151.00313725490196,128.0 L 151.0,127.99686274509804 L 150.0,127.99686274509804 L 149.0,127.99686274509804 L 148.00313725490196,127.0 L 148.0,126.99686274509804 L 147.0,126.99686274509804 L 146.00313725490196,126.0 L 146.0,125.99686274509804 L 145.00313725490196,125.0 L 145.0,124.99686274509804 L 144.0,124.99686274509804 L 143.00313725490196,124.0 L 143.0,123.99686274509804 L 142.0,123.99686274509804 L 141.00313725490196,123.0 L 141.0,122.99686274509804 L 140.0,122.99686274509804 L 139.00313725490196,122.0 L 139.0,121.99686274509804 L 138.0,121.99686274509804 L 137.00313725490196,121.0 L 137.0,120.99686274509804 L 136.00313725490196,120.0 L 136.0,119.99686274509804 L 135.0,119.99686274509804 L 134.00313725490196,119.0 L 134.0,118.99686274509804 L 133.0,118.99686274509804 L 132.0,118.99686274509804 L 131.0,118.99686274509804 L 130.00313725490196,118.0 L 130.0,117.99686274509804 L 129.0,117.99686274509804 L 128.0,117.99686274509804 L 127.0,117.99686274509804 L 126.0,117.99686274509804 L 125.0,117.99686274509804 L 124.0,117.99686274509804 L 123.99686274509804,118.0 L 123.0,118.99686274509804 L 122.0,118.99686274509804 L 121.99686274509804,119.0 L 121.0,119.99686274509804 L 120.0,119.99686274509804 L 119.99686274509804,120.0 L 119.0,120.99686274509804 L 118.0,120.99686274509804 L 117.99686274509804,121.0 L 117.0,121.99686274509804 L 116.0,121.99686274509804 L 115.99686274509804,122.0 L 115.0,122.99686274509804 L 114.99686274509804,123.0 L 114.0,123.99686274509804 L 113.0,123.99686274509804 L 112.99686274509804,124.0 L 112.0,124.99686274509804 L 111.99686274509804,125.0 L 111.0,125.99686274509804 L 110.0,125.99686274509804 L 109.99686274509804,126.0 L 109.0,126.99686274509804 L 108.0,126.99686274509804 L 107.99686274509804,127.0 L 107.0,127.99686274509804 L 106.0,127.99686274509804 L 105.0,127.99686274509804 L 104.99686274509804,128.0 L 104.0,128.99686274509804 L 103.0,128.99686274509804 L 102.0,128.99686274509804 L 101.0,128.99686274509804 L 100.99686274509804,129.0 L 100.0,129.99686274509804 L 99.0,129.99686274509804 L 98.0,129.99686274509804 L 97.0,129.99686274509804 L 96.0,129.99686274509804 L 95.0,129.99686274509804 L 94.0,129.99686274509804 L 93.0,129.99686274509804 L 92.0,129.99686274509804 L 91.0,129.99686274509804 L 90.00313725490196,129.0 L 90.0,128.99686274509804 L 89.0,128.99686274509804 L 88.0,128.99686274509804 L 87.0,128.99686274509804 L 86.00313725490196,128.0 L 86.0,127.99686274509804 L 85.0,127.99686274509804 L 84.0,127.99686274509804 L 83.00313725490196,127.0 L 83.0,126.99686274509804 L 82.0,126.99686274509804 L 81.00313725490196,126.0 L 81.0,125.99686274509804 L 80.0,125.99686274509804 L 79.00313725490196,125.0 L 79.0,124.99686274509804 L 78.0,124.99686274509804 L 77.00313725490196,124.0 L 77.0,123.99686274509804 L 76.00313725490196,123.0 L 76.0,122.99686274509804 L 75.0,122.99686274509804 L 74.00313725490196,122.0 L 74.0,121.99686274509804 L 73.00313725490196,121.0 L 73.0,120.99686274509804 L 72.0,120.99686274509804 L 71.00313725490196,120.0 L 71.0,119.99686274509804 L 70.0,119.99686274509804 L 69.00313725490196,119.0 L 69.0,118.99686274509804 L 68.0,118.99686274509804 L 67.0,118.99686274509804 L 66.00313725490196,118.0 L 66.0,117.99686274509804 L 65.0,117.99686274509804 L 64.0,117.99686274509804 L 63.0,117.99686274509804 L 62.0,117.99686274509804 L 61.99686274509804,118.0 L 61.0,118.99686274509804 L 60.0,118.99686274509804 L 59.0,118.99686274509804 L 58.0,118.99686274509804 L 57.99686274509804,119.0 L 57.0,119.99686274509804 L 56.0,119.99686274509804 L 55.99686274509804,120.0 L 55.0,120.99686274509804 L 54.0,120.99686274509804 L 53.99686274509804,121.0 L 53.0,121.99686274509804 L 52.0,121.99686274509804 L 51.99686274509804,122.0 L 51.0,122.99686274509804 L 50.0,122.99686274509804 L 49.99686274509804,123.0 L 49.0,123.99686274509804 L 48.99686274509804,124.0 L 48.0,124.99686274509804 L 47.0,124.99686274509804 L 46.99686274509804,125.0 L 46.0,125.99686274509804 L 45.0,125.99686274509804 L 44.99686274509804,126.0 L 44.0,126.99686274509804 L 43.0,126.99686274509804 L 42.99686274509804,127.0 L 42.0,127.99686274509804 L 41.0,127.99686274509804 L 40.0,127.99686274509804 L 39.99686274509804,128.0 L 39.0,128.99686274509804 L 38.0,128.99686274509804 L 37.99686274509804,129.0 L 37.0,129.99686274509804 L 36.0,129.99686274509804 L 35.0,129.99686274509804 L 34.0,129.99686274509804 L 33.0,129.99686274509804 L 32.0,129.99686274509804 L 31.0,129.99686274509804 L 30.0,129.99686274509804 L 29.0,129.99686274509804 L 28.00313725490196,129.0 L 28.0,128.99686274509804 L 27.0,128.99686274509804 L 26.0,128.99686274509804 L 25.0,128.99686274509804 L 24.0,128.99686274509804 L 23.0,128.99686274509804 L 22.00313725490196,128.0 L 22.0,127.99686274509804 L 21.0,127.99686274509804 L 20.00313725490196,127.0 L 20.0,126.99686274509804 L 19.00313725490196,126.0 L 19.0,125.99686274509804 L 18.0,125.99686274509804 L 17.00313725490196,125.0 L 17.0,124.99686274509804 L 16.00313725490196,124.0 L 16.0,123.99686274509804 L 15.0,123.99686274509804 L 14.003137254901961,123.0 L 14.003137254901961,122.0 L 14.003137254901961,121.0 L 14.003137254901961,120.0 L 15.0,119.00313725490196 L 16.0,119.00313725490196 L 17.0,119.00313725490196 L 18.0,119.00313725490196 L 18.99686274509804,120.0 L 19.0,120.00313725490196 L 19.99686274509804,121.0 L 20.0,121.00313725490196 L 21.0,121.00313725490196 L 21.99686274509804,122.0 L 22.0,122.00313725490196 L 23.0,122.00313725490196 L 23.99686274509804,123.0 L 24.0,123.00313725490196 L 25.0,123.00313725490196 L 26.0,123.00313725490196 L 26.99686274509804,124.0 L 27.0,124.00313725490196 L 28.0,124.00313725490196 L 29.0,124.00313725490196 L 30.0,124.00313725490196 L 31.0,124.00313725490196 L 32.0,124.00313725490196 L 33.0,124.00313725490196 L 34.0,124.00313725490196 L 35.0,124.00313725490196 L 36.0,124.00313725490196 L 37.0,124.00313725490196 L 37.00313725490196,124.0 L 38.0,123.00313725490196 L 39.0,123.00313725490196 L 40.0,123.00313725490196 L 40.00313725490196,123.0 L 41.0,122.00313725490196 L 42.0,122.00313725490196 L 42.00313725490196,122.0 L 43.0,121.00313725490196 L 44.0,121.00313725490196 L 44.00313725490196,121.0 L 45.0,120.00313725490196 L 46.0,120.00313725490196 L 46.00313725490196,120.0 L 47.0,119.00313725490196 L 47.00313725490196,119.0 L 48.0,118.00313725490196 L 49.0,118.00313725490196 L 49.00313725490196,118.0 L 50.0,117.00313725490196 L 51.0,117.00313725490196 L 51.00313725490196,117.0 L 52.0,116.00313725490196 L 53.0,116.00313725490196 L 53.00313725490196,116.0 L 54.0,115.00313725490196 L 55.0,115.00313725490196 L 55.00313725490196,115.0 L 56.0,114.00313725490196 L 57.0,114.00313725490196 L 58.0,114.00313725490196 L 59.0,114.00313725490196 L 59.00313725490196,114.0 L 60.0,113.00313725490196 L 61.0,113.00313725490196 L 62.0,113.00313725490196 L 63.0,113.00313725490196 L 64.0,113.00313725490196 L 65.0,113.00313725490196 L 66.0,113.00313725490196 L 67.0,113.00313725490196 L 68.0,113.00313725490196 L 68.99686274509804,114.0 L 69.0,114.00313725490196 L 70.0,114.00313725490196 L 71.0,114.00313725490196 L 71.99686274509804,115.0 L 72.0,115.00313725490196 L 73.0,115.00313725490196 L 73.99686274509804,116.0 L 74.0,116.00313725490196 L 74.99686274509804,117.0 L 75.0,117.00313725490196 L 76.0,117.00313725490196 L 76.99686274509804,118.0 L 77.0,118.00313725490196 L 78.0,118.00313725490196 L 78.99686274509804,119.0 L 79.0,119.00313725490196 L 79.99686274509804,120.0 L 80.0,120.00313725490196 L 81.0,120.00313725490196 L 81.99686274509804,121.0 L 82.0,121.00313725490196 L 83.0,121.00313725490196 L 83.99686274509804,122.0 L 84.0,122.00313725490196 L 85.0,122.00313725490196 L 85.99686274509804,123.0 L 86.0,123.00313725490196 L 87.0,123.00313725490196 L 88.0,123.00313725490196 L 88.99686274509804,124.0 L 89.0,124.00313725490196 L 90.0,124.00313725490196 L 91.0,124.00313725490196 L 92.0,124.00313725490196 L 92.99686274509804,125.0 L 93.0,125.00313725490196 L 94.0,125.00313725490196 L 95.0,125.00313725490196 L 96.0,125.00313725490196 L 97.0,125.00313725490196 L 98.0,125.00313725490196 L 99.0,125.00313725490196 L 99.00313725490196,125.0 L 100.0,124.00313725490196 L 101.0,124.00313725490196 L 102.0,124.00313725490196 L 103.0,124.00313725490196 L 103.00313725490196,124.0 L 104.0,123.00313725490196 L 105.0,123.00313725490196 L 105.00313725490196,123.0 L 106.0,122.00313725490196 L 107.0,122.00313725490196 L 107.00313725490196,122.0 L 108.0,121.00313725490196 L 109.0,121.00313725490196 L 109.00313725490196,121.0 L 110.0,120.00313725490196 L 110.00313725490196,120.0 L 111.0,119.00313725490196 L 112.0,119.00313725490196 L 112.00313725490196,119.0 L 113.0,118.00313725490196 L 114.0,118.00313725490196 L 114.00313725490196,118.0 L 115.0,117.00313725490196 L 115.00313725490196,117.0 L 116.0,116.00313725490196 L 117.0,116.00313725490196 L 117.00313725490196,116.0 L 118.0,115.00313725490196 L 119.0,115.00313725490196 L 119.00313725490196,115.0 L 120.0,114.00313725490196 L 121.0,114.00313725490196 L 122.0,114.00313725490196 L 122.00313725490196,114.0 L 123.0,113.00313725490196 L 124.0,113.00313725490196 L 125.0,113.00313725490196 L 126.0,113.00313725490196 L 127.0,113.00313725490196 L 128.0,113.00313725490196 L 129.0,113.00313725490196 L 130.0,113.00313725490196 L 131.0,113.00313725490196 L 131.99686274509804,114.0 L 132.0,114.00313725490196 L 133.0,114.00313725490196 L 134.0,114.00313725490196 L 135.0,114.00313725490196 L 135.99686274509804,115.0 L 136.0,115.00313725490196 L 137.0,115.00313725490196 L 137.99686274509804,116.0 L 138.0,116.00313725490196 L 139.0,116.00313725490196 L 139.99686274509804,117.0 L 140.0,117.00313725490196 L 141.0,117.00313725490196 L 141.99686274509804,118.0 L 142.0,118.00313725490196 L 143.0,118.00313725490196 L 143.99686274509804,119.0 L 144.0,119.00313725490196 L 145.0,119.00313725490196 L 145.99686274509804,120.0 L 146.0,120.00313725490196 L 147.0,120.00313725490196 L 147.99686274509804,121.0 L 148.0,121.00313725490196 L 149.0,121.00313725490196 L 149.99686274509804,122.0 L 150.0,122.00313725490196 L 151.0,122.00313725490196 L 151.99686274509804,123.0 L 152.0,123.00313725490196 L 153.0,123.00313725490196 L 153.99686274509804,124.0 L 154.0,124.00313725490196 L 155.0,124.00313725490196 L 156.0,124.00313725490196 L 157.0,124.00313725490196 L 158.0,124.00313725490196 L 159.0,124.00313725490196 L 160.0,124.00313725490196 L 161.0,124.00313725490196 L 162.0,124.00313725490196 L 163.0,124.00313725490196 L 164.0,124.00313725490196 L 165.0,124.00313725490196 L 165.00313725490196,124.0 L 166.0,123.00313725490196 L 167.0,123.00313725490196 L 167.00313725490196,123.0 L 168.0,122.00313725490196 L 169.0,122.00313725490196 L 169.00313725490196,122.0 L 170.0,121.00313725490196 L 171.0,121.00313725490196 L 171.00313725490196,121.0 L 172.0,120.00313725490196 L 172.00313725490196,120.0 L 173.0,119.00313725490196 L 174.0,119.00313725490196 L 175.0,119.00313725490196 L 175.99686274509804,120.0 L 176.0,120.00313725490196 L 176.99686274509804,121.0 L 176.99686274509804,122.0 L 176.0,122.99686274509804 L 175.99686274509804,123.0 L 175.0,123.99686274509804 L 174.99686274509804,124.0 L 174.0,124.99686274509804 L 173.99686274509804,125.0 L 173.0,125.99686274509804 L 172.99686274509804,126.0 L 172.0,126.99686274509804 L 171.0,126.99686274509804 L 170.99686274509804,127.0 L 170.0,127.99686274509804 L 169.0,127.99686274509804 L 168.0,127.99686274509804 L 167.99686274509804,128.0 L 167.0,128.99686274509804 L 166.0,128.99686274509804 L 165.0,128.99686274509804 L 164.0,128.99686274509804 L 163.99686274509804,129.0 L 163.0,129.99686274509804 Z" fill="black" stroke="none" /><path d="M 165.0,141.99686274509804 L 164.0,141.99686274509804 L 163.0,141.99686274509804 L 162.0,141.99686274509804 L 161.0,141.99686274509804 L 160.0,141.99686274509804 L 159.0,141.99686274509804 L 158.0,141.99686274509804 L 157.0,141.99686274509804 L 156.0,141.99686274509804 L 155.0,141.99686274509804 L 154.0,141.99686274509804 L 153.0,141.99686274509804 L 152.00313725490196,141.0 L 152.0,140.99686274509804 L 151.0,140.99686274509804 L 150.0,140.99686274509804 L 149.00313725490196,140.0 L 149.0,139.99686274509804 L 148.0,139.99686274509804 L 147.00313725490196,139.0 L 147.0,138.99686274509804 L 146.0,138.99686274509804 L 145.00313725490196,138.0 L 145.0,137.99686274509804 L 144.0,137.99686274509804 L 143.00313725490196,137.0 L 143.0,136.99686274509804 L 142.00313725490196,136.0 L 142.0,135.99686274509804 L 141.0,135.99686274509804 L 140.00313725490196,135.0 L 140.0,134.99686274509804 L 139.0,134.99686274509804 L 138.00313725490196,134.0 L 138.0,133.99686274509804 L 137.0,133.99686274509804 L 136.00313725490196,133.0 L 136.0,132.99686274509804 L 135.0,132.99686274509804 L 134.00313725490196,132.0 L 134.0,131.99686274509804 L 133.0,131.99686274509804 L 132.00313725490196,131.0 L 132.0,130.99686274509804 L 131.0,130.99686274509804 L 130.0,130.99686274509804 L 129.0,130.99686274509804 L 128.0,130.99686274509804 L 127.00313725490196,130.0 L 127.0,129.99686274509804 L 126.0,129.99686274509804 L 125.99686274509804,130.0 L 125.0,130.99686274509804 L 124.0,130.99686274509804 L 123.0,130.99686274509804 L 122.0,130.99686274509804 L 121.99686274509804,131.0 L 121.0,131.99686274509804 L 120.0,131.99686274509804 L 119.99686274509804,132.0 L 119.0,132.99686274509804 L 118.0,132.99686274509804 L 117.99686274509804,133.0 L 117.0,133.99686274509804 L 116.99686274509804,134.0 L 116.0,134.99686274509804 L 115.0,134.99686274509804 L 114.99686274509804,135.0 L 114.0,135.99686274509804 L 113.99686274509804,136.0 L 113.0,136.99686274509804 L 112.0,136.99686274509804 L 111.99686274509804,137.0 L 111.0,137.99686274509804 L 110.99686274509804,138.0 L 110.0,138.99686274509804 L 109.0,138.99686274509804 L 108.99686274509804,139.0 L 108.0,139.99686274509804 L 107.0,139.99686274509804 L 106.0,139.99686274509804 L 105.99686274509804,140.0 L 105.0,140.99686274509804 L 104.0,140.99686274509804 L 103.0,140.99686274509804 L 102.99686274509804,141.0 L 102.0,141.99686274509804 L 101.0,141.99686274509804 L 100.0,141.99686274509804 L 99.0,141.99686274509804 L 98.0,141.99686274509804 L 97.0,141.99686274509804 L 96.0,141.99686274509804 L 95.0,141.99686274509804 L 94.0,141.99686274509804 L 93.0,141.99686274509804 L 92.0,141.99686274509804 L 91.0,141.99686274509804 L 90.0,141.99686274509804 L 89.0,141.99686274509804 L 88.0,141.99686274509804 L 87.00313725490196,141.0 L 87.0,140.99686274509804 L 86.0,140.99686274509804 L 85.0,140.99686274509804 L 84.00313725490196,140.0 L 84.0,139.99686274509804 L 83.0,139.99686274509804 L 82.00313725490196,139.0 L 82.0,138.99686274509804 L 81.0,138.99686274509804 L 80.00313725490196,138.0 L 80.0,137.99686274509804 L 79.0,137.99686274509804 L 78.00313725490196,137.0 L 78.0,136.99686274509804 L 77.0,136.99686274509804 L 76.00313725490196,136.0 L 76.0,135.99686274509804 L 75.00313725490196,135.0 L 75.0,134.99686274509804 L 74.0,134.99686274509804 L 73.00313725490196,134.0 L 73.0,133.99686274509804 L 72.00313725490196,133.0 L 72.0,132.99686274509804 L 71.0,132.99686274509804 L 70.00313725490196,132.0 L 70.0,131.99686274509804 L 69.0,131.99686274509804 L 68.00313725490196,131.0 L 68.0,130.99686274509804 L 67.0,130.99686274509804 L 66.0,130.99686274509804 L 65.0,130.99686274509804 L 64.0,130.99686274509804 L 63.0,130.99686274509804 L 62.0,130.99686274509804 L 61.0,130.99686274509804 L 60.0,130.99686274509804 L 59.0,130.99686274509804 L 58.99686274509804,131.0 L 58.0,131.99686274509804 L 57.0,131.99686274509804 L 56.0,131.99686274509804 L 55.99686274509804,132.0 L 55.0,132.99686274509804 L 54.0,132.99686274509804 L 53.99686274509804,133.0 L 53.0,133.99686274509804 L 52.0,133.99686274509804 L 51.99686274509804,134.0 L 51.0,134.99686274509804 L 50.99686274509804,135.0 L 50.0,135.99686274509804 L 49.0,135.99686274509804 L 48.99686274509804,136.0 L 48.0,136.99686274509804 L 47.0,136.99686274509804 L 46.99686274509804,137.0 L 46.0,137.99686274509804 L 45.0,137.99686274509804 L 44.99686274509804,138.0 L 44.0,138.99686274509804 L 43.99686274509804,139.0 L 43.0,139.99686274509804 L 42.0,139.99686274509804 L 41.0,139.99686274509804 L 40.99686274509804,140.0 L 40.0,140.99686274509804 L 39.0,140.99686274509804 L 38.99686274509804,141.0 L 38.0,141.99686274509804 L 37.0,141.99686274509804 L 36.0,141.99686274509804 L 35.0,141.99686274509804 L 34.0,141.99686274509804 L 33.0,141.99686274509804 L 32.0,141.99686274509804 L 31.0,141.99686274509804 L 30.0,141.99686274509804 L 29.0,141.99686274509804 L 28.0,141.99686274509804 L 27.0,141.99686274509804 L 26.0,141.99686274509804 L 25.0,141.99686274509804 L 24.00313725490196,141.0 L 24.0,140.99686274509804 L 23.0,140.99686274509804 L 22.0,140.99686274509804 L 21.00313725490196,140.0 L 21.0,139.99686274509804 L 20.0,139.99686274509804 L 19.00313725490196,139.0 L 19.0,138.99686274509804 L 18.00313725490196,138.0 L 18.0,137.99686274509804 L 17.0,137.99686274509804 L 16.00313725490196,137.0 L 16.0,136.99686274509804 L 15.003137254901961,136.0 L 15.0,135.99686274509804 L 14.003137254901961,135.0 L 14.003137254901961,134.0 L 14.003137254901961,133.0 L 15.0,132.00313725490196 L 16.0,132.00313725490196 L 17.0,132.00313725490196 L 18.0,132.00313725490196 L 18.99686274509804,133.0 L 19.0,133.00313725490196 L 19.99686274509804,134.0 L 20.0,134.00313725490196 L 21.0,134.00313725490196 L 21.99686274509804,135.0 L 22.0,135.00313725490196 L 23.0,135.00313725490196 L 23.99686274509804,136.0 L 24.0,136.00313725490196 L 25.0,136.00313725490196 L 26.0,136.00313725490196 L 26.99686274509804,137.0 L 27.0,137.00313725490196 L 28.0,137.00313725490196 L 29.0,137.00313725490196 L 30.0,137.00313725490196 L 31.0,137.00313725490196 L 32.0,137.00313725490196 L 33.0,137.00313725490196 L 34.0,137.00313725490196 L 35.0,137.00313725490196 L 36.0,137.00313725490196 L 36.00313725490196,137.0 L 37.0,136.00313725490196 L 38.0,136.00313725490196 L 39.0,136.00313725490196 L 39.00313725490196,136.0 L 40.0,135.00313725490196 L 41.0,135.00313725490196 L 41.00313725490196,135.0 L 42.0,134.00313725490196 L 43.0,134.00313725490196 L 43.00313725490196,134.0 L 44.0,133.00313725490196 L 45.0,133.00313725490196 L 45.00313725490196,133.0 L 46.0,132.00313725490196 L 47.0,132.00313725490196 L 47.00313725490196,132.0 L 48.0,131.00313725490196 L 48.00313725490196,131.0 L 49.0,130.00313725490196 L 50.0,130.00313725490196 L 50.00313725490196,130.0 L 51.0,129.00313725490196 L 52.0,129.00313725490196 L 52.00313725490196,129.0 L 53.0,128.00313725490196 L 54.0,128.00313725490196 L 55.0,128.00313725490196 L 55.00313725490196,128.0 L 56.0,127.00313725490196 L 57.0,127.00313725490196 L 58.0,127.00313725490196 L 58.00313725490196,127.0 L 59.0,126.00313725490196 L 60.0,126.00313725490196 L 61.0,126.00313725490196 L 62.0,126.00313725490196 L 63.0,126.00313725490196 L 64.0,126.00313725490196 L 65.0,126.00313725490196 L 66.0,126.00313725490196 L 67.0,126.00313725490196 L 68.0,126.00313725490196 L 68.99686274509804,127.0 L 69.0,127.00313725490196 L 70.0,127.00313725490196 L 71.0,127.00313725490196 L 71.99686274509804,128.0 L 72.0,128.00313725490196 L 73.0,128.00313725490196 L 73.99686274509804,129.0 L 74.0,129.00313725490196 L 74.99686274509804,130.0 L 75.0,130.00313725490196 L 76.0,130.00313725490196 L 76.99686274509804,131.0 L 77.0,131.00313725490196 L 78.0,131.00313725490196 L 78.99686274509804,132.0 L 79.0,132.00313725490196 L 79.99686274509804,133.0 L 80.0,133.00313725490196 L 81.0,133.00313725490196 L 81.99686274509804,134.0 L 82.0,134.00313725490196 L 83.0,134.00313725490196 L 83.99686274509804,135.0 L 84.0,135.00313725490196 L 85.0,135.00313725490196 L 85.99686274509804,136.0 L 86.0,136.00313725490196 L 87.0,136.00313725490196 L 88.0,136.00313725490196 L 88.99686274509804,137.0 L 89.0,137.00313725490196 L 90.0,137.00313725490196 L 91.0,137.00313725490196 L 92.0,137.00313725490196 L 93.0,137.00313725490196 L 93.99686274509804,138.0 L 94.0,138.00313725490196 L 95.0,138.00313725490196 L 96.0,138.00313725490196 L 97.0,138.00313725490196 L 97.00313725490196,138.0 L 98.0,137.00313725490196 L 99.0,137.00313725490196 L 100.0,137.00313725490196 L 101.0,137.00313725490196 L 102.0,137.00313725490196 L 102.00313725490196,137.0 L 103.0,136.00313725490196 L 104.0,136.00313725490196 L 105.0,136.00313725490196 L 105.00313725490196,136.0 L 106.0,135.00313725490196 L 106.00313725490196,135.0 L 107.0,134.00313725490196 L 108.0,134.00313725490196 L 108.00313725490196,134.0 L 109.0,133.00313725490196 L 110.0,133.00313725490196 L 110.00313725490196,133.0 L 111.0,132.00313725490196 L 111.00313725490196,132.0 L 112.0,131.00313725490196 L 113.0,131.00313725490196 L 113.00313725490196,131.0 L 114.0,130.00313725490196 L 115.0,130.00313725490196 L 115.00313725490196,130.0 L 116.0,129.00313725490196 L 116.00313725490196,129.0 L 117.0,128.00313725490196 L 118.0,128.00313725490196 L 118.00313725490196,128.0 L 119.0,127.00313725490196 L 120.0,127.00313725490196 L 121.0,127.00313725490196 L 121.00313725490196,127.0 L 122.0,126.00313725490196 L 123.0,126.00313725490196 L 124.0,126.00313725490196 L 125.0,126.00313725490196 L 126.0,126.00313725490196 L 127.0,126.00313725490196 L 128.0,126.00313725490196 L 129.0,126.00313725490196 L 130.0,126.00313725490196 L 131.0,126.00313725490196 L 132.0,126.00313725490196 L 132.99686274509804,127.0 L 133.0,127.00313725490196 L 134.0,127.00313725490196 L 135.0,127.00313725490196 L 135.99686274509804,128.0 L 136.0,128.00313725490196 L 137.0,128.00313725490196 L 137.99686274509804,129.0 L 138.0,129.00313725490196 L 139.0,129.00313725490196 L 139.99686274509804,130.0 L 140.0,130.00313725490196 L 141.0,130.00313725490196 L 141.99686274509804,131.0 L 142.0,131.00313725490196 L 143.0,131.00313725490196 L 143.99686274509804,132.0 L 144.0,132.00313725490196 L 145.0,132.00313725490196 L 145.99686274509804,133.0 L 146.0,133.00313725490196 L 147.0,133.00313725490196 L 147.99686274509804,134.0 L 148.0,134.00313725490196 L 149.0,134.00313725490196 L 149.99686274509804,135.0 L 150.0,135.00313725490196 L 151.0,135.00313725490196 L 151.99686274509804,136.0 L 152.0,136.00313725490196 L 153.0,136.00313725490196 L 153.99686274509804,137.0 L 154.0,137.00313725490196 L 155.0,137.00313725490196 L 156.0,137.00313725490196 L 157.0,137.00313725490196 L 158.0,137.00313725490196 L 159.0,137.00313725490196 L 160.0,137.00313725490196 L 161.0,137.00313725490196 L 162.0,137.00313725490196 L 163.0,137.00313725490196 L 164.0,137.00313725490196 L 164.00313725490196,137.0 L 165.0,136.00313725490196 L 166.0,136.00313725490196 L 167.0,136.00313725490196 L 167.00313725490196,136.0 L 168.0,135.00313725490196 L 169.0,135.00313725490196 L 169.00313725490196,135.0 L 170.0,134.00313725490196 L 170.00313725490196,134.0 L 171.0,133.00313725490196 L 171.00313725490196,133.0 L 172.0,132.00313725490196 L 173.0,132.00313725490196 L 174.0,132.00313725490196 L 175.0,132.00313725490196 L 175.99686274509804,133.0 L 175.99686274509804,134.0 L 175.99686274509804,135.0 L 175.99686274509804,136.0 L 175.0,136.99686274509804 L 174.99686274509804,137.0 L 174.0,137.99686274509804 L 173.0,137.99686274509804 L 172.99686274509804,138.0 L 172.0,138.99686274509804 L 171.99686274509804,139.0 L 171.0,139.99686274509804 L 170.0,139.99686274509804 L 169.0,139.99686274509804 L 168.99686274509804,140.0 L 168.0,140.99686274509804 L 167.0,140.99686274509804 L 166.0,140.99686274509804 L 165.99686274509804,141.0 L 165.0,141.99686274509804 Z" fill="black" stroke="none" /></svg>