<?xml version="1.0" encoding="utf-8" ?>
<svg baseProfile="full" height="197px" version="1.1" width="257px" xmlns="http://www.w3.org/2000/svg" xmlns:ev="http://www.w3.org/2001/xml-events" xmlns:xlink="http://www.w3.org/1999/xlink"><defs /><path d="M 57.0,92.99686274509804 L 56.0,92.99686274509804 L 55.0,92.99686274509804 L 54.0,92.99686274509804 L 53.0,92.99686274509804 L 52.0,92.99686274509804 L 51.0,92.99686274509804 L 50.00313725490196,92.0 L 50.0,91.99686274509804 L 49.0,91.99686274509804 L 48.00313725490196,91.0 L 48.0,90.99686274509804 L 47.00313725490196,90.0 L 47.0,89.99686274509804 L 46.00313725490196,89.0 L 46.00313725490196,88.0 L 46.00313725490196,87.0 L 46.0,86.99686274509804 L 45.00313725490196,86.0 L 45.00313725490196,85.0 L 45.00313725490196,84.0 L 45.00313725490196,83.0 L 45.00313725490196,82.0 L 45.00313725490196,81.0 L 45.00313725490196,80.0 L 45.00313725490196,79.0 L 45.00313725490196,78.0 L 45.00313725490196,77.0 L 45.00313725490196,76.0 L 45.00313725490196,75.0 L 45.0,74.99686274509804 L 44.0,74.99686274509804 L 43.00313725490196,74.0 L 43.00313725490196,73.0 L 44.0,72.00313725490196 L 45.0,72.00313725490196 L 46.0,72.00313725490196 L 47.0,72.00313725490196 L 47.99686274509804,73.0 L 48.0,73.00313725490196 L 48.00313725490196,73.0 L 49.0,72.00313725490196 L 50.0,72.00313725490196 L 51.0,72.00313725490196 L 52.0,72.00313725490196 L 52.99686274509804,73.0 L 52.99686274509804,74.0 L 52.0,74.99686274509804 L 51.0,74.99686274509804 L 50.99686274509804,75.0 L 50.99686274509804,76.0 L 50.99686274509804,77.0 L 50.99686274509804,78.0 L 50.99686274509804,79.0 L 50.99686274509804,80.0 L 50.99686274509804,81.0 L 50.99686274509804,82.0 L 50.99686274509804,83.0 L 50.99686274509804,84.0 L 50.99686274509804,85.0 L 50.99686274509804,86.0 L 50.99686274509804,87.0 L 50.99686274509804,88.0 L 51.0,88.00313725490196 L 51.99686274509804,89.0 L 52.0,89.00313725490196 L 53.0,89.00313725490196 L 53.99686274509804,90.0 L 54.0,90.00313725490196 L 55.0,90.00313725490196 L 56.0,90.00313725490196 L 56.00313725490196,90.0 L 57.0,89.00313725490196 L 58.0,89.00313725490196 L 58.00313725490196,89.0 L 59.0,88.00313725490196 L 59.00313725490196,88.0 L 59.00313725490196,87.0 L 59.00313725490196,86.0 L 60.0,85.00313725490196 L 60.00313725490196,85.0 L 60.00313725490196,84.0 L 60.00313725490196,83.0 L 60.00313725490196,82.0 L 60.00313725490196,81.0 L 60.00313725490196,80.0 L 60.00313725490196,79.0 L 60.00313725490196,78.0 L 60.00313725490196,77.0 L 60.00313725490196,76.0 L 60.0,75.99686274509804 L 59.00313725490196,75.0 L 59.0,74.99686274509804 L 58.0,74.99686274509804 L 57.00313725490196,74.0 L 57.00313725490196,73.0 L 58.0,72.00313725490196 L 59.0,72.00313725490196 L 60.0,72.00313725490196 L 60.99686274509804,73.0 L 61.0,73.00313725490196 L 61.00313725490196,73.0 L 62.0,72.00313725490196 L 63.0,72.00313725490196 L 64.0,72.00313725490196 L 64.99686274509804,73.0 L 64.99686274509804,74.0 L 64.0,74.99686274509804 L 63.0,74.99686274509804 L 62.99686274509804,75.0 L 62.99686274509804,76.0 L 62.99686274509804,77.0 L 62.99686274509804,78.0 L 62.99686274509804,79.0 L 62.99686274509804,80.0 L 62.99686274509804,81.0 L 62.99686274509804,82.0 L 62.99686274509804,83.0 L 62.0,83.99686274509804 L 61.99686274509804,84.0 L 61.99686274509804,85.0 L 61.99686274509804,86.0 L 61.99686274509804,87.0 L 61.99686274509804,88.0 L 61.0,88.99686274509804 L 60.99686274509804,89.0 L 60.99686274509804,90.0 L 60.0,90.99686274509804 L 59.99686274509804,91.0 L 59.0,91.99686274509804 L 58.0,91.99686274509804 L 57.99686274509804,92.0 L 57.0,92.99686274509804 Z" fill="black" stroke="none" /><path d="M 79.0,92.99686274509804 L 78.0,92.99686274509804 L 77.0,92.99686274509804 L 76.00313725490196,92.0 L 76.0,91.99686274509804 L 75.0,91.99686274509804 L 74.99686274509804,92.0 L 74.0,92.99686274509804 L 73.0,92.99686274509804 L 72.0,92.99686274509804 L 71.0,92.99686274509804 L 70.00313725490196,92.0 L 70.00313725490196,91.0 L 71.0,90.00313725490196 L 72.0,90.00313725490196 L 72.00313725490196,90.0 L 73.0,89.00313725490196 L 73.00313725490196,89.0 L 73.00313725490196,88.0 L 73.00313725490196,87.0 L 73.00313725490196,86.0 L 73.00313725490196,85.0 L 73.00313725490196,84.0 L 73.00313725490196,83.0 L 73.00313725490196,82.0 L 73.00313725490196,81.0 L 73.00313725490196,80.0 L 73.00313725490196,79.0 L 73.00313725490196,78.0 L 73.00313725490196,77.0 L 73.00313725490196,76.0 L 73.00313725490196,75.0 L 73.0,74.99686274509804 L 72.0,74.99686274509804 L 71.0,74.99686274509804 L 70.0,74.99686274509804 L 69.99686274509804,75.0 L 69.0,75.99686274509804 L 68.99686274509804,76.0 L 68.99686274509804,77.0 L 68.0,77.99686274509804 L 67.99686274509804,78.0 L 67.0,78.99686274509804 L 66.00313725490196,78.0 L 66.00313725490196,77.0 L 66.00313725490196,76.0 L 66.00313725490196,75.0 L 66.00313725490196,74.0 L 66.00313725490196,73.0 L 67.0,72.00313725490196 L 68.0,72.00313725490196 L 69.0,72.00313725490196 L 69.99686274509804,73.0 L 70.0,73.00313725490196 L 71.0,73.00313725490196 L 72.0,73.00313725490196 L 73.0,73.00313725490196 L 74.0,73.00313725490196 L 75.0,73.00313725490196 L 76.0,73.00313725490196 L 77.0,73.00313725490196 L 78.0,73.00313725490196 L 79.0,73.00313725490196 L 80.0,73.00313725490196 L 81.0,73.00313725490196 L 81.00313725490196,73.0 L 82.0,72.00313725490196 L 83.0,72.00313725490196 L 84.0,72.00313725490196 L 84.99686274509804,73.0 L 84.99686274509804,74.0 L 84.99686274509804,75.0 L 84.99686274509804,76.0 L 84.0,76.99686274509804 L 83.99686274509804,77.0 L 83.99686274509804,78.0 L 83.0,78.99686274509804 L 82.00313725490196,78.0 L 82.00313725490196,77.0 L 82.00313725490196,76.0 L 82.0,75.99686274509804 L 81.00313725490196,75.0 L 81.0,74.99686274509804 L 80.0,74.99686274509804 L 79.0,74.99686274509804 L 78.0,74.99686274509804 L 77.99686274509804,75.0 L 77.99686274509804,76.0 L 77.99686274509804,77.0 L 77.99686274509804,78.0 L 77.99686274509804,79.0 L 77.99686274509804,80.0 L 77.99686274509804,81.0 L 77.99686274509804,82.0 L 77.99686274509804,83.0 L 77.99686274509804,84.0 L 77.99686274509804,85.0 L 77.99686274509804,86.0 L 77.99686274509804,87.0 L 77.99686274509804,88.0 L 77.99686274509804,89.0 L 77.99686274509804,90.0 L 78.0,90.00313725490196 L 79.0,90.00313725490196 L 80.0,90.00313725490196 L 80.99686274509804,91.0 L 80.0,91.99686274509804 L 79.99686274509804,92.0 L 79.0,92.99686274509804 Z" fill="black" stroke="none" /><path d="M 149.0,92.99686274509804 L 148.0,92.99686274509804 L 147.0,92.99686274509804 L 146.00313725490196,92.0 L 146.0,91.99686274509804 L 145.0,91.99686274509804 L 144.99686274509804,92.0 L 144.0,92.99686274509804 L 143.0,92.99686274509804 L 142.0,92.99686274509804 L 141.00313725490196,92.0 L 141.0,91.99686274509804 L 140.00313725490196,91.0 L 141.0,90.00313725490196 L 142.0,90.00313725490196 L 142.00313725490196,90.0 L 142.00313725490196,89.0 L 142.0,88.99686274509804 L 141.00313725490196,88.0 L 141.00313725490196,87.0 L 141.00313725490196,86.0 L 141.0,85.99686274509804 L 140.0,85.99686274509804 L 139.0,85.99686274509804 L 138.0,85.99686274509804 L 137.0,85.99686274509804 L 136.0,85.99686274509804 L 135.99686274509804,86.0 L 135.99686274509804,87.0 L 135.0,87.99686274509804 L 134.99686274509804,88.0 L 134.99686274509804,89.0 L 134.99686274509804,90.0 L 135.0,90.00313725490196 L 136.0,90.00313725490196 L 136.99686274509804,91.0 L 136.99686274509804,92.0 L 136.0,92.99686274509804 L 135.0,92.99686274509804 L 134.0,92.99686274509804 L 133.00313725490196,92.0 L 133.0,91.99686274509804 L 132.99686274509804,92.0 L 132.0,92.99686274509804 L 131.0,92.99686274509804 L 130.0,92.99686274509804 L 129.0,92.99686274509804 L 128.0,92.99686274509804 L 127.0,92.99686274509804 L 126.0,92.99686274509804 L 125.00313725490196,92.0 L 125.0,91.99686274509804 L 124.0,91.99686274509804 L 123.99686274509804,92.0 L 123.0,92.99686274509804 L 122.0,92.99686274509804 L 121.0,92.99686274509804 L 120.00313725490196,92.0 L 120.0,91.99686274509804 L 119.00313725490196,91.0 L 120.0,90.00313725490196 L 121.0,90.00313725490196 L 121.00313725490196,90.0 L 121.00313725490196,89.0 L 121.00313725490196,88.0 L 121.00313725490196,87.0 L 121.00313725490196,86.0 L 121.00313725490196,85.0 L 121.00313725490196,84.0 L 121.00313725490196,83.0 L 121.00313725490196,82.0 L 121.00313725490196,81.0 L 121.00313725490196,80.0 L 121.0,79.99686274509804 L 120.99686274509804,80.0 L 120.99686274509804,81.0 L 120.99686274509804,82.0 L 120.0,82.99686274509804 L 119.99686274509804,83.0 L 119.99686274509804,84.0 L 119.0,84.99686274509804 L 118.99686274509804,85.0 L 118.99686274509804,86.0 L 118.0,86.99686274509804 L 117.99686274509804,87.0 L 117.99686274509804,88.0 L 117.0,88.99686274509804 L 116.99686274509804,89.0 L 116.99686274509804,90.0 L 116.99686274509804,91.0 L 116.0,91.99686274509804 L 115.0,91.99686274509804 L 114.00313725490196,91.0 L 114.0,90.99686274509804 L 113.00313725490196,90.0 L 113.00313725490196,89.0 L 113.0,88.99686274509804 L 112.00313725490196,88.0 L 112.00313725490196,87.0 L 112.00313725490196,86.0 L 112.0,85.99686274509804 L 111.00313725490196,85.0 L 111.00313725490196,84.0 L 111.0,83.99686274509804 L 110.00313725490196,83.0 L 110.00313725490196,82.0 L 110.0,81.99686274509804 L 109.00313725490196,81.0 L 109.00313725490196,80.0 L 109.0,79.99686274509804 L 108.99686274509804,80.0 L 108.99686274509804,81.0 L 108.99686274509804,82.0 L 108.99686274509804,83.0 L 108.99686274509804,84.0 L 108.99686274509804,85.0 L 108.99686274509804,86.0 L 108.99686274509804,87.0 L 108.99686274509804,88.0 L 108.99686274509804,89.0 L 108.99686274509804,90.0 L 109.0,90.00313725490196 L 110.0,90.00313725490196 L 110.99686274509804,91.0 L 110.99686274509804,92.0 L 110.0,92.99686274509804 L 109.0,92.99686274509804 L 108.0,92.99686274509804 L 107.00313725490196,92.0 L 107.0,91.99686274509804 L 106.99686274509804,92.0 L 106.0,92.99686274509804 L 105.0,92.99686274509804 L 104.0,92.99686274509804 L 103.0,92.99686274509804 L 102.0,92.99686274509804 L 101.0,92.99686274509804 L 100.0,92.99686274509804 L 99.00313725490196,92.0 L 99.0,91.99686274509804 L 98.0,91.99686274509804 L 97.99686274509804,92.0 L 97.0,92.99686274509804 L 96.0,92.99686274509804 L 95.0,92.99686274509804 L 94.00313725490196,92.0 L 94.00313725490196,91.0 L 95.0,90.00313725490196 L 95.00313725490196,90.0 L 95.00313725490196,89.0 L 95.00313725490196,88.0 L 95.00313725490196,87.0 L 95.0,86.99686274509804 L 94.00313725490196,86.0 L 94.0,85.99686274509804 L 93.0,85.99686274509804 L 92.0,85.99686274509804 L 91.0,85.99686274509804 L 90.0,85.99686274509804 L 89.0,85.99686274509804 L 88.99686274509804,86.0 L 88.99686274509804,87.0 L 88.99686274509804,88.0 L 88.0,88.99686274509804 L 87.99686274509804,89.0 L 87.99686274509804,90.0 L 88.0,90.00313725490196 L 89.0,90.00313725490196 L 89.99686274509804,91.0 L 89.99686274509804,92.0 L 89.0,92.99686274509804 L 88.0,92.99686274509804 L 87.0,92.99686274509804 L 86.00313725490196,92.0 L 86.0,91.99686274509804 L 85.99686274509804,92.0 L 85.0,92.99686274509804 L 84.0,92.99686274509804 L 83.0,92.99686274509804 L 82.00313725490196,92.0 L 82.00313725490196,91.0 L 83.0,90.00313725490196 L 84.0,90.00313725490196 L 84.00313725490196,90.0 L 85.0,89.00313725490196 L 85.00313725490196,89.0 L 85.00313725490196,88.0 L 86.0,87.00313725490196 L 86.00313725490196,87.0 L 86.00313725490196,86.0 L 87.0,85.00313725490196 L 87.00313725490196,85.0 L 87.00313725490196,84.0 L 87.00313725490196,83.0 L 88.0,82.00313725490196 L 88.00313725490196,82.0 L 88.00313725490196,81.0 L 89.0,80.00313725490196 L 89.00313725490196,80.0 L 89.00313725490196,79.0 L 89.00313725490196,78.0 L 90.0,77.00313725490196 L 90.00313725490196,77.0 L 90.00313725490196,76.0 L 90.00313725490196,75.0 L 91.0,74.00313725490196 L 91.00313725490196,74.0 L 92.0,73.00313725490196 L 93.0,73.00313725490196 L 94.0,73.00313725490196 L 94.99686274509804,74.0 L 95.0,74.00313725490196 L 95.99686274509804,75.0 L 95.99686274509804,76.0 L 95.99686274509804,77.0 L 96.0,77.00313725490196 L 96.99686274509804,78.0 L 96.99686274509804,79.0 L 96.99686274509804,80.0 L 97.0,80.00313725490196 L 97.99686274509804,81.0 L 97.99686274509804,82.0 L 97.99686274509804,83.0 L 98.0,83.00313725490196 L 98.99686274509804,84.0 L 98.99686274509804,85.0 L 99.0,85.00313725490196 L 99.99686274509804,86.0 L 99.99686274509804,87.0 L 99.99686274509804,88.0 L 100.0,88.00313725490196 L 100.99686274509804,89.0 L 100.99686274509804,90.0 L 101.0,90.00313725490196 L 102.0,90.00313725490196 L 103.0,90.00313725490196 L 104.0,90.00313725490196 L 105.0,90.00313725490196 L 105.00313725490196,90.0 L 105.00313725490196,89.0 L 105.00313725490196,88.0 L 106.0,87.00313725490196 L 106.00313725490196,87.0 L 106.00313725490196,86.0 L 106.00313725490196,85.0 L 106.00313725490196,84.0 L 106.00313725490196,83.0 L 106.00313725490196,82.0 L 106.00313725490196,81.0 L 106.00313725490196,80.0 L 106.00313725490196,79.0 L 106.00313725490196,78.0 L 106.00313725490196,77.0 L 106.00313725490196,76.0 L 106.00313725490196,75.0 L 106.0,74.99686274509804 L 105.0,74.99686274509804 L 104.00313725490196,74.0 L 104.00313725490196,73.0 L 105.0,72.00313725490196 L 106.0,72.00313725490196 L 107.0,72.00313725490196 L 108.0,72.00313725490196 L 109.0,72.00313725490196 L 109.99686274509804,73.0 L 110.0,73.00313725490196 L 111.0,73.00313725490196 L 111.99686274509804,74.0 L 111.99686274509804,75.0 L 112.0,75.00313725490196 L 112.99686274509804,76.0 L 112.99686274509804,77.0 L 113.0,77.00313725490196 L 113.99686274509804,78.0 L 113.99686274509804,79.0 L 114.0,79.00313725490196 L 114.99686274509804,80.0 L 114.99686274509804,81.0 L 114.99686274509804,82.0 L 115.0,82.00313725490196 L 115.99686274509804,83.0 L 115.99686274509804,84.0 L 116.0,84.00313725490196 L 117.0,84.00313725490196 L 117.00313725490196,84.0 L 117.00313725490196,83.0 L 118.0,82.00313725490196 L 118.00313725490196,82.0 L 118.00313725490196,81.0 L 119.0,80.00313725490196 L 119.00313725490196,80.0 L 119.00313725490196,79.0 L 120.0,78.00313725490196 L 120.00313725490196,78.0 L 120.00313725490196,77.0 L 121.0,76.00313725490196 L 121.00313725490196,76.0 L 121.00313725490196,75.0 L 121.00313725490196,74.0 L 122.0,73.00313725490196 L 123.0,73.00313725490196 L 124.0,73.00313725490196 L 124.00313725490196,73.0 L 125.0,72.00313725490196 L 126.0,72.00313725490196 L 127.0,72.00313725490196 L 128.0,72.00313725490196 L 128.99686274509804,73.0 L 128.99686274509804,74.0 L 128.0,74.99686274509804 L 127.0,74.99686274509804 L 126.99686274509804,75.0 L 126.0,75.99686274509804 L 125.99686274509804,76.0 L 125.99686274509804,77.0 L 125.99686274509804,78.0 L 125.99686274509804,79.0 L 125.99686274509804,80.0 L 125.99686274509804,81.0 L 125.99686274509804,82.0 L 125.99686274509804,83.0 L 126.0,83.00313725490196 L 126.99686274509804,84.0 L 126.99686274509804,85.0 L 126.99686274509804,86.0 L 126.99686274509804,87.0 L 126.99686274509804,88.0 L 126.99686274509804,89.0 L 126.99686274509804,90.0 L 127.0,90.00313725490196 L 128.0,90.00313725490196 L 129.0,90.00313725490196 L 130.0,90.00313725490196 L 131.0,90.00313725490196 L 131.00313725490196,90.0 L 132.0,89.00313725490196 L 132.00313725490196,89.0 L 132.00313725490196,88.0 L 133.0,87.00313725490196 L 133.00313725490196,87.0 L 133.00313725490196,86.0 L 133.00313725490196,85.0 L 134.0,84.00313725490196 L 134.00313725490196,84.0 L 134.00313725490196,83.0 L 134.00313725490196,82.0 L 135.0,81.00313725490196 L 135.00313725490196,81.0 L 135.00313725490196,80.0 L 136.0,79.00313725490196 L 136.00313725490196,79.0 L 136.00313725490196,78.0 L 136.00313725490196,77.0 L 137.0,76.00313725490196 L 137.00313725490196,76.0 L 137.00313725490196,75.0 L 137.00313725490196,74.0 L 138.0,73.00313725490196 L 138.00313725490196,73.0 L 139.0,72.00313725490196 L 139.99686274509804,73.0 L 140.0,73.00313725490196 L 141.0,73.00313725490196 L 141.99686274509804,74.0 L 141.99686274509804,75.0 L 142.0,75.00313725490196 L 142.99686274509804,76.0 L 142.99686274509804,77.0 L 142.99686274509804,78.0 L 143.0,78.00313725490196 L 143.99686274509804,79.0 L 143.99686274509804,80.0 L 143.99686274509804,81.0 L 144.0,81.00313725490196 L 144.99686274509804,82.0 L 144.99686274509804,83.0 L 144.99686274509804,84.0 L 145.0,84.00313725490196 L 145.99686274509804,85.0 L 145.99686274509804,86.0 L 145.99686274509804,87.0 L 146.0,87.00313725490196 L 146.99686274509804,88.0 L 146.99686274509804,89.0 L 147.0,89.00313725490196 L 147.99686274509804,90.0 L 148.0,90.00313725490196 L 149.0,90.00313725490196 L 149.99686274509804,91.0 L 149.99686274509804,92.0 L 149.0,92.99686274509804 Z" fill="black" stroke="none" /><path d="M 0.0,75.00313725490196 L 0.9968627450980392,76.0 L 0.9968627450980392,77.0 L 0.9968627450980392,78.0 L 1.0,78.00313725490196 L 1.9968627450980392,79.0 L 1.9968627450980392,80.0 L 1.9968627450980392,81.0 L 1.9968627450980392,82.0 L 2.0,82.00313725490196 L 2.9968627450980394,83.0 L 2.9968627450980394,84.0 L 2.9968627450980394,85.0 L 2.9968627450980394,86.0 L 2.9968627450980394,87.0 L 2.9968627450980394,88.0 L 2.9968627450980394,89.0 L 2.9968627450980394,90.0 L 2.9968627450980394,91.0 L 2.9968627450980394,92.0 L 2.9968627450980394,93.0 L 2.9968627450980394,94.0 L 2.9968627450980394,95.0 L 2.9968627450980394,96.0 L 2.9968627450980394,97.0 L 2.9968627450980394,98.0 L 2.9968627450980394,99.0 L 2.9968627450980394,100.0 L 2.0,100.99686274509804 L 1.9968627450980392,101.0 L 1.9968627450980392,102.0 L 1.9968627450980392,103.0 L 1.9968627450980392,104.0 L 1.9968627450980392,105.0 L 1.0,105.99686274509804 L 0.0031372549019607846,105.0 L 0.0031372549019607846,104.0 L 0.0,103.99686274509804 Z" fill="black" stroke="none" /><path d="M 93.00313725490196,83.0 L 93.00313725490196,82.0 L 93.00313725490196,81.0 L 93.0,80.99686274509804 L 92.00313725490196,80.0 L 92.00313725490196,79.0 L 92.0,78.99686274509804 L 91.99686274509804,79.0 L 91.0,79.99686274509804 L 90.99686274509804,80.0 L 90.99686274509804,81.0 L 90.99686274509804,82.0 L 90.99686274509804,83.0 L 91.0,83.00313725490196 L 92.0,83.00313725490196 L 93.0,83.00313725490196 L 93.00313725490196,83.0 Z" fill="black" stroke="none" /><path d="M 140.00313725490196,83.0 L 140.0,82.99686274509804 L 139.00313725490196,82.0 L 139.00313725490196,81.0 L 139.00313725490196,80.0 L 139.0,79.99686274509804 L 138.00313725490196,79.0 L 138.0,78.99686274509804 L 137.99686274509804,79.0 L 137.99686274509804,80.0 L 137.99686274509804,81.0 L 137.0,81.99686274509804 L 136.99686274509804,82.0 L 136.99686274509804,83.0 L 137.0,83.00313725490196 L 138.0,83.00313725490196 L 139.0,83.00313725490196 L 140.0,83.00313725490196 L 140.00313725490196,83.0 Z" fill="black" stroke="none" /><path d="M 5.0,107.99686274509804 L 4.003137254901961,107.0 L 4.003137254901961,106.0 L 4.003137254901961,105.0 L 4.0,104.99686274509804 L 3.0031372549019606,104.0 L 3.0031372549019606,103.0 L 3.0031372549019606,102.0 L 3.0031372549019606,101.0 L 3.0031372549019606,100.0 L 3.0031372549019606,99.0 L 3.0031372549019606,98.0 L 3.0031372549019606,97.0 L 4.0,96.00313725490196 L 4.003137254901961,96.0 L 4.003137254901961,95.0 L 4.003137254901961,94.0 L 4.003137254901961,93.0 L 5.0,92.00313725490196 L 5.003137254901961,92.0 L 5.003137254901961,91.0 L 6.0,90.00313725490196 L 6.003137254901961,90.0 L 7.0,89.00313725490196 L 7.003137254901961,89.0 L 8.0,88.00313725490196 L 8.003137254901961,88.0 L 9.0,87.00313725490196 L 9.003137254901961,87.0 L 10.0,86.00313725490196 L 10.003137254901961,86.0 L 11.0,85.00313725490196 L 12.0,85.00313725490196 L 12.003137254901961,85.0 L 13.0,84.00313725490196 L 14.0,84.00313725490196 L 15.0,84.00313725490196 L 16.0,84.00313725490196 L 17.0,84.00313725490196 L 18.0,84.00313725490196 L 18.99686274509804,85.0 L 18.0,85.99686274509804 L 17.99686274509804,86.0 L 17.99686274509804,87.0 L 17.99686274509804,88.0 L 17.0,88.99686274509804 L 16.99686274509804,89.0 L 16.99686274509804,90.0 L 16.99686274509804,91.0 L 16.99686274509804,92.0 L 16.99686274509804,93.0 L 16.0,93.99686274509804 L 15.996862745098039,94.0 L 15.996862745098039,95.0 L 15.996862745098039,96.0 L 15.996862745098039,97.0 L 15.996862745098039,98.0 L 15.0,98.99686274509804 L 14.996862745098039,99.0 L 14.996862745098039,100.0 L 14.996862745098039,101.0 L 14.0,101.99686274509804 L 13.996862745098039,102.0 L 13.996862745098039,103.0 L 13.0,103.99686274509804 L 12.996862745098039,104.0 L 12.0,104.99686274509804 L 11.996862745098039,105.0 L 11.0,105.99686274509804 L 10.0,105.99686274509804 L 9.996862745098039,106.0 L 9.0,106.99686274509804 L 8.0,106.99686274509804 L 7.0,106.99686274509804 L 6.0,106.99686274509804 L 5.996862745098039,107.0 L 5.0,107.99686274509804 Z" fill="black" stroke="none" /><path d="M 69.0,118.99686274509804 L 68.0,118.99686274509804 L 67.0,118.99686274509804 L 66.0,118.99686274509804 L 65.0,118.99686274509804 L 64.0,118.99686274509804 L 63.0,118.99686274509804 L 62.0,118.99686274509804 L 61.0,118.99686274509804 L 60.0,118.99686274509804 L 59.0,118.99686274509804 L 58.0,118.99686274509804 L 57.0,118.99686274509804 L 56.0,118.99686274509804 L 55.0,118.99686274509804 L 54.0,118.99686274509804 L 53.0,118.99686274509804 L 52.0,118.99686274509804 L 51.0,118.99686274509804 L 50.0,118.99686274509804 L 49.0,118.99686274509804 L 48.00313725490196,118.0 L 48.0,117.99686274509804 L 47.00313725490196,117.0 L 47.0,116.99686274509804 L 46.00313725490196,116.0 L 46.0,115.99686274509804 L 45.00313725490196,115.0 L 45.00313725490196,114.0 L 45.0,113.99686274509804 L 44.00313725490196,113.0 L 44.0,112.99686274509804 L 43.00313725490196,112.0 L 43.00313725490196,111.0 L 43.0,110.99686274509804 L 42.0,110.99686274509804 L 41.99686274509804,111.0 L 41.99686274509804,112.0 L 41.99686274509804,113.0 L 41.99686274509804,114.0 L 41.99686274509804,115.0 L 41.99686274509804,116.0 L 41.99686274509804,117.0 L 42.0,117.00313725490196 L 43.0,117.00313725490196 L 43.99686274509804,118.0 L 43.0,118.99686274509804 L 42.0,118.99686274509804 L 41.0,118.99686274509804 L 40.0,118.99686274509804 L 39.0,118.99686274509804 L 38.0,118.99686274509804 L 37.0,118.99686274509804 L 36.0,118.99686274509804 L 35.00313725490196,118.0 L 36.0,117.00313725490196 L 37.0,117.00313725490196 L 37.00313725490196,117.0 L 37.00313725490196,116.0 L 37.00313725490196,115.0 L 37.00313725490196,114.0 L 37.00313725490196,113.0 L 37.00313725490196,112.0 L 37.00313725490196,111.0 L 37.00313725490196,110.0 L 37.00313725490196,109.0 L 37.00313725490196,108.0 L 37.00313725490196,107.0 L 37.00313725490196,106.0 L 37.00313725490196,105.0 L 37.00313725490196,104.0 L 37.00313725490196,103.0 L 37.00313725490196,102.0 L 37.0,101.99686274509804 L 36.0,101.99686274509804 L 35.00313725490196,101.0 L 36.0,100.00313725490196 L 37.0,100.00313725490196 L 38.0,100.00313725490196 L 39.0,100.00313725490196 L 40.0,100.00313725490196 L 41.0,100.00313725490196 L 42.0,100.00313725490196 L 43.0,100.00313725490196 L 44.0,100.00313725490196 L 45.0,100.00313725490196 L 46.0,100.00313725490196 L 47.0,100.00313725490196 L 48.0,100.00313725490196 L 48.99686274509804,101.0 L 49.0,101.00313725490196 L 49.99686274509804,102.0 L 49.99686274509804,103.0 L 50.0,103.00313725490196 L 50.99686274509804,104.0 L 50.99686274509804,105.0 L 50.99686274509804,106.0 L 50.0,106.99686274509804 L 49.99686274509804,107.0 L 49.0,107.99686274509804 L 48.99686274509804,108.0 L 48.0,108.99686274509804 L 47.99686274509804,109.0 L 47.0,109.99686274509804 L 46.99686274509804,110.0 L 47.0,110.00313725490196 L 47.99686274509804,111.0 L 48.0,111.00313725490196 L 48.99686274509804,112.0 L 48.99686274509804,113.0 L 49.0,113.00313725490196 L 49.99686274509804,114.0 L 50.0,114.00313725490196 L 50.99686274509804,115.0 L 51.0,115.00313725490196 L 51.99686274509804,116.0 L 52.0,116.00313725490196 L 52.99686274509804,117.0 L 53.0,117.00313725490196 L 54.0,117.00313725490196 L 55.0,117.00313725490196 L 56.0,117.00313725490196 L 57.0,117.00313725490196 L 57.00313725490196,117.0 L 57.00313725490196,116.0 L 57.00313725490196,115.0 L 57.00313725490196,114.0 L 57.00313725490196,113.0 L 57.00313725490196,112.0 L 57.00313725490196,111.0 L 57.00313725490196,110.0 L 57.00313725490196,109.0 L 57.00313725490196,108.0 L 57.00313725490196,107.0 L 57.00313725490196,106.0 L 57.00313725490196,105.0 L 57.00313725490196,104.0 L 57.00313725490196,103.0 L 57.00313725490196,102.0 L 57.0,101.99686274509804 L 56.0,101.99686274509804 L 55.00313725490196,101.0 L 56.0,100.00313725490196 L 57.0,100.00313725490196 L 58.0,100.00313725490196 L 59.0,100.00313725490196 L 60.0,100.00313725490196 L 61.0,100.00313725490196 L 62.0,100.00313725490196 L 63.0,100.00313725490196 L 64.0,100.00313725490196 L 65.0,100.00313725490196 L 66.0,100.00313725490196 L 67.0,100.00313725490196 L 68.0,100.00313725490196 L 69.0,100.00313725490196 L 69.99686274509804,101.0 L 69.99686274509804,102.0 L 69.99686274509804,103.0 L 69.99686274509804,104.0 L 69.0,104.99686274509804 L 68.0,104.99686274509804 L 67.00313725490196,104.0 L 67.00313725490196,103.0 L 67.0,102.99686274509804 L 66.00313725490196,102.0 L 66.0,101.99686274509804 L 65.0,101.99686274509804 L 64.0,101.99686274509804 L 63.0,101.99686274509804 L 62.0,101.99686274509804 L 61.99686274509804,102.0 L 61.99686274509804,103.0 L 61.99686274509804,104.0 L 61.99686274509804,105.0 L 61.99686274509804,106.0 L 61.99686274509804,107.0 L 61.99686274509804,108.0 L 62.0,108.00313725490196 L 63.0,108.00313725490196 L 64.0,108.00313725490196 L 65.0,108.00313725490196 L 66.0,108.00313725490196 L 66.00313725490196,108.0 L 66.00313725490196,107.0 L 67.0,106.00313725490196 L 68.0,106.00313725490196 L 68.99686274509804,107.0 L 68.99686274509804,108.0 L 68.99686274509804,109.0 L 68.99686274509804,110.0 L 68.99686274509804,111.0 L 68.0,111.99686274509804 L 67.99686274509804,112.0 L 67.0,112.99686274509804 L 66.00313725490196,112.0 L 66.00313725490196,111.0 L 66.0,110.99686274509804 L 65.0,110.99686274509804 L 64.0,110.99686274509804 L 63.0,110.99686274509804 L 62.0,110.99686274509804 L 61.99686274509804,111.0 L 61.99686274509804,112.0 L 61.99686274509804,113.0 L 61.99686274509804,114.0 L 61.99686274509804,115.0 L 61.99686274509804,116.0 L 61.99686274509804,117.0 L 62.0,117.00313725490196 L 63.0,117.00313725490196 L 64.0,117.00313725490196 L 65.0,117.00313725490196 L 66.0,117.00313725490196 L 67.0,117.00313725490196 L 67.00313725490196,117.0 L 68.0,116.00313725490196 L 68.00313725490196,116.0 L 69.0,115.00313725490196 L 69.00313725490196,115.0 L 70.0,114.00313725490196 L 70.99686274509804,115.0 L 70.99686274509804,116.0 L 70.99686274509804,117.0 L 70.0,117.99686274509804 L 69.99686274509804,118.0 L 69.0,118.99686274509804 Z" fill="black" stroke="none" /><path d="M 97.0,118.99686274509804 L 96.0,118.99686274509804 L 95.0,118.99686274509804 L 94.0,118.99686274509804 L 93.0,118.99686274509804 L 92.0,118.99686274509804 L 91.0,118.99686274509804 L 90.0,118.99686274509804 L 89.00313725490196,118.0 L 90.0,117.00313725490196 L 91.0,117.00313725490196 L 91.00313725490196,117.0 L 91.00313725490196,116.0 L 91.00313725490196,115.0 L 91.00313725490196,114.0 L 91.00313725490196,113.0 L 91.00313725490196,112.0 L 91.00313725490196,111.0 L 91.00313725490196,110.0 L 91.00313725490196,109.0 L 91.00313725490196,108.0 L 91.00313725490196,107.0 L 91.00313725490196,106.0 L 91.0,105.99686274509804 L 90.99686274509804,106.0 L 90.99686274509804,107.0 L 90.0,107.99686274509804 L 89.99686274509804,108.0 L 89.99686274509804,109.0 L 89.0,109.99686274509804 L 88.99686274509804,110.0 L 88.99686274509804,111.0 L 88.0,111.99686274509804 L 87.99686274509804,112.0 L 87.99686274509804,113.0 L 87.0,113.99686274509804 L 86.99686274509804,114.0 L 86.99686274509804,115.0 L 86.99686274509804,116.0 L 86.0,116.99686274509804 L 85.99686274509804,117.0 L 85.99686274509804,118.0 L 85.0,118.99686274509804 L 84.0,118.99686274509804 L 83.00313725490196,118.0 L 83.00313725490196,117.0 L 83.0,116.99686274509804 L 82.00313725490196,116.0 L 82.00313725490196,115.0 L 82.00313725490196,114.0 L 82.0,113.99686274509804 L 81.00313725490196,113.0 L 81.00313725490196,112.0 L 81.0,111.99686274509804 L 80.00313725490196,111.0 L 80.00313725490196,110.0 L 80.0,109.99686274509804 L 79.00313725490196,109.0 L 79.00313725490196,108.0 L 79.00313725490196,107.0 L 79.0,106.99686274509804 L 78.00313725490196,106.0 L 78.00313725490196,105.0 L 78.0,104.99686274509804 L 77.99686274509804,105.0 L 77.99686274509804,106.0 L 77.99686274509804,107.0 L 77.99686274509804,108.0 L 77.99686274509804,109.0 L 77.99686274509804,110.0 L 77.99686274509804,111.0 L 77.99686274509804,112.0 L 77.99686274509804,113.0 L 77.99686274509804,114.0 L 77.99686274509804,115.0 L 77.99686274509804,116.0 L 77.99686274509804,117.0 L 78.0,117.00313725490196 L 79.0,117.00313725490196 L 79.99686274509804,118.0 L 79.0,118.99686274509804 L 78.0,118.99686274509804 L 77.0,118.99686274509804 L 76.0,118.99686274509804 L 75.0,118.99686274509804 L 74.0,118.99686274509804 L 73.0,118.99686274509804 L 72.00313725490196,118.0 L 73.0,117.00313725490196 L 74.0,117.00313725490196 L 75.0,117.00313725490196 L 75.00313725490196,117.0 L 75.00313725490196,116.0 L 75.00313725490196,115.0 L 75.00313725490196,114.0 L 75.00313725490196,113.0 L 75.00313725490196,112.0 L 75.00313725490196,111.0 L 76.0,110.00313725490196 L 76.00313725490196,110.0 L 76.00313725490196,109.0 L 76.00313725490196,108.0 L 76.00313725490196,107.0 L 76.00313725490196,106.0 L 76.00313725490196,105.0 L 76.00313725490196,104.0 L 76.00313725490196,103.0 L 76.00313725490196,102.0 L 76.0,101.99686274509804 L 75.0,101.99686274509804 L 74.0,101.99686274509804 L 73.00313725490196,101.0 L 74.0,100.00313725490196 L 75.0,100.00313725490196 L 76.0,100.00313725490196 L 77.0,100.00313725490196 L 78.0,100.00313725490196 L 79.0,100.00313725490196 L 80.0,100.00313725490196 L 80.99686274509804,101.0 L 80.99686274509804,102.0 L 81.0,102.00313725490196 L 81.99686274509804,103.0 L 81.99686274509804,104.0 L 82.0,104.00313725490196 L 82.99686274509804,105.0 L 82.99686274509804,106.0 L 83.0,106.00313725490196 L 83.99686274509804,107.0 L 83.99686274509804,108.0 L 84.0,108.00313725490196 L 84.99686274509804,109.0 L 84.99686274509804,110.0 L 85.0,110.00313725490196 L 85.99686274509804,111.0 L 85.99686274509804,112.0 L 86.0,112.00313725490196 L 86.00313725490196,112.0 L 86.00313725490196,111.0 L 87.0,110.00313725490196 L 87.00313725490196,110.0 L 87.00313725490196,109.0 L 88.0,108.00313725490196 L 88.00313725490196,108.0 L 88.00313725490196,107.0 L 89.0,106.00313725490196 L 89.00313725490196,106.0 L 89.00313725490196,105.0 L 90.0,104.00313725490196 L 90.00313725490196,104.0 L 90.00313725490196,103.0 L 91.0,102.00313725490196 L 91.00313725490196,102.0 L 91.00313725490196,101.0 L 92.0,100.00313725490196 L 93.0,100.00313725490196 L 94.0,100.00313725490196 L 95.0,100.00313725490196 L 96.0,100.00313725490196 L 97.0,100.00313725490196 L 97.99686274509804,101.0 L 97.0,101.99686274509804 L 96.0,101.99686274509804 L 95.99686274509804,102.0 L 95.99686274509804,103.0 L 95.99686274509804,104.0 L 95.99686274509804,105.0 L 95.99686274509804,106.0 L 95.99686274509804,107.0 L 95.99686274509804,108.0 L 95.99686274509804,109.0 L 95.99686274509804,110.0 L 95.99686274509804,111.0 L 95.99686274509804,112.0 L 95.99686274509804,113.0 L 95.99686274509804,114.0 L 95.99686274509804,115.0 L 95.99686274509804,116.0 L 95.99686274509804,117.0 L 96.0,117.00313725490196 L 97.0,117.00313725490196 L 97.99686274509804,118.0 L 97.0,118.99686274509804 Z" fill="black" stroke="none" /><path d="M 108.0,118.99686274509804 L 107.0,118.99686274509804 L 106.0,118.99686274509804 L 105.0,118.99686274509804 L 104.0,118.99686274509804 L 103.0,118.99686274509804 L 102.0,118.99686274509804 L 101.0,118.99686274509804 L 100.00313725490196,118.0 L 101.0,117.00313725490196 L 102.0,117.00313725490196 L 102.00313725490196,117.0 L 102.00313725490196,116.0 L 102.00313725490196,115.0 L 102.00313725490196,114.0 L 102.00313725490196,113.0 L 102.00313725490196,112.0 L 102.00313725490196,111.0 L 102.00313725490196,110.0 L 102.00313725490196,109.0 L 102.00313725490196,108.0 L 102.00313725490196,107.0 L 102.00313725490196,106.0 L 102.00313725490196,105.0 L 102.00313725490196,104.0 L 102.00313725490196,103.0 L 102.00313725490196,102.0 L 102.0,101.99686274509804 L 101.0,101.99686274509804 L 100.00313725490196,101.0 L 101.0,100.00313725490196 L 102.0,100.00313725490196 L 103.0,100.00313725490196 L 104.0,100.00313725490196 L 105.0,100.00313725490196 L 106.0,100.00313725490196 L 107.0,100.00313725490196 L 108.0,100.00313725490196 L 109.0,100.00313725490196 L 110.0,100.00313725490196 L 111.0,100.00313725490196 L 112.0,100.00313725490196 L 113.0,100.00313725490196 L 113.99686274509804,101.0 L 114.0,101.00313725490196 L 114.99686274509804,102.0 L 115.0,102.00313725490196 L 115.99686274509804,103.0 L 115.99686274509804,104.0 L 115.99686274509804,105.0 L 115.99686274509804,106.0 L 115.99686274509804,107.0 L 115.99686274509804,108.0 L 115.0,108.99686274509804 L 114.99686274509804,109.0 L 114.0,109.99686274509804 L 113.99686274509804,110.0 L 113.0,110.99686274509804 L 112.0,110.99686274509804 L 111.99686274509804,111.0 L 111.0,111.99686274509804 L 110.0,111.99686274509804 L 109.0,111.99686274509804 L 108.0,111.99686274509804 L 107.00313725490196,111.0 L 108.0,110.00313725490196 L 109.0,110.00313725490196 L 109.00313725490196,110.0 L 110.0,109.00313725490196 L 111.0,109.00313725490196 L 111.00313725490196,109.0 L 111.00313725490196,108.0 L 111.00313725490196,107.0 L 111.00313725490196,106.0 L 111.00313725490196,105.0 L 111.00313725490196,104.0 L 111.00313725490196,103.0 L 111.0,102.99686274509804 L 110.00313725490196,102.0 L 110.0,101.99686274509804 L 109.0,101.99686274509804 L 108.0,101.99686274509804 L 107.0,101.99686274509804 L 106.99686274509804,102.0 L 106.99686274509804,103.0 L 106.99686274509804,104.0 L 106.99686274509804,105.0 L 106.99686274509804,106.0 L 106.99686274509804,107.0 L 106.99686274509804,108.0 L 106.99686274509804,109.0 L 106.99686274509804,110.0 L 106.99686274509804,111.0 L 106.99686274509804,112.0 L 106.99686274509804,113.0 L 106.99686274509804,114.0 L 106.99686274509804,115.0 L 106.99686274509804,116.0 L 106.99686274509804,117.0 L 107.0,117.00313725490196 L 108.0,117.00313725490196 L 108.99686274509804,118.0 L 108.0,118.99686274509804 Z" fill="black" stroke="none" /><path d="M 134.0,118.99686274509804 L 133.0,118.99686274509804 L 132.0,118.99686274509804 L 131.0,118.99686274509804 L 130.0,118.99686274509804 L 129.0,118.99686274509804 L 128.0,118.99686274509804 L 127.0,118.99686274509804 L 126.00313725490196,118.0 L 127.0,117.00313725490196 L 128.0,117.00313725490196 L 128.00313725490196,117.0 L 128.0,116.99686274509804 L 127.00313725490196,116.0 L 127.00313725490196,115.0 L 127.00313725490196,114.0 L 127.0,113.99686274509804 L 126.00313725490196,113.0 L 126.00313725490196,112.0 L 126.0,111.99686274509804 L 125.0,111.99686274509804 L 124.0,111.99686274509804 L 123.0,111.99686274509804 L 122.0,111.99686274509804 L 121.99686274509804,112.0 L 121.0,112.99686274509804 L 120.99686274509804,113.0 L 120.99686274509804,114.0 L 120.0,114.99686274509804 L 119.99686274509804,115.0 L 119.99686274509804,116.0 L 119.99686274509804,117.0 L 120.0,117.00313725490196 L 121.0,117.00313725490196 L 121.99686274509804,118.0 L 121.0,118.99686274509804 L 120.0,118.99686274509804 L 119.0,118.99686274509804 L 118.0,118.99686274509804 L 117.0,118.99686274509804 L 116.0,118.99686274509804 L 115.0,118.99686274509804 L 114.00313725490196,118.0 L 115.0,117.00313725490196 L 116.0,117.00313725490196 L 117.0,117.00313725490196 L 117.00313725490196,117.0 L 117.00313725490196,116.0 L 118.0,115.00313725490196 L 118.00313725490196,115.0 L 118.00313725490196,114.0 L 118.00313725490196,113.0 L 119.0,112.00313725490196 L 119.00313725490196,112.0 L 119.00313725490196,111.0 L 120.0,110.00313725490196 L 120.00313725490196,110.0 L 120.00313725490196,109.0 L 120.00313725490196,108.0 L 121.0,107.00313725490196 L 121.00313725490196,107.0 L 121.00313725490196,106.0 L 122.0,105.00313725490196 L 122.00313725490196,105.0 L 122.00313725490196,104.0 L 122.00313725490196,103.0 L 123.0,102.00313725490196 L 123.00313725490196,102.0 L 123.00313725490196,101.0 L 124.0,100.00313725490196 L 125.0,100.00313725490196 L 126.0,100.00313725490196 L 126.99686274509804,101.0 L 126.99686274509804,102.0 L 127.0,102.00313725490196 L 127.99686274509804,103.0 L 127.99686274509804,104.0 L 127.99686274509804,105.0 L 128.0,105.00313725490196 L 128.99686274509804,106.0 L 128.99686274509804,107.0 L 129.0,107.00313725490196 L 129.99686274509804,108.0 L 129.99686274509804,109.0 L 129.99686274509804,110.0 L 130.0,110.00313725490196 L 130.99686274509804,111.0 L 130.99686274509804,112.0 L 130.99686274509804,113.0 L 131.0,113.00313725490196 L 131.99686274509804,114.0 L 131.99686274509804,115.0 L 132.0,115.00313725490196 L 132.99686274509804,116.0 L 132.99686274509804,117.0 L 133.0,117.00313725490196 L 134.0,117.00313725490196 L 134.99686274509804,118.0 L 134.0,118.99686274509804 Z" fill="black" stroke="none" /><path d="M 156.0,118.99686274509804 L 155.0,118.99686274509804 L 154.0,118.99686274509804 L 153.0,118.99686274509804 L 152.0,118.99686274509804 L 151.0,118.99686274509804 L 150.0,118.99686274509804 L 149.0,118.99686274509804 L 148.00313725490196,118.0 L 149.0,117.00313725490196 L 150.0,117.00313725490196 L 150.00313725490196,117.0 L 150.00313725490196,116.0 L 150.00313725490196,115.0 L 150.00313725490196,114.0 L 150.00313725490196,113.0 L 150.00313725490196,112.0 L 150.00313725490196,111.0 L 150.0,110.99686274509804 L 149.0,110.99686274509804 L 148.0,110.99686274509804 L 147.0,110.99686274509804 L 146.0,110.99686274509804 L 145.0,110.99686274509804 L 144.0,110.99686274509804 L 143.0,110.99686274509804 L 142.99686274509804,111.0 L 142.99686274509804,112.0 L 142.99686274509804,113.0 L 142.99686274509804,114.0 L 142.99686274509804,115.0 L 142.99686274509804,116.0 L 142.99686274509804,117.0 L 143.0,117.00313725490196 L 144.0,117.00313725490196 L 144.99686274509804,118.0 L 144.0,118.99686274509804 L 143.0,118.99686274509804 L 142.0,118.99686274509804 L 141.0,118.99686274509804 L 140.0,118.99686274509804 L 139.0,118.99686274509804 L 138.0,118.99686274509804 L 137.0,118.99686274509804 L 136.00313725490196,118.0 L 137.0,117.00313725490196 L 138.0,117.00313725490196 L 138.00313725490196,117.0 L 138.00313725490196,116.0 L 138.00313725490196,115.0 L 138.00313725490196,114.0 L 138.00313725490196,113.0 L 138.00313725490196,112.0 L 138.00313725490196,111.0 L 138.00313725490196,110.0 L 138.00313725490196,109.0 L 138.00313725490196,108.0 L 138.00313725490196,107.0 L 138.00313725490196,106.0 L 138.00313725490196,105.0 L 138.00313725490196,104.0 L 138.00313725490196,103.0 L 138.00313725490196,102.0 L 138.0,101.99686274509804 L 137.0,101.99686274509804 L 136.00313725490196,101.0 L 137.0,100.00313725490196 L 138.0,100.00313725490196 L 139.0,100.00313725490196 L 140.0,100.00313725490196 L 141.0,100.00313725490196 L 142.0,100.00313725490196 L 143.0,100.00313725490196 L 144.0,100.00313725490196 L 144.99686274509804,101.0 L 144.0,101.99686274509804 L 143.0,101.99686274509804 L 142.99686274509804,102.0 L 142.99686274509804,103.0 L 142.99686274509804,104.0 L 142.99686274509804,105.0 L 142.99686274509804,106.0 L 142.99686274509804,107.0 L 142.99686274509804,108.0 L 143.0,108.00313725490196 L 144.0,108.00313725490196 L 145.0,108.00313725490196 L 146.0,108.00313725490196 L 147.0,108.00313725490196 L 148.0,108.00313725490196 L 149.0,108.00313725490196 L 150.0,108.00313725490196 L 150.00313725490196,108.0 L 150.00313725490196,107.0 L 150.00313725490196,106.0 L 150.00313725490196,105.0 L 150.00313725490196,104.0 L 150.00313725490196,103.0 L 150.00313725490196,102.0 L 150.0,101.99686274509804 L 149.0,101.99686274509804 L 148.00313725490196,101.0 L 149.0,100.00313725490196 L 150.0,100.00313725490196 L 151.0,100.00313725490196 L 152.0,100.00313725490196 L 153.0,100.00313725490196 L 154.0,100.00313725490196 L 155.0,100.00313725490196 L 156.0,100.00313725490196 L 156.99686274509804,101.0 L 156.0,101.99686274509804 L 155.0,101.99686274509804 L 154.99686274509804,102.0 L 154.99686274509804,103.0 L 154.99686274509804,104.0 L 154.99686274509804,105.0 L 154.99686274509804,106.0 L 154.99686274509804,107.0 L 154.99686274509804,108.0 L 154.99686274509804,109.0 L 154.99686274509804,110.0 L 154.99686274509804,111.0 L 154.99686274509804,112.0 L 154.99686274509804,113.0 L 154.99686274509804,114.0 L 154.99686274509804,115.0 L 154.99686274509804,116.0 L 154.99686274509804,117.0 L 155.0,117.00313725490196 L 156.0,117.00313725490196 L 156.99686274509804,118.0 L 156.0,118.99686274509804 Z" fill="black" stroke="none" /><path d="M 44.00313725490196,109.0 L 45.0,108.00313725490196 L 45.00313725490196,108.0 L 46.0,107.00313725490196 L 46.00313725490196,107.0 L 46.00313725490196,106.0 L 46.00313725490196,105.0 L 46.00313725490196,104.0 L 46.0,103.99686274509804 L 45.00313725490196,103.0 L 45.0,102.99686274509804 L 44.00313725490196,102.0 L 44.0,101.99686274509804 L 43.0,101.99686274509804 L 42.0,101.99686274509804 L 41.99686274509804,102.0 L 41.99686274509804,103.0 L 41.99686274509804,104.0 L 41.99686274509804,105.0 L 41.99686274509804,106.0 L 41.99686274509804,107.0 L 41.99686274509804,108.0 L 41.99686274509804,109.0 L 42.0,109.00313725490196 L 43.0,109.00313725490196 L 44.0,109.00313725490196 L 44.00313725490196,109.0 Z" fill="black" stroke="none" /><path d="M 23.0,105.99686274509804 L 22.00313725490196,105.0 L 23.0,104.00313725490196 L 23.99686274509804,105.0 L 23.0,105.99686274509804 Z" fill="black" stroke="none" /><path d="M 125.00313725490196,110.0 L 125.00313725490196,109.0 L 125.00313725490196,108.0 L 125.0,107.99686274509804 L 124.00313725490196,107.0 L 124.00313725490196,106.0 L 124.00313725490196,105.0 L 124.0,104.99686274509804 L 123.99686274509804,105.0 L 123.99686274509804,106.0 L 123.0,106.99686274509804 L 122.99686274509804,107.0 L 122.99686274509804,108.0 L 122.99686274509804,109.0 L 122.0,109.99686274509804 L 121.99686274509804,110.0 L 122.0,110.00313725490196 L 123.0,110.00313725490196 L 124.0,110.00313725490196 L 125.0,110.00313725490196 L 125.00313725490196,110.0 Z" fill="black" stroke="none" /><path d="M 0.0,111.00313725490196 L 1.0,111.00313725490196 L 2.0,111.00313725490196 L 3.0,111.00313725490196 L 4.0,111.00313725490196 L 5.0,111.00313725490196 L 6.0,111.00313725490196 L 7.0,111.00313725490196 L 8.0,111.00313725490196 L 9.0,111.00313725490196 L 10.0,111.00313725490196 L 11.0,111.00313725490196 L 11.003137254901961,111.0 L 12.0,110.00313725490196 L 13.0,110.00313725490196 L 14.0,110.00313725490196 L 15.0,110.00313725490196 L 16.0,110.00313725490196 L 17.0,110.00313725490196 L 17.00313725490196,110.0 L 18.0,109.00313725490196 L 19.0,109.00313725490196 L 20.0,109.00313725490196 L 20.00313725490196,109.0 L 21.0,108.00313725490196 L 22.0,108.00313725490196 L 22.00313725490196,108.0 L 23.0,107.00313725490196 L 23.00313725490196,107.0 L 23.00313725490196,106.0 L 24.0,105.00313725490196 L 24.99686274509804,106.0 L 24.99686274509804,107.0 L 24.99686274509804,108.0 L 24.99686274509804,109.0 L 24.99686274509804,110.0 L 24.99686274509804,111.0 L 24.99686274509804,112.0 L 24.99686274509804,113.0 L 24.99686274509804,114.0 L 24.0,114.99686274509804 L 23.99686274509804,115.0 L 23.99686274509804,116.0 L 23.0,116.99686274509804 L 22.99686274509804,117.0 L 22.99686274509804,118.0 L 22.0,118.99686274509804 L 21.99686274509804,119.0 L 21.0,119.99686274509804 L 20.99686274509804,120.0 L 20.0,120.99686274509804 L 19.99686274509804,121.0 L 19.0,121.99686274509804 L 18.0,121.99686274509804 L 17.99686274509804,122.0 L 17.0,122.99686274509804 L 16.0,122.99686274509804 L 15.996862745098039,123.0 L 16.0,123.00313725490196 L 16.99686274509804,124.0 L 17.0,124.00313725490196 L 17.99686274509804,125.0 L 17.0,125.99686274509804 L 16.0,125.99686274509804 L 15.0,125.99686274509804 L 14.0,125.99686274509804 L 13.996862745098039,126.0 L 13.0,126.99686274509804 L 12.0,126.99686274509804 L 11.0,126.99686274509804 L 10.0,126.99686274509804 L 9.0,126.99686274509804 L 8.0,126.99686274509804 L 7.0,126.99686274509804 L 6.0,126.99686274509804 L 5.0,126.99686274509804 L 4.0,126.99686274509804 L 3.0,126.99686274509804 L 2.0,126.99686274509804 L 1.0,126.99686274509804 L 0.0,126.99686274509804 Z" fill="black" stroke="none" /></svg>